%TF.GenerationSoftware,KiCad,Pcbnew,8.0.3*%
%TF.CreationDate,2024-06-23T20:05:21+02:00*%
%TF.ProjectId,Pilot,50696c6f-742e-46b6-9963-61645f706362,rev?*%
%TF.SameCoordinates,Original*%
%TF.FileFunction,Legend,Top*%
%TF.FilePolarity,Positive*%
%FSLAX46Y46*%
G04 Gerber Fmt 4.6, Leading zero omitted, Abs format (unit mm)*
G04 Created by KiCad (PCBNEW 8.0.3) date 2024-06-23 20:05:21*
%MOMM*%
%LPD*%
G01*
G04 APERTURE LIST*
G04 Aperture macros list*
%AMRoundRect*
0 Rectangle with rounded corners*
0 $1 Rounding radius*
0 $2 $3 $4 $5 $6 $7 $8 $9 X,Y pos of 4 corners*
0 Add a 4 corners polygon primitive as box body*
4,1,4,$2,$3,$4,$5,$6,$7,$8,$9,$2,$3,0*
0 Add four circle primitives for the rounded corners*
1,1,$1+$1,$2,$3*
1,1,$1+$1,$4,$5*
1,1,$1+$1,$6,$7*
1,1,$1+$1,$8,$9*
0 Add four rect primitives between the rounded corners*
20,1,$1+$1,$2,$3,$4,$5,0*
20,1,$1+$1,$4,$5,$6,$7,0*
20,1,$1+$1,$6,$7,$8,$9,0*
20,1,$1+$1,$8,$9,$2,$3,0*%
G04 Aperture macros list end*
%ADD10C,0.100000*%
%ADD11C,0.254000*%
%ADD12C,0.120000*%
%ADD13C,0.299000*%
%ADD14C,0.200000*%
%ADD15O,1.300000X2.000000*%
%ADD16R,1.000000X1.900000*%
%ADD17O,1.000000X1.300000*%
%ADD18R,1.800000X1.900000*%
%ADD19R,0.350000X1.350000*%
%ADD20RoundRect,0.225000X-0.225000X-0.250000X0.225000X-0.250000X0.225000X0.250000X-0.225000X0.250000X0*%
%ADD21RoundRect,0.140000X0.170000X-0.140000X0.170000X0.140000X-0.170000X0.140000X-0.170000X-0.140000X0*%
%ADD22RoundRect,0.250001X2.049999X0.799999X-2.049999X0.799999X-2.049999X-0.799999X2.049999X-0.799999X0*%
%ADD23RoundRect,0.250000X-1.150000X0.250000X-1.150000X-0.250000X1.150000X-0.250000X1.150000X0.250000X0*%
%ADD24RoundRect,0.150000X-0.700000X0.150000X-0.700000X-0.150000X0.700000X-0.150000X0.700000X0.150000X0*%
%ADD25RoundRect,0.140000X-0.170000X0.140000X-0.170000X-0.140000X0.170000X-0.140000X0.170000X0.140000X0*%
%ADD26R,0.700000X1.500000*%
%ADD27R,1.000000X0.800000*%
%ADD28C,0.900000*%
%ADD29R,2.400000X2.000000*%
%ADD30RoundRect,0.135000X-0.185000X0.135000X-0.185000X-0.135000X0.185000X-0.135000X0.185000X0.135000X0*%
%ADD31RoundRect,0.200000X-0.200000X-0.275000X0.200000X-0.275000X0.200000X0.275000X-0.200000X0.275000X0*%
%ADD32RoundRect,0.225000X0.225000X0.250000X-0.225000X0.250000X-0.225000X-0.250000X0.225000X-0.250000X0*%
%ADD33RoundRect,0.140000X-0.140000X-0.170000X0.140000X-0.170000X0.140000X0.170000X-0.140000X0.170000X0*%
%ADD34RoundRect,0.140000X0.140000X0.170000X-0.140000X0.170000X-0.140000X-0.170000X0.140000X-0.170000X0*%
%ADD35RoundRect,0.250001X0.899999X-0.499999X0.899999X0.499999X-0.899999X0.499999X-0.899999X-0.499999X0*%
%ADD36RoundRect,0.175000X1.675000X-0.175000X1.675000X0.175000X-1.675000X0.175000X-1.675000X-0.175000X0*%
%ADD37RoundRect,0.155500X-0.397000X0.155500X-0.397000X-0.155500X0.397000X-0.155500X0.397000X0.155500X0*%
%ADD38RoundRect,0.250000X1.150000X-0.250000X1.150000X0.250000X-1.150000X0.250000X-1.150000X-0.250000X0*%
%ADD39RoundRect,0.150000X0.700000X-0.150000X0.700000X0.150000X-0.700000X0.150000X-0.700000X-0.150000X0*%
%ADD40RoundRect,0.147500X0.172500X-0.147500X0.172500X0.147500X-0.172500X0.147500X-0.172500X-0.147500X0*%
%ADD41RoundRect,0.250000X0.650000X-1.000000X0.650000X1.000000X-0.650000X1.000000X-0.650000X-1.000000X0*%
%ADD42RoundRect,0.150000X-0.650000X-0.150000X0.650000X-0.150000X0.650000X0.150000X-0.650000X0.150000X0*%
%ADD43RoundRect,0.135000X0.135000X0.185000X-0.135000X0.185000X-0.135000X-0.185000X0.135000X-0.185000X0*%
%ADD44RoundRect,0.135000X0.185000X-0.135000X0.185000X0.135000X-0.185000X0.135000X-0.185000X-0.135000X0*%
%ADD45C,1.000000*%
%ADD46C,0.700000*%
%ADD47C,1.200000*%
%ADD48R,5.500000X1.430000*%
%ADD49RoundRect,0.375000X-0.375000X0.625000X-0.375000X-0.625000X0.375000X-0.625000X0.375000X0.625000X0*%
%ADD50RoundRect,0.500000X-1.400000X0.500000X-1.400000X-0.500000X1.400000X-0.500000X1.400000X0.500000X0*%
%ADD51RoundRect,0.135000X-0.135000X-0.185000X0.135000X-0.185000X0.135000X0.185000X-0.135000X0.185000X0*%
%ADD52RoundRect,0.200000X0.200000X0.275000X-0.200000X0.275000X-0.200000X-0.275000X0.200000X-0.275000X0*%
%ADD53RoundRect,0.250001X-0.899999X0.499999X-0.899999X-0.499999X0.899999X-0.499999X0.899999X0.499999X0*%
%ADD54RoundRect,0.175000X-1.675000X0.175000X-1.675000X-0.175000X1.675000X-0.175000X1.675000X0.175000X0*%
%ADD55RoundRect,0.250000X-0.250000X-1.150000X0.250000X-1.150000X0.250000X1.150000X-0.250000X1.150000X0*%
%ADD56RoundRect,0.150000X-0.150000X-0.700000X0.150000X-0.700000X0.150000X0.700000X-0.150000X0.700000X0*%
%ADD57RoundRect,0.250000X-0.650000X0.325000X-0.650000X-0.325000X0.650000X-0.325000X0.650000X0.325000X0*%
%ADD58RoundRect,0.075000X-0.662500X-0.075000X0.662500X-0.075000X0.662500X0.075000X-0.662500X0.075000X0*%
%ADD59RoundRect,0.075000X-0.075000X-0.662500X0.075000X-0.662500X0.075000X0.662500X-0.075000X0.662500X0*%
%ADD60R,1.500000X0.700000*%
%ADD61R,0.800000X1.000000*%
%ADD62RoundRect,0.200000X-0.275000X0.200000X-0.275000X-0.200000X0.275000X-0.200000X0.275000X0.200000X0*%
%ADD63RoundRect,0.218750X-0.256250X0.218750X-0.256250X-0.218750X0.256250X-0.218750X0.256250X0.218750X0*%
%ADD64RoundRect,0.150000X0.675000X0.150000X-0.675000X0.150000X-0.675000X-0.150000X0.675000X-0.150000X0*%
%ADD65RoundRect,0.150000X-0.150000X0.512500X-0.150000X-0.512500X0.150000X-0.512500X0.150000X0.512500X0*%
G04 APERTURE END LIST*
D10*
X128962217Y-5873609D02*
X129105074Y-5921228D01*
X129105074Y-5921228D02*
X129152693Y-5968847D01*
X129152693Y-5968847D02*
X129200312Y-6064085D01*
X129200312Y-6064085D02*
X129200312Y-6206942D01*
X129200312Y-6206942D02*
X129152693Y-6302180D01*
X129152693Y-6302180D02*
X129105074Y-6349800D01*
X129105074Y-6349800D02*
X129009836Y-6397419D01*
X129009836Y-6397419D02*
X128628884Y-6397419D01*
X128628884Y-6397419D02*
X128628884Y-5397419D01*
X128628884Y-5397419D02*
X128962217Y-5397419D01*
X128962217Y-5397419D02*
X129057455Y-5445038D01*
X129057455Y-5445038D02*
X129105074Y-5492657D01*
X129105074Y-5492657D02*
X129152693Y-5587895D01*
X129152693Y-5587895D02*
X129152693Y-5683133D01*
X129152693Y-5683133D02*
X129105074Y-5778371D01*
X129105074Y-5778371D02*
X129057455Y-5825990D01*
X129057455Y-5825990D02*
X128962217Y-5873609D01*
X128962217Y-5873609D02*
X128628884Y-5873609D01*
X129819360Y-5397419D02*
X130009836Y-5397419D01*
X130009836Y-5397419D02*
X130105074Y-5445038D01*
X130105074Y-5445038D02*
X130200312Y-5540276D01*
X130200312Y-5540276D02*
X130247931Y-5730752D01*
X130247931Y-5730752D02*
X130247931Y-6064085D01*
X130247931Y-6064085D02*
X130200312Y-6254561D01*
X130200312Y-6254561D02*
X130105074Y-6349800D01*
X130105074Y-6349800D02*
X130009836Y-6397419D01*
X130009836Y-6397419D02*
X129819360Y-6397419D01*
X129819360Y-6397419D02*
X129724122Y-6349800D01*
X129724122Y-6349800D02*
X129628884Y-6254561D01*
X129628884Y-6254561D02*
X129581265Y-6064085D01*
X129581265Y-6064085D02*
X129581265Y-5730752D01*
X129581265Y-5730752D02*
X129628884Y-5540276D01*
X129628884Y-5540276D02*
X129724122Y-5445038D01*
X129724122Y-5445038D02*
X129819360Y-5397419D01*
X130866979Y-5397419D02*
X131057455Y-5397419D01*
X131057455Y-5397419D02*
X131152693Y-5445038D01*
X131152693Y-5445038D02*
X131247931Y-5540276D01*
X131247931Y-5540276D02*
X131295550Y-5730752D01*
X131295550Y-5730752D02*
X131295550Y-6064085D01*
X131295550Y-6064085D02*
X131247931Y-6254561D01*
X131247931Y-6254561D02*
X131152693Y-6349800D01*
X131152693Y-6349800D02*
X131057455Y-6397419D01*
X131057455Y-6397419D02*
X130866979Y-6397419D01*
X130866979Y-6397419D02*
X130771741Y-6349800D01*
X130771741Y-6349800D02*
X130676503Y-6254561D01*
X130676503Y-6254561D02*
X130628884Y-6064085D01*
X130628884Y-6064085D02*
X130628884Y-5730752D01*
X130628884Y-5730752D02*
X130676503Y-5540276D01*
X130676503Y-5540276D02*
X130771741Y-5445038D01*
X130771741Y-5445038D02*
X130866979Y-5397419D01*
X131581265Y-5397419D02*
X132152693Y-5397419D01*
X131866979Y-6397419D02*
X131866979Y-5397419D01*
X76837217Y-6073609D02*
X76980074Y-6121228D01*
X76980074Y-6121228D02*
X77027693Y-6168847D01*
X77027693Y-6168847D02*
X77075312Y-6264085D01*
X77075312Y-6264085D02*
X77075312Y-6406942D01*
X77075312Y-6406942D02*
X77027693Y-6502180D01*
X77027693Y-6502180D02*
X76980074Y-6549800D01*
X76980074Y-6549800D02*
X76884836Y-6597419D01*
X76884836Y-6597419D02*
X76503884Y-6597419D01*
X76503884Y-6597419D02*
X76503884Y-5597419D01*
X76503884Y-5597419D02*
X76837217Y-5597419D01*
X76837217Y-5597419D02*
X76932455Y-5645038D01*
X76932455Y-5645038D02*
X76980074Y-5692657D01*
X76980074Y-5692657D02*
X77027693Y-5787895D01*
X77027693Y-5787895D02*
X77027693Y-5883133D01*
X77027693Y-5883133D02*
X76980074Y-5978371D01*
X76980074Y-5978371D02*
X76932455Y-6025990D01*
X76932455Y-6025990D02*
X76837217Y-6073609D01*
X76837217Y-6073609D02*
X76503884Y-6073609D01*
X77694360Y-5597419D02*
X77884836Y-5597419D01*
X77884836Y-5597419D02*
X77980074Y-5645038D01*
X77980074Y-5645038D02*
X78075312Y-5740276D01*
X78075312Y-5740276D02*
X78122931Y-5930752D01*
X78122931Y-5930752D02*
X78122931Y-6264085D01*
X78122931Y-6264085D02*
X78075312Y-6454561D01*
X78075312Y-6454561D02*
X77980074Y-6549800D01*
X77980074Y-6549800D02*
X77884836Y-6597419D01*
X77884836Y-6597419D02*
X77694360Y-6597419D01*
X77694360Y-6597419D02*
X77599122Y-6549800D01*
X77599122Y-6549800D02*
X77503884Y-6454561D01*
X77503884Y-6454561D02*
X77456265Y-6264085D01*
X77456265Y-6264085D02*
X77456265Y-5930752D01*
X77456265Y-5930752D02*
X77503884Y-5740276D01*
X77503884Y-5740276D02*
X77599122Y-5645038D01*
X77599122Y-5645038D02*
X77694360Y-5597419D01*
X78741979Y-5597419D02*
X78932455Y-5597419D01*
X78932455Y-5597419D02*
X79027693Y-5645038D01*
X79027693Y-5645038D02*
X79122931Y-5740276D01*
X79122931Y-5740276D02*
X79170550Y-5930752D01*
X79170550Y-5930752D02*
X79170550Y-6264085D01*
X79170550Y-6264085D02*
X79122931Y-6454561D01*
X79122931Y-6454561D02*
X79027693Y-6549800D01*
X79027693Y-6549800D02*
X78932455Y-6597419D01*
X78932455Y-6597419D02*
X78741979Y-6597419D01*
X78741979Y-6597419D02*
X78646741Y-6549800D01*
X78646741Y-6549800D02*
X78551503Y-6454561D01*
X78551503Y-6454561D02*
X78503884Y-6264085D01*
X78503884Y-6264085D02*
X78503884Y-5930752D01*
X78503884Y-5930752D02*
X78551503Y-5740276D01*
X78551503Y-5740276D02*
X78646741Y-5645038D01*
X78646741Y-5645038D02*
X78741979Y-5597419D01*
X79456265Y-5597419D02*
X80027693Y-5597419D01*
X79741979Y-6597419D02*
X79741979Y-5597419D01*
D11*
%TO.C,J20*%
X55900000Y950000D02*
X55900000Y-572000D01*
X55900000Y-4920000D02*
X55900000Y-3028000D01*
X55900000Y-4920000D02*
X57044000Y-4920000D01*
X64100000Y950000D02*
X55900000Y950000D01*
X64100000Y950000D02*
X64100000Y-572000D01*
X64100000Y350000D02*
X55900000Y350000D01*
X64100000Y-4920000D02*
X62956000Y-4920000D01*
X64100000Y-4920000D02*
X64100000Y-3028000D01*
D12*
%TO.C,C33*%
X37039420Y-86290000D02*
X37320580Y-86290000D01*
X37039420Y-87310000D02*
X37320580Y-87310000D01*
%TO.C,C10*%
X125877420Y-87310000D02*
X126158580Y-87310000D01*
X125877420Y-86290000D02*
X126158580Y-86290000D01*
%TO.C,C9*%
X125877420Y-83510000D02*
X126158580Y-83510000D01*
X125877420Y-82490000D02*
X126158580Y-82490000D01*
%TO.C,C32*%
X37039420Y-82490000D02*
X37320580Y-82490000D01*
X37039420Y-83510000D02*
X37320580Y-83510000D01*
%TO.C,C26*%
X47640000Y-81607836D02*
X47640000Y-81392164D01*
X48360000Y-81607836D02*
X48360000Y-81392164D01*
%TO.C,C34*%
X173740000Y-65240000D02*
X173740000Y-69190000D01*
X173740000Y-75760000D02*
X173740000Y-71810000D01*
X183195563Y-65240000D02*
X173740000Y-65240000D01*
X183195563Y-75760000D02*
X173740000Y-75760000D01*
X184260000Y-66304437D02*
X183195563Y-65240000D01*
X184260000Y-66304437D02*
X184260000Y-69190000D01*
X184260000Y-74695563D02*
X183195563Y-75760000D01*
X184260000Y-74695563D02*
X184260000Y-71810000D01*
%TO.C,J10*%
X156610000Y-124285000D02*
X156610000Y-127715000D01*
X153740000Y-128985000D02*
X152140000Y-128985000D01*
X153740000Y-123015000D02*
X152140000Y-123015000D01*
X152140000Y-128985000D02*
X152140000Y-127185000D01*
X152140000Y-124815000D02*
X151200000Y-124815000D01*
X152140000Y-123015000D02*
X152140000Y-124815000D01*
%TO.C,C24*%
X44940000Y-86892164D02*
X44940000Y-87107836D01*
X45660000Y-86892164D02*
X45660000Y-87107836D01*
%TO.C,SW3*%
X79450000Y-2370000D02*
X79450000Y-1580000D01*
X78850000Y-570000D02*
X73150000Y-570000D01*
X77600000Y-3420000D02*
X75900000Y-3420000D01*
X77400000Y-570000D02*
X77400000Y720000D01*
X77400000Y720000D02*
X77200000Y930000D01*
X77200000Y930000D02*
X76300000Y930000D01*
X76100000Y720000D02*
X76300000Y930000D01*
X76100000Y720000D02*
X76100000Y-570000D01*
X74600000Y-3420000D02*
X74400000Y-3420000D01*
X72550000Y-1580000D02*
X72550000Y-2370000D01*
%TO.C,C35*%
X173740000Y-77240000D02*
X173740000Y-81190000D01*
X173740000Y-87760000D02*
X173740000Y-83810000D01*
X183195563Y-77240000D02*
X173740000Y-77240000D01*
X183195563Y-87760000D02*
X173740000Y-87760000D01*
X184260000Y-78304437D02*
X183195563Y-77240000D01*
X184260000Y-78304437D02*
X184260000Y-81190000D01*
X184260000Y-86695563D02*
X183195563Y-87760000D01*
X184260000Y-86695563D02*
X184260000Y-83810000D01*
%TO.C,C13*%
X59740000Y-134007836D02*
X59740000Y-133792164D01*
X60460000Y-134007836D02*
X60460000Y-133792164D01*
%TO.C,Y2*%
X39400000Y-82200000D02*
X39400000Y-87950000D01*
X39400000Y-87950000D02*
X43000000Y-87950000D01*
X43000000Y-87950000D02*
X43000000Y-82200000D01*
%TO.C,C18*%
X161940000Y-143207836D02*
X161940000Y-142992164D01*
X162660000Y-143207836D02*
X162660000Y-142992164D01*
%TO.C,C28*%
X59940000Y-81692164D02*
X59940000Y-81907836D01*
X60660000Y-81692164D02*
X60660000Y-81907836D01*
%TO.C,R29*%
X64820000Y-76346359D02*
X64820000Y-76653641D01*
X65580000Y-76346359D02*
X65580000Y-76653641D01*
%TO.C,R24*%
X118762742Y-121877500D02*
X119237258Y-121877500D01*
X118762742Y-122922500D02*
X119237258Y-122922500D01*
%TO.C,C2*%
X137240580Y-78390000D02*
X136959420Y-78390000D01*
X137240580Y-79410000D02*
X136959420Y-79410000D01*
%TO.C,C23*%
X115140000Y-146587836D02*
X115140000Y-146372164D01*
X115860000Y-146587836D02*
X115860000Y-146372164D01*
%TO.C,Y1*%
X128238000Y-82200000D02*
X128238000Y-87950000D01*
X128238000Y-87950000D02*
X131838000Y-87950000D01*
X131838000Y-87950000D02*
X131838000Y-82200000D01*
%TO.C,C6*%
X140209164Y-78640000D02*
X140424836Y-78640000D01*
X140209164Y-79360000D02*
X140424836Y-79360000D01*
%TO.C,C21*%
X161940000Y-135227836D02*
X161940000Y-135012164D01*
X162660000Y-135227836D02*
X162660000Y-135012164D01*
%TO.C,C4*%
X146407836Y-90640000D02*
X146192164Y-90640000D01*
X146407836Y-91360000D02*
X146192164Y-91360000D01*
%TO.C,J13*%
X102660000Y-133610000D02*
X102660000Y-131860000D01*
X102660000Y-131860000D02*
X104550000Y-131860000D01*
X102660000Y-118390000D02*
X102660000Y-120140000D01*
X102010000Y-133610000D02*
X102660000Y-133610000D01*
X102010000Y-118390000D02*
X102660000Y-118390000D01*
X99190000Y-133610000D02*
X98740000Y-133610000D01*
X98740000Y-133610000D02*
X98740000Y-118390000D01*
X98740000Y-118390000D02*
X99190000Y-118390000D01*
%TO.C,R18*%
X163920000Y-142946359D02*
X163920000Y-143253641D01*
X164680000Y-142946359D02*
X164680000Y-143253641D01*
%TO.C,U9*%
D11*
X41500000Y-36412000D02*
X40500000Y-36412000D01*
X40500000Y-33613000D01*
X41500000Y-33613000D01*
X41500000Y-36412000D01*
D13*
X39879500Y-33220000D02*
G75*
G02*
X39580500Y-33220000I-149500J0D01*
G01*
X39580500Y-33220000D02*
G75*
G02*
X39879500Y-33220000I149500J0D01*
G01*
D12*
%TO.C,J6*%
X51860000Y-152985000D02*
X51860000Y-151185000D01*
X51860000Y-151185000D02*
X52800000Y-151185000D01*
X51860000Y-147015000D02*
X51860000Y-148815000D01*
X50260000Y-152985000D02*
X51860000Y-152985000D01*
X50260000Y-147015000D02*
X51860000Y-147015000D01*
X47390000Y-151715000D02*
X47390000Y-148285000D01*
%TO.C,D4*%
X168350000Y-23510000D02*
X168350000Y-18000000D01*
X168350000Y-23510000D02*
X171650000Y-23510000D01*
X171650000Y-23510000D02*
X171650000Y-18000000D01*
%TO.C,U2*%
X122852500Y-121617500D02*
X122852500Y-121900000D01*
X122852500Y-127112500D02*
X122852500Y-126830000D01*
X125600000Y-121617500D02*
X122852500Y-121617500D01*
X125600000Y-121617500D02*
X128347500Y-121617500D01*
X125600000Y-127112500D02*
X122852500Y-127112500D01*
X125600000Y-127112500D02*
X128347500Y-127112500D01*
X128347500Y-121617500D02*
X128347500Y-121900000D01*
X128347500Y-127112500D02*
X128347500Y-126830000D01*
X122081250Y-121900000D02*
X121841250Y-121570000D01*
X122321250Y-121570000D01*
X122081250Y-121900000D01*
G36*
X122081250Y-121900000D02*
G01*
X121841250Y-121570000D01*
X122321250Y-121570000D01*
X122081250Y-121900000D01*
G37*
%TO.C,R11*%
X102353641Y-104295000D02*
X102046359Y-104295000D01*
X102353641Y-105055000D02*
X102046359Y-105055000D01*
%TO.C,R26*%
X156120000Y-83853641D02*
X156120000Y-83546359D01*
X156880000Y-83853641D02*
X156880000Y-83546359D01*
%TO.C,R4*%
X61020000Y-93253641D02*
X61020000Y-92946359D01*
X61780000Y-93253641D02*
X61780000Y-92946359D01*
%TO.C,U7*%
D14*
X159500000Y-25500000D02*
X192500000Y-25500000D01*
X192500000Y-58500000D01*
X159500000Y-58500000D01*
X159500000Y-25500000D01*
D12*
%TO.C,J4*%
X51860000Y-136985000D02*
X51860000Y-135185000D01*
X51860000Y-135185000D02*
X52800000Y-135185000D01*
X51860000Y-131015000D02*
X51860000Y-132815000D01*
X50260000Y-136985000D02*
X51860000Y-136985000D01*
X50260000Y-131015000D02*
X51860000Y-131015000D01*
X47390000Y-135715000D02*
X47390000Y-132285000D01*
%TO.C,L3*%
X39560000Y-22960000D02*
X40190000Y-22960000D01*
X39560000Y-30040000D02*
X39560000Y-22960000D01*
X39560000Y-30040000D02*
X40190000Y-30040000D01*
X46840000Y-22960000D02*
X46210000Y-22960000D01*
X46840000Y-30040000D02*
X46210000Y-30040000D01*
X46840000Y-30040000D02*
X46840000Y-22960000D01*
%TO.C,U8*%
X186590000Y-71650000D02*
X186590000Y-75410000D01*
X186590000Y-75410000D02*
X187850000Y-75410000D01*
X193410000Y-71650000D02*
X193410000Y-75410000D01*
X193410000Y-75410000D02*
X192150000Y-75410000D01*
X193640000Y-70610000D02*
X193310000Y-70370000D01*
X193640000Y-70130000D01*
X193640000Y-70610000D01*
G36*
X193640000Y-70610000D02*
G01*
X193310000Y-70370000D01*
X193640000Y-70130000D01*
X193640000Y-70610000D01*
G37*
%TO.C,R13*%
X61820000Y-133746359D02*
X61820000Y-134053641D01*
X62580000Y-133746359D02*
X62580000Y-134053641D01*
%TO.C,R30*%
X63146359Y-77920000D02*
X63453641Y-77920000D01*
X63146359Y-78680000D02*
X63453641Y-78680000D01*
%TO.C,R6*%
X152720000Y-78546359D02*
X152720000Y-78853641D01*
X153480000Y-78546359D02*
X153480000Y-78853641D01*
%TO.C,R23*%
X109637258Y-127177500D02*
X109162742Y-127177500D01*
X109637258Y-128222500D02*
X109162742Y-128222500D01*
%TO.C,J15*%
X81760000Y-66860000D02*
X81310000Y-66860000D01*
X81760000Y-59140000D02*
X81760000Y-66860000D01*
X81310000Y-59140000D02*
X81760000Y-59140000D01*
X78490000Y-66860000D02*
X77840000Y-66860000D01*
X78490000Y-59140000D02*
X77840000Y-59140000D01*
X77840000Y-66860000D02*
X77840000Y-65110000D01*
X77840000Y-60890000D02*
X75950000Y-60890000D01*
X77840000Y-59140000D02*
X77840000Y-60890000D01*
%TO.C,J19*%
X128610000Y-56860000D02*
X126810000Y-56860000D01*
X128610000Y-55260000D02*
X128610000Y-56860000D01*
X123190000Y-56860000D02*
X123190000Y-57800000D01*
X122660000Y-52390000D02*
X127340000Y-52390000D01*
X121390000Y-56860000D02*
X123190000Y-56860000D01*
X121390000Y-55260000D02*
X121390000Y-56860000D01*
%TO.C,J18*%
X143610000Y-56860000D02*
X141810000Y-56860000D01*
X143610000Y-55260000D02*
X143610000Y-56860000D01*
X138190000Y-56860000D02*
X138190000Y-57800000D01*
X137660000Y-52390000D02*
X142340000Y-52390000D01*
X136390000Y-56860000D02*
X138190000Y-56860000D01*
X136390000Y-55260000D02*
X136390000Y-56860000D01*
%TO.C,R25*%
X119217258Y-124492500D02*
X118742742Y-124492500D01*
X119217258Y-125537500D02*
X118742742Y-125537500D01*
%TO.C,R8*%
X141820000Y-74356359D02*
X141820000Y-74663641D01*
X142580000Y-74356359D02*
X142580000Y-74663641D01*
%TO.C,R31*%
X53045000Y-77806359D02*
X53045000Y-78113641D01*
X53805000Y-77806359D02*
X53805000Y-78113641D01*
%TO.C,C37*%
X38090000Y-38788748D02*
X38090000Y-40211252D01*
X39910000Y-38788748D02*
X39910000Y-40211252D01*
%TO.C,C12*%
X59740000Y-118007836D02*
X59740000Y-117792164D01*
X60460000Y-118007836D02*
X60460000Y-117792164D01*
%TO.C,R2*%
X144646359Y-74220000D02*
X144953641Y-74220000D01*
X144646359Y-74980000D02*
X144953641Y-74980000D01*
%TO.C,D3*%
X172350000Y-23510000D02*
X172350000Y-18000000D01*
X172350000Y-23510000D02*
X175650000Y-23510000D01*
X175650000Y-23510000D02*
X175650000Y-18000000D01*
%TO.C,R20*%
X164020000Y-150946359D02*
X164020000Y-151253641D01*
X164780000Y-150946359D02*
X164780000Y-151253641D01*
%TO.C,C36*%
X42090000Y-38788748D02*
X42090000Y-40211252D01*
X43910000Y-38788748D02*
X43910000Y-40211252D01*
%TO.C,R27*%
X62920000Y-84853641D02*
X62920000Y-84546359D01*
X63680000Y-84853641D02*
X63680000Y-84546359D01*
%TO.C,C27*%
X57507836Y-90740000D02*
X57292164Y-90740000D01*
X57507836Y-91460000D02*
X57292164Y-91460000D01*
%TO.C,U1*%
X139390000Y-81390000D02*
X139390000Y-81840000D01*
X139390000Y-88610000D02*
X139390000Y-88160000D01*
X139840000Y-81390000D02*
X139390000Y-81390000D01*
X139840000Y-88610000D02*
X139390000Y-88610000D01*
X146160000Y-81390000D02*
X146610000Y-81390000D01*
X146160000Y-88610000D02*
X146610000Y-88610000D01*
X146610000Y-81390000D02*
X146610000Y-81840000D01*
X146610000Y-88610000D02*
X146610000Y-88160000D01*
X138800000Y-81840000D02*
X138460000Y-81370000D01*
X139140000Y-81370000D01*
X138800000Y-81840000D01*
G36*
X138800000Y-81840000D02*
G01*
X138460000Y-81370000D01*
X139140000Y-81370000D01*
X138800000Y-81840000D01*
G37*
%TO.C,J17*%
X28610000Y-56860000D02*
X26810000Y-56860000D01*
X28610000Y-55260000D02*
X28610000Y-56860000D01*
X23190000Y-56860000D02*
X23190000Y-57800000D01*
X22660000Y-52390000D02*
X27340000Y-52390000D01*
X21390000Y-56860000D02*
X23190000Y-56860000D01*
X21390000Y-55260000D02*
X21390000Y-56860000D01*
%TO.C,R1*%
X148353641Y-76620000D02*
X148046359Y-76620000D01*
X148353641Y-77380000D02*
X148046359Y-77380000D01*
%TO.C,SW2*%
X3420000Y-80400000D02*
X3420000Y-80600000D01*
X3420000Y-77400000D02*
X3420000Y-79100000D01*
X2370000Y-75550000D02*
X1580000Y-75550000D01*
X1580000Y-82450000D02*
X2370000Y-82450000D01*
X570000Y-77600000D02*
X-720000Y-77600000D01*
X570000Y-76150000D02*
X570000Y-81850000D01*
X-720000Y-78900000D02*
X570000Y-78900000D01*
X-720000Y-78900000D02*
X-930000Y-78700000D01*
X-720000Y-77600000D02*
X-930000Y-77800000D01*
X-930000Y-77800000D02*
X-930000Y-78700000D01*
%TO.C,SW1*%
X131450000Y-2370000D02*
X131450000Y-1580000D01*
X130850000Y-570000D02*
X125150000Y-570000D01*
X129600000Y-3420000D02*
X127900000Y-3420000D01*
X129400000Y-570000D02*
X129400000Y720000D01*
X129400000Y720000D02*
X129200000Y930000D01*
X129200000Y930000D02*
X128300000Y930000D01*
X128100000Y720000D02*
X128300000Y930000D01*
X128100000Y720000D02*
X128100000Y-570000D01*
X126600000Y-3420000D02*
X126400000Y-3420000D01*
X124550000Y-1580000D02*
X124550000Y-2370000D01*
%TO.C,C5*%
X148740000Y-81392164D02*
X148740000Y-81607836D01*
X149460000Y-81392164D02*
X149460000Y-81607836D01*
%TO.C,R33*%
X42377500Y-78262742D02*
X42377500Y-78737258D01*
X43422500Y-78262742D02*
X43422500Y-78737258D01*
%TO.C,J1*%
X103860000Y-146235000D02*
X103860000Y-144435000D01*
X103860000Y-144435000D02*
X104800000Y-144435000D01*
X103860000Y-137765000D02*
X103860000Y-139565000D01*
X102260000Y-146235000D02*
X103860000Y-146235000D01*
X102260000Y-137765000D02*
X103860000Y-137765000D01*
X99390000Y-144965000D02*
X99390000Y-139035000D01*
%TO.C,J8*%
X156610000Y-116285000D02*
X156610000Y-119715000D01*
X153740000Y-120985000D02*
X152140000Y-120985000D01*
X153740000Y-115015000D02*
X152140000Y-115015000D01*
X152140000Y-120985000D02*
X152140000Y-119185000D01*
X152140000Y-116815000D02*
X151200000Y-116815000D01*
X152140000Y-115015000D02*
X152140000Y-116815000D01*
%TO.C,J16*%
X43610000Y-56860000D02*
X41810000Y-56860000D01*
X43610000Y-55260000D02*
X43610000Y-56860000D01*
X38190000Y-56860000D02*
X38190000Y-57800000D01*
X37660000Y-52390000D02*
X42340000Y-52390000D01*
X36390000Y-56860000D02*
X38190000Y-56860000D01*
X36390000Y-55260000D02*
X36390000Y-56860000D01*
%TO.C,J3*%
X51860000Y-120985000D02*
X51860000Y-119185000D01*
X51860000Y-119185000D02*
X52800000Y-119185000D01*
X51860000Y-115015000D02*
X51860000Y-116815000D01*
X50260000Y-120985000D02*
X51860000Y-120985000D01*
X50260000Y-115015000D02*
X51860000Y-115015000D01*
X47390000Y-119715000D02*
X47390000Y-116285000D01*
%TO.C,R28*%
X65920000Y-76346359D02*
X65920000Y-76653641D01*
X66680000Y-76346359D02*
X66680000Y-76653641D01*
%TO.C,U5*%
X50552500Y-81390000D02*
X50552500Y-81840000D01*
X50552500Y-88610000D02*
X50552500Y-88160000D01*
X51002500Y-81390000D02*
X50552500Y-81390000D01*
X51002500Y-88610000D02*
X50552500Y-88610000D01*
X57322500Y-81390000D02*
X57772500Y-81390000D01*
X57322500Y-88610000D02*
X57772500Y-88610000D01*
X57772500Y-81390000D02*
X57772500Y-81840000D01*
X57772500Y-88610000D02*
X57772500Y-88160000D01*
X49962500Y-81840000D02*
X49622500Y-81370000D01*
X50302500Y-81370000D01*
X49962500Y-81840000D01*
G36*
X49962500Y-81840000D02*
G01*
X49622500Y-81370000D01*
X50302500Y-81370000D01*
X49962500Y-81840000D01*
G37*
%TO.C,J2*%
X104985000Y-101860000D02*
X103185000Y-101860000D01*
X104985000Y-100260000D02*
X104985000Y-101860000D01*
X100815000Y-101860000D02*
X100815000Y-102800000D01*
X100285000Y-97390000D02*
X103715000Y-97390000D01*
X99015000Y-101860000D02*
X100815000Y-101860000D01*
X99015000Y-100260000D02*
X99015000Y-101860000D01*
%TO.C,D1*%
X132903000Y-77015000D02*
X132903000Y-79300000D01*
X134373000Y-77015000D02*
X132903000Y-77015000D01*
X134373000Y-79300000D02*
X134373000Y-77015000D01*
%TO.C,R22*%
X131215500Y-78262742D02*
X131215500Y-78737258D01*
X132260500Y-78262742D02*
X132260500Y-78737258D01*
%TO.C,R21*%
X163920000Y-134966359D02*
X163920000Y-135273641D01*
X164680000Y-134966359D02*
X164680000Y-135273641D01*
%TO.C,C30*%
X46340000Y-87107836D02*
X46340000Y-86892164D01*
X47060000Y-87107836D02*
X47060000Y-86892164D01*
%TO.C,D2*%
X44065000Y-77015000D02*
X44065000Y-79300000D01*
X45535000Y-77015000D02*
X44065000Y-77015000D01*
X45535000Y-79300000D02*
X45535000Y-77015000D01*
%TO.C,C25*%
X48740580Y-78390000D02*
X48459420Y-78390000D01*
X48740580Y-79410000D02*
X48459420Y-79410000D01*
%TO.C,R15*%
X61820000Y-149746359D02*
X61820000Y-150053641D01*
X62580000Y-149746359D02*
X62580000Y-150053641D01*
%TO.C,R5*%
X153920000Y-78546359D02*
X153920000Y-78853641D01*
X154680000Y-78546359D02*
X154680000Y-78853641D01*
%TO.C,R3*%
X140820000Y-91953641D02*
X140820000Y-91646359D01*
X141580000Y-91953641D02*
X141580000Y-91646359D01*
%TO.C,C7*%
X135178000Y-87107836D02*
X135178000Y-86892164D01*
X135898000Y-87107836D02*
X135898000Y-86892164D01*
%TO.C,R32*%
X45153641Y-84720000D02*
X44846359Y-84720000D01*
X45153641Y-85480000D02*
X44846359Y-85480000D01*
%TO.C,C11*%
X102092164Y-105815000D02*
X102307836Y-105815000D01*
X102092164Y-106535000D02*
X102307836Y-106535000D01*
%TO.C,C14*%
X59740000Y-142007836D02*
X59740000Y-141792164D01*
X60460000Y-142007836D02*
X60460000Y-141792164D01*
%TO.C,C3*%
X136478000Y-81607836D02*
X136478000Y-81392164D01*
X137198000Y-81607836D02*
X137198000Y-81392164D01*
%TO.C,C17*%
X161840000Y-119207836D02*
X161840000Y-118992164D01*
X162560000Y-119207836D02*
X162560000Y-118992164D01*
%TO.C,SW4*%
X204930000Y-80200000D02*
X204930000Y-79300000D01*
X204720000Y-80400000D02*
X204930000Y-80200000D01*
X204720000Y-79100000D02*
X204930000Y-79300000D01*
X204720000Y-79100000D02*
X203430000Y-79100000D01*
X203430000Y-81850000D02*
X203430000Y-76150000D01*
X203430000Y-80400000D02*
X204720000Y-80400000D01*
X202420000Y-75550000D02*
X201630000Y-75550000D01*
X201630000Y-82450000D02*
X202420000Y-82450000D01*
X200580000Y-80600000D02*
X200580000Y-78900000D01*
X200580000Y-77600000D02*
X200580000Y-77400000D01*
%TO.C,J7*%
X51860000Y-128985000D02*
X51860000Y-127185000D01*
X51860000Y-127185000D02*
X52800000Y-127185000D01*
X51860000Y-123015000D02*
X51860000Y-124815000D01*
X50260000Y-128985000D02*
X51860000Y-128985000D01*
X50260000Y-123015000D02*
X51860000Y-123015000D01*
X47390000Y-127715000D02*
X47390000Y-124285000D01*
%TO.C,R14*%
X61820000Y-141746359D02*
X61820000Y-142053641D01*
X62580000Y-141746359D02*
X62580000Y-142053641D01*
%TO.C,R19*%
X163920000Y-127046359D02*
X163920000Y-127353641D01*
X164680000Y-127046359D02*
X164680000Y-127353641D01*
%TO.C,C22*%
X128840000Y-120192164D02*
X128840000Y-120407836D01*
X129560000Y-120192164D02*
X129560000Y-120407836D01*
%TO.C,C15*%
X59740000Y-150007836D02*
X59740000Y-149792164D01*
X60460000Y-150007836D02*
X60460000Y-149792164D01*
%TO.C,R9*%
X133991641Y-84720000D02*
X133684359Y-84720000D01*
X133991641Y-85480000D02*
X133684359Y-85480000D01*
%TO.C,J12*%
X156610000Y-132285000D02*
X156610000Y-135715000D01*
X153740000Y-136985000D02*
X152140000Y-136985000D01*
X153740000Y-131015000D02*
X152140000Y-131015000D01*
X152140000Y-136985000D02*
X152140000Y-135185000D01*
X152140000Y-132815000D02*
X151200000Y-132815000D01*
X152140000Y-131015000D02*
X152140000Y-132815000D01*
%TO.C,C20*%
X161940000Y-151207836D02*
X161940000Y-150992164D01*
X162660000Y-151207836D02*
X162660000Y-150992164D01*
%TO.C,J11*%
X156610000Y-148285000D02*
X156610000Y-151715000D01*
X153740000Y-152985000D02*
X152140000Y-152985000D01*
X153740000Y-147015000D02*
X152140000Y-147015000D01*
X152140000Y-152985000D02*
X152140000Y-151185000D01*
X152140000Y-148815000D02*
X151200000Y-148815000D01*
X152140000Y-147015000D02*
X152140000Y-148815000D01*
%TO.C,C29*%
X51372164Y-78640000D02*
X51587836Y-78640000D01*
X51372164Y-79360000D02*
X51587836Y-79360000D01*
%TO.C,R12*%
X61820000Y-117746359D02*
X61820000Y-118053641D01*
X62580000Y-117746359D02*
X62580000Y-118053641D01*
%TO.C,R17*%
X163820000Y-118946359D02*
X163820000Y-119253641D01*
X164580000Y-118946359D02*
X164580000Y-119253641D01*
%TO.C,C8*%
X136528000Y-87107836D02*
X136528000Y-86892164D01*
X137248000Y-87107836D02*
X137248000Y-86892164D01*
%TO.C,J9*%
X156610000Y-140285000D02*
X156610000Y-143715000D01*
X153740000Y-144985000D02*
X152140000Y-144985000D01*
X153740000Y-139015000D02*
X152140000Y-139015000D01*
X152140000Y-144985000D02*
X152140000Y-143185000D01*
X152140000Y-140815000D02*
X151200000Y-140815000D01*
X152140000Y-139015000D02*
X152140000Y-140815000D01*
%TO.C,J5*%
X51860000Y-144985000D02*
X51860000Y-143185000D01*
X51860000Y-143185000D02*
X52800000Y-143185000D01*
X51860000Y-139015000D02*
X51860000Y-140815000D01*
X50260000Y-144985000D02*
X51860000Y-144985000D01*
X50260000Y-139015000D02*
X51860000Y-139015000D01*
X47390000Y-143715000D02*
X47390000Y-140285000D01*
%TO.C,C31*%
X47690000Y-87107836D02*
X47690000Y-86892164D01*
X48410000Y-87107836D02*
X48410000Y-86892164D01*
%TO.C,R7*%
X151446359Y-79920000D02*
X151753641Y-79920000D01*
X151446359Y-80680000D02*
X151753641Y-80680000D01*
%TO.C,U3*%
X120000000Y-141440000D02*
X118050000Y-141440000D01*
X120000000Y-141440000D02*
X121950000Y-141440000D01*
X120000000Y-146560000D02*
X118050000Y-146560000D01*
X120000000Y-146560000D02*
X121950000Y-146560000D01*
X122940000Y-146795000D02*
X122460000Y-146795000D01*
X122700000Y-146465000D01*
X122940000Y-146795000D01*
G36*
X122940000Y-146795000D02*
G01*
X122460000Y-146795000D01*
X122700000Y-146465000D01*
X122940000Y-146795000D01*
G37*
%TO.C,R10*%
X126446359Y-78420000D02*
X126753641Y-78420000D01*
X126446359Y-79180000D02*
X126753641Y-79180000D01*
%TO.C,C16*%
X59740000Y-125907836D02*
X59740000Y-125692164D01*
X60460000Y-125907836D02*
X60460000Y-125692164D01*
%TO.C,C1*%
X133740000Y-86892164D02*
X133740000Y-87107836D01*
X134460000Y-86892164D02*
X134460000Y-87107836D01*
%TO.C,R16*%
X61820000Y-125656359D02*
X61820000Y-125963641D01*
X62580000Y-125656359D02*
X62580000Y-125963641D01*
%TO.C,C19*%
X161940000Y-127307836D02*
X161940000Y-127092164D01*
X162660000Y-127307836D02*
X162660000Y-127092164D01*
D11*
%TO.C,J14*%
X148100000Y-4920000D02*
X148100000Y-3028000D01*
X148100000Y-4920000D02*
X146956000Y-4920000D01*
X148100000Y350000D02*
X139900000Y350000D01*
X148100000Y950000D02*
X148100000Y-572000D01*
X148100000Y950000D02*
X139900000Y950000D01*
X139900000Y-4920000D02*
X141044000Y-4920000D01*
X139900000Y-4920000D02*
X139900000Y-3028000D01*
X139900000Y950000D02*
X139900000Y-572000D01*
D12*
%TO.C,U6*%
X58440000Y-9000000D02*
X58440000Y-8200000D01*
X58440000Y-9000000D02*
X58440000Y-9800000D01*
X61560000Y-9000000D02*
X61560000Y-8200000D01*
X61560000Y-9000000D02*
X61560000Y-9800000D01*
X61840000Y-7940000D02*
X61510000Y-7700000D01*
X61840000Y-7460000D01*
X61840000Y-7940000D01*
G36*
X61840000Y-7940000D02*
G01*
X61510000Y-7700000D01*
X61840000Y-7460000D01*
X61840000Y-7940000D01*
G37*
%TO.C,U4*%
X142440000Y-9000000D02*
X142440000Y-8200000D01*
X142440000Y-9000000D02*
X142440000Y-9800000D01*
X145560000Y-9000000D02*
X145560000Y-8200000D01*
X145560000Y-9000000D02*
X145560000Y-9800000D01*
X145840000Y-7940000D02*
X145510000Y-7700000D01*
X145840000Y-7460000D01*
X145840000Y-7940000D01*
G36*
X145840000Y-7940000D02*
G01*
X145510000Y-7700000D01*
X145840000Y-7460000D01*
X145840000Y-7940000D01*
G37*
%TD*%
%LPC*%
D15*
%TO.C,J20*%
X55825000Y-1800000D03*
D16*
X56825000Y-1800000D03*
D17*
X57775000Y-4800000D03*
D18*
X58850000Y-1808000D03*
X61150000Y-1808000D03*
D17*
X62225000Y-4800000D03*
D16*
X63175000Y-1800000D03*
D15*
X64175000Y-1800000D03*
D19*
X58700000Y-4475000D03*
X59350000Y-4475000D03*
X60000000Y-4475000D03*
X60650000Y-4475000D03*
X61300000Y-4475000D03*
%TD*%
D20*
%TO.C,C33*%
X36405000Y-86800000D03*
X37955000Y-86800000D03*
%TD*%
%TO.C,C10*%
X126793000Y-86800000D03*
X125243000Y-86800000D03*
%TD*%
%TO.C,C9*%
X126793000Y-83000000D03*
X125243000Y-83000000D03*
%TD*%
%TO.C,C32*%
X36405000Y-83000000D03*
X37955000Y-83000000D03*
%TD*%
D21*
%TO.C,C26*%
X48000000Y-81980000D03*
X48000000Y-81020000D03*
%TD*%
D22*
%TO.C,C34*%
X183400000Y-70500000D03*
X174600000Y-70500000D03*
%TD*%
D23*
%TO.C,J10*%
X155400000Y-128475000D03*
X155400000Y-123525000D03*
D24*
X152050000Y-126625000D03*
X152050000Y-125375000D03*
%TD*%
D25*
%TO.C,C24*%
X45300000Y-86520000D03*
X45300000Y-87480000D03*
%TD*%
D26*
%TO.C,SW3*%
X73750000Y-3730000D03*
X75250000Y-3730000D03*
X78250000Y-3730000D03*
D27*
X72350000Y-870000D03*
X72350000Y-3080000D03*
D28*
X74500000Y-1970000D03*
X77500000Y-1970000D03*
D27*
X79650000Y-870000D03*
X79650000Y-3080000D03*
%TD*%
D22*
%TO.C,C35*%
X183400000Y-82500000D03*
X174600000Y-82500000D03*
%TD*%
D21*
%TO.C,C13*%
X60100000Y-134380000D03*
X60100000Y-133420000D03*
%TD*%
D29*
%TO.C,Y2*%
X41200000Y-86750000D03*
X41200000Y-83050000D03*
%TD*%
D21*
%TO.C,C18*%
X162300000Y-143580000D03*
X162300000Y-142620000D03*
%TD*%
D25*
%TO.C,C28*%
X60300000Y-81320000D03*
X60300000Y-82280000D03*
%TD*%
D30*
%TO.C,R29*%
X65200000Y-75990000D03*
X65200000Y-77010000D03*
%TD*%
D31*
%TO.C,R24*%
X118175000Y-122400000D03*
X119825000Y-122400000D03*
%TD*%
D32*
%TO.C,C2*%
X137875000Y-78900000D03*
X136325000Y-78900000D03*
%TD*%
D21*
%TO.C,C23*%
X115500000Y-146960000D03*
X115500000Y-146000000D03*
%TD*%
D29*
%TO.C,Y1*%
X130038000Y-86750000D03*
X130038000Y-83050000D03*
%TD*%
D33*
%TO.C,C6*%
X139837000Y-79000000D03*
X140797000Y-79000000D03*
%TD*%
D21*
%TO.C,C21*%
X162300000Y-135600000D03*
X162300000Y-134640000D03*
%TD*%
D34*
%TO.C,C4*%
X146780000Y-91000000D03*
X145820000Y-91000000D03*
%TD*%
D35*
%TO.C,J13*%
X100600000Y-118700000D03*
X100600000Y-133300000D03*
D36*
X102700000Y-120750000D03*
X102700000Y-122250000D03*
X102700000Y-123750000D03*
X102700000Y-125250000D03*
X102700000Y-126750000D03*
X102700000Y-128250000D03*
X102700000Y-129750000D03*
X102700000Y-131250000D03*
%TD*%
D30*
%TO.C,R18*%
X164300000Y-142590000D03*
X164300000Y-143610000D03*
%TD*%
D37*
%TO.C,U9*%
X39700000Y-34050000D03*
X39700000Y-35000000D03*
X39700000Y-35950000D03*
X42300000Y-35900000D03*
X42300000Y-34050000D03*
%TD*%
D38*
%TO.C,J6*%
X48600000Y-147525000D03*
X48600000Y-152475000D03*
D39*
X51950000Y-149375000D03*
X51950000Y-150625000D03*
%TD*%
D40*
%TO.C,L1*%
X135548000Y-89985000D03*
X135548000Y-89015000D03*
%TD*%
D41*
%TO.C,D4*%
X170000000Y-22000000D03*
X170000000Y-18000000D03*
%TD*%
D42*
%TO.C,U2*%
X122000000Y-122460000D03*
X122000000Y-123730000D03*
X122000000Y-125000000D03*
X122000000Y-126270000D03*
X129200000Y-126270000D03*
X129200000Y-125000000D03*
X129200000Y-123730000D03*
X129200000Y-122460000D03*
%TD*%
D43*
%TO.C,R11*%
X102710000Y-104675000D03*
X101690000Y-104675000D03*
%TD*%
D44*
%TO.C,R26*%
X156500000Y-84210000D03*
X156500000Y-83190000D03*
%TD*%
%TO.C,R4*%
X61400000Y-93610000D03*
X61400000Y-92590000D03*
%TD*%
D45*
%TO.C,U7*%
X160760000Y-36920000D03*
X160760000Y-39460000D03*
D46*
X184620000Y-52477000D03*
D45*
X184890000Y-57240000D03*
D47*
X185370000Y-54890000D03*
X181870000Y-54890000D03*
D45*
X182350000Y-57240000D03*
D46*
X182620000Y-52500000D03*
D45*
X174730000Y-57240000D03*
X172190000Y-57240000D03*
X169650000Y-57240000D03*
X167110000Y-57240000D03*
X169650000Y-26760000D03*
X169650000Y-31840000D03*
D47*
X170257000Y-29109000D03*
X166757000Y-29109000D03*
D45*
X167110000Y-26760000D03*
X167110000Y-31840000D03*
X186160000Y-35650000D03*
%TD*%
D38*
%TO.C,J4*%
X48600000Y-131525000D03*
X48600000Y-136475000D03*
D39*
X51950000Y-133375000D03*
X51950000Y-134625000D03*
%TD*%
D48*
%TO.C,L3*%
X43200000Y-28520000D03*
X43200000Y-24480000D03*
%TD*%
D49*
%TO.C,U8*%
X192300000Y-70350000D03*
X190000000Y-70350000D03*
D50*
X190000000Y-76650000D03*
D49*
X187700000Y-70350000D03*
%TD*%
D30*
%TO.C,R13*%
X62200000Y-133390000D03*
X62200000Y-134410000D03*
%TD*%
D51*
%TO.C,R30*%
X62790000Y-78300000D03*
X63810000Y-78300000D03*
%TD*%
D30*
%TO.C,R6*%
X153100000Y-78190000D03*
X153100000Y-79210000D03*
%TD*%
D52*
%TO.C,R23*%
X110225000Y-127700000D03*
X108575000Y-127700000D03*
%TD*%
D53*
%TO.C,J15*%
X79900000Y-66550000D03*
X79900000Y-59450000D03*
D54*
X77800000Y-64500000D03*
X77800000Y-63000000D03*
X77800000Y-61500000D03*
%TD*%
D55*
%TO.C,J19*%
X128100000Y-53600000D03*
X121900000Y-53600000D03*
D56*
X126250000Y-56950000D03*
X125000000Y-56950000D03*
X123750000Y-56950000D03*
%TD*%
D55*
%TO.C,J18*%
X143100000Y-53600000D03*
X136900000Y-53600000D03*
D56*
X141250000Y-56950000D03*
X140000000Y-56950000D03*
X138750000Y-56950000D03*
%TD*%
D52*
%TO.C,R25*%
X119805000Y-125015000D03*
X118155000Y-125015000D03*
%TD*%
D30*
%TO.C,R8*%
X142200000Y-74000000D03*
X142200000Y-75020000D03*
%TD*%
%TO.C,R31*%
X53425000Y-77450000D03*
X53425000Y-78470000D03*
%TD*%
D57*
%TO.C,C37*%
X39000000Y-38025000D03*
X39000000Y-40975000D03*
%TD*%
D21*
%TO.C,C12*%
X60100000Y-118380000D03*
X60100000Y-117420000D03*
%TD*%
D51*
%TO.C,R2*%
X144290000Y-74600000D03*
X145310000Y-74600000D03*
%TD*%
D41*
%TO.C,D3*%
X174000000Y-22000000D03*
X174000000Y-18000000D03*
%TD*%
D30*
%TO.C,R20*%
X164400000Y-150590000D03*
X164400000Y-151610000D03*
%TD*%
D57*
%TO.C,C36*%
X43000000Y-38025000D03*
X43000000Y-40975000D03*
%TD*%
D44*
%TO.C,R27*%
X63300000Y-85210000D03*
X63300000Y-84190000D03*
%TD*%
D34*
%TO.C,C27*%
X57880000Y-91100000D03*
X56920000Y-91100000D03*
%TD*%
D58*
%TO.C,U1*%
X138837500Y-82250000D03*
X138837500Y-82750000D03*
X138837500Y-83250000D03*
X138837500Y-83750000D03*
X138837500Y-84250000D03*
X138837500Y-84750000D03*
X138837500Y-85250000D03*
X138837500Y-85750000D03*
X138837500Y-86250000D03*
X138837500Y-86750000D03*
X138837500Y-87250000D03*
X138837500Y-87750000D03*
D59*
X140250000Y-89162500D03*
X140750000Y-89162500D03*
X141250000Y-89162500D03*
X141750000Y-89162500D03*
X142250000Y-89162500D03*
X142750000Y-89162500D03*
X143250000Y-89162500D03*
X143750000Y-89162500D03*
X144250000Y-89162500D03*
X144750000Y-89162500D03*
X145250000Y-89162500D03*
X145750000Y-89162500D03*
D58*
X147162500Y-87750000D03*
X147162500Y-87250000D03*
X147162500Y-86750000D03*
X147162500Y-86250000D03*
X147162500Y-85750000D03*
X147162500Y-85250000D03*
X147162500Y-84750000D03*
X147162500Y-84250000D03*
X147162500Y-83750000D03*
X147162500Y-83250000D03*
X147162500Y-82750000D03*
X147162500Y-82250000D03*
D59*
X145750000Y-80837500D03*
X145250000Y-80837500D03*
X144750000Y-80837500D03*
X144250000Y-80837500D03*
X143750000Y-80837500D03*
X143250000Y-80837500D03*
X142750000Y-80837500D03*
X142250000Y-80837500D03*
X141750000Y-80837500D03*
X141250000Y-80837500D03*
X140750000Y-80837500D03*
X140250000Y-80837500D03*
%TD*%
D55*
%TO.C,J17*%
X28100000Y-53600000D03*
X21900000Y-53600000D03*
D56*
X26250000Y-56950000D03*
X25000000Y-56950000D03*
X23750000Y-56950000D03*
%TD*%
D43*
%TO.C,R1*%
X148710000Y-77000000D03*
X147690000Y-77000000D03*
%TD*%
D60*
%TO.C,SW2*%
X3730000Y-81250000D03*
X3730000Y-79750000D03*
X3730000Y-76750000D03*
D61*
X870000Y-82650000D03*
X3080000Y-82650000D03*
D28*
X1970000Y-80500000D03*
X1970000Y-77500000D03*
D61*
X870000Y-75350000D03*
X3080000Y-75350000D03*
%TD*%
D26*
%TO.C,SW1*%
X125750000Y-3730000D03*
X127250000Y-3730000D03*
X130250000Y-3730000D03*
D27*
X124350000Y-870000D03*
X124350000Y-3080000D03*
D28*
X126500000Y-1970000D03*
X129500000Y-1970000D03*
D27*
X131650000Y-870000D03*
X131650000Y-3080000D03*
%TD*%
D25*
%TO.C,C5*%
X149100000Y-81020000D03*
X149100000Y-81980000D03*
%TD*%
D62*
%TO.C,R33*%
X42900000Y-77675000D03*
X42900000Y-79325000D03*
%TD*%
D38*
%TO.C,J1*%
X100600000Y-138275000D03*
X100600000Y-145725000D03*
D39*
X103950000Y-140125000D03*
X103950000Y-141375000D03*
X103950000Y-142625000D03*
X103950000Y-143875000D03*
%TD*%
D23*
%TO.C,J8*%
X155400000Y-120475000D03*
X155400000Y-115525000D03*
D24*
X152050000Y-118625000D03*
X152050000Y-117375000D03*
%TD*%
D55*
%TO.C,J16*%
X43100000Y-53600000D03*
X36900000Y-53600000D03*
D56*
X41250000Y-56950000D03*
X40000000Y-56950000D03*
X38750000Y-56950000D03*
%TD*%
D38*
%TO.C,J3*%
X48600000Y-115525000D03*
X48600000Y-120475000D03*
D39*
X51950000Y-117375000D03*
X51950000Y-118625000D03*
%TD*%
D30*
%TO.C,R28*%
X66300000Y-75990000D03*
X66300000Y-77010000D03*
%TD*%
D58*
%TO.C,U5*%
X50000000Y-82250000D03*
X50000000Y-82750000D03*
X50000000Y-83250000D03*
X50000000Y-83750000D03*
X50000000Y-84250000D03*
X50000000Y-84750000D03*
X50000000Y-85250000D03*
X50000000Y-85750000D03*
X50000000Y-86250000D03*
X50000000Y-86750000D03*
X50000000Y-87250000D03*
X50000000Y-87750000D03*
D59*
X51412500Y-89162500D03*
X51912500Y-89162500D03*
X52412500Y-89162500D03*
X52912500Y-89162500D03*
X53412500Y-89162500D03*
X53912500Y-89162500D03*
X54412500Y-89162500D03*
X54912500Y-89162500D03*
X55412500Y-89162500D03*
X55912500Y-89162500D03*
X56412500Y-89162500D03*
X56912500Y-89162500D03*
D58*
X58325000Y-87750000D03*
X58325000Y-87250000D03*
X58325000Y-86750000D03*
X58325000Y-86250000D03*
X58325000Y-85750000D03*
X58325000Y-85250000D03*
X58325000Y-84750000D03*
X58325000Y-84250000D03*
X58325000Y-83750000D03*
X58325000Y-83250000D03*
X58325000Y-82750000D03*
X58325000Y-82250000D03*
D59*
X56912500Y-80837500D03*
X56412500Y-80837500D03*
X55912500Y-80837500D03*
X55412500Y-80837500D03*
X54912500Y-80837500D03*
X54412500Y-80837500D03*
X53912500Y-80837500D03*
X53412500Y-80837500D03*
X52912500Y-80837500D03*
X52412500Y-80837500D03*
X51912500Y-80837500D03*
X51412500Y-80837500D03*
%TD*%
D55*
%TO.C,J2*%
X104475000Y-98600000D03*
X99525000Y-98600000D03*
D56*
X102625000Y-101950000D03*
X101375000Y-101950000D03*
%TD*%
D63*
%TO.C,D1*%
X133638000Y-77712500D03*
X133638000Y-79287500D03*
%TD*%
D62*
%TO.C,R22*%
X131738000Y-77675000D03*
X131738000Y-79325000D03*
%TD*%
D30*
%TO.C,R21*%
X164300000Y-134610000D03*
X164300000Y-135630000D03*
%TD*%
D21*
%TO.C,C30*%
X46700000Y-87480000D03*
X46700000Y-86520000D03*
%TD*%
D63*
%TO.C,D2*%
X44800000Y-77712500D03*
X44800000Y-79287500D03*
%TD*%
D32*
%TO.C,C25*%
X49375000Y-78900000D03*
X47825000Y-78900000D03*
%TD*%
D30*
%TO.C,R15*%
X62200000Y-149390000D03*
X62200000Y-150410000D03*
%TD*%
%TO.C,R5*%
X154300000Y-78190000D03*
X154300000Y-79210000D03*
%TD*%
D44*
%TO.C,R3*%
X141200000Y-92310000D03*
X141200000Y-91290000D03*
%TD*%
D21*
%TO.C,C7*%
X135538000Y-87480000D03*
X135538000Y-86520000D03*
%TD*%
D43*
%TO.C,R32*%
X45510000Y-85100000D03*
X44490000Y-85100000D03*
%TD*%
D33*
%TO.C,C11*%
X101720000Y-106175000D03*
X102680000Y-106175000D03*
%TD*%
D21*
%TO.C,C14*%
X60100000Y-142380000D03*
X60100000Y-141420000D03*
%TD*%
%TO.C,C3*%
X136838000Y-81980000D03*
X136838000Y-81020000D03*
%TD*%
%TO.C,C17*%
X162200000Y-119580000D03*
X162200000Y-118620000D03*
%TD*%
D60*
%TO.C,SW4*%
X200270000Y-76750000D03*
X200270000Y-78250000D03*
X200270000Y-81250000D03*
D61*
X203130000Y-75350000D03*
X200920000Y-75350000D03*
D28*
X202030000Y-77500000D03*
X202030000Y-80500000D03*
D61*
X203130000Y-82650000D03*
X200920000Y-82650000D03*
%TD*%
D38*
%TO.C,J7*%
X48600000Y-123525000D03*
X48600000Y-128475000D03*
D39*
X51950000Y-125375000D03*
X51950000Y-126625000D03*
%TD*%
D30*
%TO.C,R14*%
X62200000Y-141390000D03*
X62200000Y-142410000D03*
%TD*%
%TO.C,R19*%
X164300000Y-126690000D03*
X164300000Y-127710000D03*
%TD*%
D25*
%TO.C,C22*%
X129200000Y-119820000D03*
X129200000Y-120780000D03*
%TD*%
D21*
%TO.C,C15*%
X60100000Y-150380000D03*
X60100000Y-149420000D03*
%TD*%
D43*
%TO.C,R9*%
X134348000Y-85100000D03*
X133328000Y-85100000D03*
%TD*%
D23*
%TO.C,J12*%
X155400000Y-136475000D03*
X155400000Y-131525000D03*
D24*
X152050000Y-134625000D03*
X152050000Y-133375000D03*
%TD*%
D21*
%TO.C,C20*%
X162300000Y-151580000D03*
X162300000Y-150620000D03*
%TD*%
D23*
%TO.C,J11*%
X155400000Y-152475000D03*
X155400000Y-147525000D03*
D24*
X152050000Y-150625000D03*
X152050000Y-149375000D03*
%TD*%
D33*
%TO.C,C29*%
X51000000Y-79000000D03*
X51960000Y-79000000D03*
%TD*%
D30*
%TO.C,R12*%
X62200000Y-117390000D03*
X62200000Y-118410000D03*
%TD*%
D40*
%TO.C,L2*%
X46710000Y-89985000D03*
X46710000Y-89015000D03*
%TD*%
D30*
%TO.C,R17*%
X164200000Y-118590000D03*
X164200000Y-119610000D03*
%TD*%
D21*
%TO.C,C8*%
X136888000Y-87480000D03*
X136888000Y-86520000D03*
%TD*%
D23*
%TO.C,J9*%
X155400000Y-144475000D03*
X155400000Y-139525000D03*
D24*
X152050000Y-142625000D03*
X152050000Y-141375000D03*
%TD*%
D38*
%TO.C,J5*%
X48600000Y-139525000D03*
X48600000Y-144475000D03*
D39*
X51950000Y-141375000D03*
X51950000Y-142625000D03*
%TD*%
D21*
%TO.C,C31*%
X48050000Y-87480000D03*
X48050000Y-86520000D03*
%TD*%
D51*
%TO.C,R7*%
X151090000Y-80300000D03*
X152110000Y-80300000D03*
%TD*%
D64*
%TO.C,U3*%
X122625000Y-145905000D03*
X122625000Y-144635000D03*
X122625000Y-143365000D03*
X122625000Y-142095000D03*
X117375000Y-142095000D03*
X117375000Y-143365000D03*
X117375000Y-144635000D03*
X117375000Y-145905000D03*
%TD*%
D51*
%TO.C,R10*%
X126090000Y-78800000D03*
X127110000Y-78800000D03*
%TD*%
D21*
%TO.C,C16*%
X60100000Y-126280000D03*
X60100000Y-125320000D03*
%TD*%
D25*
%TO.C,C1*%
X134100000Y-86520000D03*
X134100000Y-87480000D03*
%TD*%
D30*
%TO.C,R16*%
X62200000Y-125300000D03*
X62200000Y-126320000D03*
%TD*%
D21*
%TO.C,C19*%
X162300000Y-127680000D03*
X162300000Y-126720000D03*
%TD*%
D19*
%TO.C,J14*%
X145300000Y-4475000D03*
X144650000Y-4475000D03*
X144000000Y-4475000D03*
X143350000Y-4475000D03*
X142700000Y-4475000D03*
D15*
X148175000Y-1800000D03*
D16*
X147175000Y-1800000D03*
D17*
X146225000Y-4800000D03*
D18*
X145150000Y-1808000D03*
X142850000Y-1808000D03*
D17*
X141775000Y-4800000D03*
D16*
X140825000Y-1800000D03*
D15*
X139825000Y-1800000D03*
%TD*%
D65*
%TO.C,U6*%
X60950000Y-7862500D03*
X60000000Y-7862500D03*
X59050000Y-7862500D03*
X59050000Y-10137500D03*
X60000000Y-10137500D03*
X60950000Y-10137500D03*
%TD*%
%TO.C,U4*%
X144950000Y-7862500D03*
X144000000Y-7862500D03*
X143050000Y-7862500D03*
X143050000Y-10137500D03*
X144000000Y-10137500D03*
X144950000Y-10137500D03*
%TD*%
%LPD*%
M02*
