%TF.GenerationSoftware,KiCad,Pcbnew,8.0.3*%
%TF.CreationDate,2024-06-21T22:14:07+02:00*%
%TF.ProjectId,Pilot,50696c6f-742e-46b6-9963-61645f706362,rev?*%
%TF.SameCoordinates,Original*%
%TF.FileFunction,Soldermask,Top*%
%TF.FilePolarity,Negative*%
%FSLAX46Y46*%
G04 Gerber Fmt 4.6, Leading zero omitted, Abs format (unit mm)*
G04 Created by KiCad (PCBNEW 8.0.3) date 2024-06-21 22:14:07*
%MOMM*%
%LPD*%
G01*
G04 APERTURE LIST*
G04 Aperture macros list*
%AMRoundRect*
0 Rectangle with rounded corners*
0 $1 Rounding radius*
0 $2 $3 $4 $5 $6 $7 $8 $9 X,Y pos of 4 corners*
0 Add a 4 corners polygon primitive as box body*
4,1,4,$2,$3,$4,$5,$6,$7,$8,$9,$2,$3,0*
0 Add four circle primitives for the rounded corners*
1,1,$1+$1,$2,$3*
1,1,$1+$1,$4,$5*
1,1,$1+$1,$6,$7*
1,1,$1+$1,$8,$9*
0 Add four rect primitives between the rounded corners*
20,1,$1+$1,$2,$3,$4,$5,0*
20,1,$1+$1,$4,$5,$6,$7,0*
20,1,$1+$1,$6,$7,$8,$9,0*
20,1,$1+$1,$8,$9,$2,$3,0*%
G04 Aperture macros list end*
%ADD10RoundRect,0.140000X0.170000X-0.140000X0.170000X0.140000X-0.170000X0.140000X-0.170000X-0.140000X0*%
%ADD11RoundRect,0.250001X2.049999X0.799999X-2.049999X0.799999X-2.049999X-0.799999X2.049999X-0.799999X0*%
%ADD12RoundRect,0.150000X-0.700000X0.150000X-0.700000X-0.150000X0.700000X-0.150000X0.700000X0.150000X0*%
%ADD13RoundRect,0.250000X-1.150000X0.250000X-1.150000X-0.250000X1.150000X-0.250000X1.150000X0.250000X0*%
%ADD14RoundRect,0.140000X-0.170000X0.140000X-0.170000X-0.140000X0.170000X-0.140000X0.170000X0.140000X0*%
%ADD15R,1.000000X0.800000*%
%ADD16C,0.900000*%
%ADD17R,0.700000X1.500000*%
%ADD18R,2.400000X2.000000*%
%ADD19RoundRect,0.140000X-0.140000X-0.170000X0.140000X-0.170000X0.140000X0.170000X-0.140000X0.170000X0*%
%ADD20RoundRect,0.135000X-0.185000X0.135000X-0.185000X-0.135000X0.185000X-0.135000X0.185000X0.135000X0*%
%ADD21RoundRect,0.200000X-0.200000X-0.275000X0.200000X-0.275000X0.200000X0.275000X-0.200000X0.275000X0*%
%ADD22RoundRect,0.225000X0.225000X0.250000X-0.225000X0.250000X-0.225000X-0.250000X0.225000X-0.250000X0*%
%ADD23RoundRect,0.140000X0.140000X0.170000X-0.140000X0.170000X-0.140000X-0.170000X0.140000X-0.170000X0*%
%ADD24RoundRect,0.175000X1.675000X-0.175000X1.675000X0.175000X-1.675000X0.175000X-1.675000X-0.175000X0*%
%ADD25RoundRect,0.250001X0.899999X-0.499999X0.899999X0.499999X-0.899999X0.499999X-0.899999X-0.499999X0*%
%ADD26RoundRect,0.155500X-0.397000X0.155500X-0.397000X-0.155500X0.397000X-0.155500X0.397000X0.155500X0*%
%ADD27RoundRect,0.150000X0.700000X-0.150000X0.700000X0.150000X-0.700000X0.150000X-0.700000X-0.150000X0*%
%ADD28RoundRect,0.250000X1.150000X-0.250000X1.150000X0.250000X-1.150000X0.250000X-1.150000X-0.250000X0*%
%ADD29RoundRect,0.147500X0.172500X-0.147500X0.172500X0.147500X-0.172500X0.147500X-0.172500X-0.147500X0*%
%ADD30RoundRect,0.250000X0.650000X-1.000000X0.650000X1.000000X-0.650000X1.000000X-0.650000X-1.000000X0*%
%ADD31RoundRect,0.150000X-0.650000X-0.150000X0.650000X-0.150000X0.650000X0.150000X-0.650000X0.150000X0*%
%ADD32RoundRect,0.135000X0.135000X0.185000X-0.135000X0.185000X-0.135000X-0.185000X0.135000X-0.185000X0*%
%ADD33RoundRect,0.135000X0.185000X-0.135000X0.185000X0.135000X-0.185000X0.135000X-0.185000X-0.135000X0*%
%ADD34R,0.400000X1.350000*%
%ADD35O,1.200000X1.900000*%
%ADD36R,1.200000X1.900000*%
%ADD37C,1.450000*%
%ADD38R,1.500000X1.900000*%
%ADD39R,5.500000X1.430000*%
%ADD40RoundRect,0.375000X-0.375000X0.625000X-0.375000X-0.625000X0.375000X-0.625000X0.375000X0.625000X0*%
%ADD41RoundRect,0.500000X-1.400000X0.500000X-1.400000X-0.500000X1.400000X-0.500000X1.400000X0.500000X0*%
%ADD42RoundRect,0.135000X-0.135000X-0.185000X0.135000X-0.185000X0.135000X0.185000X-0.135000X0.185000X0*%
%ADD43RoundRect,0.200000X0.200000X0.275000X-0.200000X0.275000X-0.200000X-0.275000X0.200000X-0.275000X0*%
%ADD44RoundRect,0.175000X-1.675000X0.175000X-1.675000X-0.175000X1.675000X-0.175000X1.675000X0.175000X0*%
%ADD45RoundRect,0.250001X-0.899999X0.499999X-0.899999X-0.499999X0.899999X-0.499999X0.899999X0.499999X0*%
%ADD46RoundRect,0.150000X-0.150000X-0.700000X0.150000X-0.700000X0.150000X0.700000X-0.150000X0.700000X0*%
%ADD47RoundRect,0.250000X-0.250000X-1.150000X0.250000X-1.150000X0.250000X1.150000X-0.250000X1.150000X0*%
%ADD48RoundRect,0.150000X-0.150000X0.512500X-0.150000X-0.512500X0.150000X-0.512500X0.150000X0.512500X0*%
%ADD49RoundRect,0.250000X-0.650000X0.325000X-0.650000X-0.325000X0.650000X-0.325000X0.650000X0.325000X0*%
%ADD50RoundRect,0.075000X-0.662500X-0.075000X0.662500X-0.075000X0.662500X0.075000X-0.662500X0.075000X0*%
%ADD51RoundRect,0.075000X-0.075000X-0.662500X0.075000X-0.662500X0.075000X0.662500X-0.075000X0.662500X0*%
%ADD52R,0.800000X1.000000*%
%ADD53R,1.500000X0.700000*%
%ADD54RoundRect,0.200000X-0.275000X0.200000X-0.275000X-0.200000X0.275000X-0.200000X0.275000X0.200000X0*%
%ADD55RoundRect,0.218750X-0.256250X0.218750X-0.256250X-0.218750X0.256250X-0.218750X0.256250X0.218750X0*%
%ADD56RoundRect,0.150000X0.675000X0.150000X-0.675000X0.150000X-0.675000X-0.150000X0.675000X-0.150000X0*%
%ADD57C,1.000000*%
%ADD58C,0.700000*%
%ADD59C,1.200000*%
G04 APERTURE END LIST*
D10*
%TO.C,C26*%
X48000000Y-81980000D03*
X48000000Y-81020000D03*
%TD*%
D11*
%TO.C,C34*%
X183400000Y-70500000D03*
X174600000Y-70500000D03*
%TD*%
D12*
%TO.C,J10*%
X152050000Y-125375000D03*
X152050000Y-126625000D03*
D13*
X155400000Y-123525000D03*
X155400000Y-128475000D03*
%TD*%
D14*
%TO.C,C24*%
X45300000Y-86520000D03*
X45300000Y-87480000D03*
%TD*%
D15*
%TO.C,SW3*%
X79650000Y-3080000D03*
X79650000Y-870000D03*
D16*
X77500000Y-1970000D03*
X74500000Y-1970000D03*
D15*
X72350000Y-3080000D03*
X72350000Y-870000D03*
D17*
X78250000Y-3730000D03*
X75250000Y-3730000D03*
X73750000Y-3730000D03*
%TD*%
D11*
%TO.C,C35*%
X183400000Y-82500000D03*
X174600000Y-82500000D03*
%TD*%
D10*
%TO.C,C13*%
X60100000Y-134380000D03*
X60100000Y-133420000D03*
%TD*%
D18*
%TO.C,Y2*%
X41200000Y-86750000D03*
X41200000Y-83050000D03*
%TD*%
D10*
%TO.C,C18*%
X162300000Y-143580000D03*
X162300000Y-142620000D03*
%TD*%
D14*
%TO.C,C28*%
X60300000Y-81320000D03*
X60300000Y-82280000D03*
%TD*%
D19*
%TO.C,C9*%
X126038000Y-83000000D03*
X126998000Y-83000000D03*
%TD*%
D20*
%TO.C,R29*%
X65200000Y-75990000D03*
X65200000Y-77010000D03*
%TD*%
D21*
%TO.C,R24*%
X118175000Y-122400000D03*
X119825000Y-122400000D03*
%TD*%
D22*
%TO.C,C2*%
X137875000Y-78900000D03*
X136325000Y-78900000D03*
%TD*%
D10*
%TO.C,C23*%
X115500000Y-146960000D03*
X115500000Y-146000000D03*
%TD*%
D18*
%TO.C,Y1*%
X130038000Y-86750000D03*
X130038000Y-83050000D03*
%TD*%
D19*
%TO.C,C6*%
X139837000Y-79000000D03*
X140797000Y-79000000D03*
%TD*%
D10*
%TO.C,C21*%
X162300000Y-135600000D03*
X162300000Y-134640000D03*
%TD*%
D23*
%TO.C,C4*%
X146780000Y-91000000D03*
X145820000Y-91000000D03*
%TD*%
D24*
%TO.C,J13*%
X102700000Y-131250000D03*
X102700000Y-129750000D03*
X102700000Y-128250000D03*
X102700000Y-126750000D03*
X102700000Y-125250000D03*
X102700000Y-123750000D03*
X102700000Y-122250000D03*
X102700000Y-120750000D03*
D25*
X100600000Y-133300000D03*
X100600000Y-118700000D03*
%TD*%
D20*
%TO.C,R18*%
X164300000Y-142590000D03*
X164300000Y-143610000D03*
%TD*%
D26*
%TO.C,U9*%
X39700000Y-34050000D03*
X39700000Y-35000000D03*
X39700000Y-35950000D03*
X42300000Y-35900000D03*
X42300000Y-34050000D03*
%TD*%
D27*
%TO.C,J6*%
X51950000Y-150625000D03*
X51950000Y-149375000D03*
D28*
X48600000Y-152475000D03*
X48600000Y-147525000D03*
%TD*%
D29*
%TO.C,L1*%
X135548000Y-89985000D03*
X135548000Y-89015000D03*
%TD*%
D30*
%TO.C,D4*%
X170000000Y-22000000D03*
X170000000Y-18000000D03*
%TD*%
D31*
%TO.C,U2*%
X122000000Y-122460000D03*
X122000000Y-123730000D03*
X122000000Y-125000000D03*
X122000000Y-126270000D03*
X129200000Y-126270000D03*
X129200000Y-125000000D03*
X129200000Y-123730000D03*
X129200000Y-122460000D03*
%TD*%
D32*
%TO.C,R11*%
X102710000Y-104675000D03*
X101690000Y-104675000D03*
%TD*%
D33*
%TO.C,R26*%
X156500000Y-84210000D03*
X156500000Y-83190000D03*
%TD*%
%TO.C,R4*%
X61400000Y-93610000D03*
X61400000Y-92590000D03*
%TD*%
D27*
%TO.C,J4*%
X51950000Y-134625000D03*
X51950000Y-133375000D03*
D28*
X48600000Y-136475000D03*
X48600000Y-131525000D03*
%TD*%
D34*
%TO.C,J20*%
X61300000Y-4262500D03*
X60650000Y-4262500D03*
X60000000Y-4262500D03*
X59350000Y-4262500D03*
X58700000Y-4262500D03*
D35*
X63500000Y-1562500D03*
D36*
X62900000Y-1562500D03*
D37*
X62500000Y-4262500D03*
D38*
X61000000Y-1562500D03*
X59000000Y-1562500D03*
D37*
X57500000Y-4262500D03*
D36*
X57100000Y-1562500D03*
D35*
X56500000Y-1562500D03*
%TD*%
D39*
%TO.C,L3*%
X43200000Y-28520000D03*
X43200000Y-24480000D03*
%TD*%
D40*
%TO.C,U8*%
X192300000Y-70350000D03*
X190000000Y-70350000D03*
D41*
X190000000Y-76650000D03*
D40*
X187700000Y-70350000D03*
%TD*%
D20*
%TO.C,R13*%
X62200000Y-133390000D03*
X62200000Y-134410000D03*
%TD*%
D42*
%TO.C,R30*%
X62790000Y-78300000D03*
X63810000Y-78300000D03*
%TD*%
D20*
%TO.C,R6*%
X153100000Y-78190000D03*
X153100000Y-79210000D03*
%TD*%
D43*
%TO.C,R23*%
X110225000Y-127700000D03*
X108575000Y-127700000D03*
%TD*%
D44*
%TO.C,J15*%
X77800000Y-61500000D03*
X77800000Y-63000000D03*
X77800000Y-64500000D03*
D45*
X79900000Y-59450000D03*
X79900000Y-66550000D03*
%TD*%
D46*
%TO.C,J19*%
X123750000Y-56950000D03*
X125000000Y-56950000D03*
X126250000Y-56950000D03*
D47*
X121900000Y-53600000D03*
X128100000Y-53600000D03*
%TD*%
D46*
%TO.C,J18*%
X138750000Y-56950000D03*
X140000000Y-56950000D03*
X141250000Y-56950000D03*
D47*
X136900000Y-53600000D03*
X143100000Y-53600000D03*
%TD*%
D43*
%TO.C,R25*%
X119805000Y-125015000D03*
X118155000Y-125015000D03*
%TD*%
D34*
%TO.C,J14*%
X145300000Y-4262500D03*
X144650000Y-4262500D03*
X144000000Y-4262500D03*
X143350000Y-4262500D03*
X142700000Y-4262500D03*
D35*
X147500000Y-1562500D03*
D36*
X146900000Y-1562500D03*
D37*
X146500000Y-4262500D03*
D38*
X145000000Y-1562500D03*
X143000000Y-1562500D03*
D37*
X141500000Y-4262500D03*
D36*
X141100000Y-1562500D03*
D35*
X140500000Y-1562500D03*
%TD*%
D20*
%TO.C,R8*%
X142200000Y-74000000D03*
X142200000Y-75020000D03*
%TD*%
%TO.C,R31*%
X53425000Y-77450000D03*
X53425000Y-78470000D03*
%TD*%
D48*
%TO.C,U6*%
X60950000Y-7862500D03*
X60000000Y-7862500D03*
X59050000Y-7862500D03*
X59050000Y-10137500D03*
X60000000Y-10137500D03*
X60950000Y-10137500D03*
%TD*%
D49*
%TO.C,C37*%
X39000000Y-38025000D03*
X39000000Y-40975000D03*
%TD*%
D19*
%TO.C,C32*%
X37200000Y-83000000D03*
X38160000Y-83000000D03*
%TD*%
D10*
%TO.C,C12*%
X60100000Y-118380000D03*
X60100000Y-117420000D03*
%TD*%
D42*
%TO.C,R2*%
X144290000Y-74600000D03*
X145310000Y-74600000D03*
%TD*%
D30*
%TO.C,D3*%
X174000000Y-22000000D03*
X174000000Y-18000000D03*
%TD*%
D20*
%TO.C,R20*%
X164400000Y-150590000D03*
X164400000Y-151610000D03*
%TD*%
D49*
%TO.C,C36*%
X43000000Y-38025000D03*
X43000000Y-40975000D03*
%TD*%
D33*
%TO.C,R27*%
X63300000Y-85210000D03*
X63300000Y-84190000D03*
%TD*%
D23*
%TO.C,C27*%
X57880000Y-91100000D03*
X56920000Y-91100000D03*
%TD*%
D50*
%TO.C,U1*%
X138837500Y-82250000D03*
X138837500Y-82750000D03*
X138837500Y-83250000D03*
X138837500Y-83750000D03*
X138837500Y-84250000D03*
X138837500Y-84750000D03*
X138837500Y-85250000D03*
X138837500Y-85750000D03*
X138837500Y-86250000D03*
X138837500Y-86750000D03*
X138837500Y-87250000D03*
X138837500Y-87750000D03*
D51*
X140250000Y-89162500D03*
X140750000Y-89162500D03*
X141250000Y-89162500D03*
X141750000Y-89162500D03*
X142250000Y-89162500D03*
X142750000Y-89162500D03*
X143250000Y-89162500D03*
X143750000Y-89162500D03*
X144250000Y-89162500D03*
X144750000Y-89162500D03*
X145250000Y-89162500D03*
X145750000Y-89162500D03*
D50*
X147162500Y-87750000D03*
X147162500Y-87250000D03*
X147162500Y-86750000D03*
X147162500Y-86250000D03*
X147162500Y-85750000D03*
X147162500Y-85250000D03*
X147162500Y-84750000D03*
X147162500Y-84250000D03*
X147162500Y-83750000D03*
X147162500Y-83250000D03*
X147162500Y-82750000D03*
X147162500Y-82250000D03*
D51*
X145750000Y-80837500D03*
X145250000Y-80837500D03*
X144750000Y-80837500D03*
X144250000Y-80837500D03*
X143750000Y-80837500D03*
X143250000Y-80837500D03*
X142750000Y-80837500D03*
X142250000Y-80837500D03*
X141750000Y-80837500D03*
X141250000Y-80837500D03*
X140750000Y-80837500D03*
X140250000Y-80837500D03*
%TD*%
D46*
%TO.C,J17*%
X23750000Y-56950000D03*
X25000000Y-56950000D03*
X26250000Y-56950000D03*
D47*
X21900000Y-53600000D03*
X28100000Y-53600000D03*
%TD*%
D32*
%TO.C,R1*%
X148710000Y-77000000D03*
X147690000Y-77000000D03*
%TD*%
D52*
%TO.C,SW2*%
X3080000Y-75350000D03*
X870000Y-75350000D03*
D16*
X1970000Y-77500000D03*
X1970000Y-80500000D03*
D52*
X3080000Y-82650000D03*
X870000Y-82650000D03*
D53*
X3730000Y-76750000D03*
X3730000Y-79750000D03*
X3730000Y-81250000D03*
%TD*%
D15*
%TO.C,SW1*%
X131650000Y-3080000D03*
X131650000Y-870000D03*
D16*
X129500000Y-1970000D03*
X126500000Y-1970000D03*
D15*
X124350000Y-3080000D03*
X124350000Y-870000D03*
D17*
X130250000Y-3730000D03*
X127250000Y-3730000D03*
X125750000Y-3730000D03*
%TD*%
D14*
%TO.C,C5*%
X149100000Y-81020000D03*
X149100000Y-81980000D03*
%TD*%
D54*
%TO.C,R33*%
X42900000Y-77675000D03*
X42900000Y-79325000D03*
%TD*%
D27*
%TO.C,J1*%
X103950000Y-143875000D03*
X103950000Y-142625000D03*
X103950000Y-141375000D03*
X103950000Y-140125000D03*
D28*
X100600000Y-145725000D03*
X100600000Y-138275000D03*
%TD*%
D12*
%TO.C,J8*%
X152050000Y-117375000D03*
X152050000Y-118625000D03*
D13*
X155400000Y-115525000D03*
X155400000Y-120475000D03*
%TD*%
D46*
%TO.C,J16*%
X38750000Y-56950000D03*
X40000000Y-56950000D03*
X41250000Y-56950000D03*
D47*
X36900000Y-53600000D03*
X43100000Y-53600000D03*
%TD*%
D27*
%TO.C,J3*%
X51950000Y-118625000D03*
X51950000Y-117375000D03*
D28*
X48600000Y-120475000D03*
X48600000Y-115525000D03*
%TD*%
D48*
%TO.C,U4*%
X144950000Y-7862500D03*
X144000000Y-7862500D03*
X143050000Y-7862500D03*
X143050000Y-10137500D03*
X144000000Y-10137500D03*
X144950000Y-10137500D03*
%TD*%
D20*
%TO.C,R28*%
X66300000Y-75990000D03*
X66300000Y-77010000D03*
%TD*%
D50*
%TO.C,U5*%
X50000000Y-82250000D03*
X50000000Y-82750000D03*
X50000000Y-83250000D03*
X50000000Y-83750000D03*
X50000000Y-84250000D03*
X50000000Y-84750000D03*
X50000000Y-85250000D03*
X50000000Y-85750000D03*
X50000000Y-86250000D03*
X50000000Y-86750000D03*
X50000000Y-87250000D03*
X50000000Y-87750000D03*
D51*
X51412500Y-89162500D03*
X51912500Y-89162500D03*
X52412500Y-89162500D03*
X52912500Y-89162500D03*
X53412500Y-89162500D03*
X53912500Y-89162500D03*
X54412500Y-89162500D03*
X54912500Y-89162500D03*
X55412500Y-89162500D03*
X55912500Y-89162500D03*
X56412500Y-89162500D03*
X56912500Y-89162500D03*
D50*
X58325000Y-87750000D03*
X58325000Y-87250000D03*
X58325000Y-86750000D03*
X58325000Y-86250000D03*
X58325000Y-85750000D03*
X58325000Y-85250000D03*
X58325000Y-84750000D03*
X58325000Y-84250000D03*
X58325000Y-83750000D03*
X58325000Y-83250000D03*
X58325000Y-82750000D03*
X58325000Y-82250000D03*
D51*
X56912500Y-80837500D03*
X56412500Y-80837500D03*
X55912500Y-80837500D03*
X55412500Y-80837500D03*
X54912500Y-80837500D03*
X54412500Y-80837500D03*
X53912500Y-80837500D03*
X53412500Y-80837500D03*
X52912500Y-80837500D03*
X52412500Y-80837500D03*
X51912500Y-80837500D03*
X51412500Y-80837500D03*
%TD*%
D46*
%TO.C,J2*%
X101375000Y-101950000D03*
X102625000Y-101950000D03*
D47*
X99525000Y-98600000D03*
X104475000Y-98600000D03*
%TD*%
D55*
%TO.C,D1*%
X133638000Y-77712500D03*
X133638000Y-79287500D03*
%TD*%
D54*
%TO.C,R22*%
X131738000Y-77675000D03*
X131738000Y-79325000D03*
%TD*%
D20*
%TO.C,R21*%
X164300000Y-134610000D03*
X164300000Y-135630000D03*
%TD*%
D10*
%TO.C,C30*%
X46700000Y-87480000D03*
X46700000Y-86520000D03*
%TD*%
D55*
%TO.C,D2*%
X44800000Y-77712500D03*
X44800000Y-79287500D03*
%TD*%
D22*
%TO.C,C25*%
X49375000Y-78900000D03*
X47825000Y-78900000D03*
%TD*%
D20*
%TO.C,R15*%
X62200000Y-149390000D03*
X62200000Y-150410000D03*
%TD*%
D19*
%TO.C,C33*%
X37200000Y-86800000D03*
X38160000Y-86800000D03*
%TD*%
D20*
%TO.C,R5*%
X154300000Y-78190000D03*
X154300000Y-79210000D03*
%TD*%
D33*
%TO.C,R3*%
X141200000Y-92310000D03*
X141200000Y-91290000D03*
%TD*%
D19*
%TO.C,C10*%
X126038000Y-86800000D03*
X126998000Y-86800000D03*
%TD*%
D10*
%TO.C,C7*%
X135538000Y-87480000D03*
X135538000Y-86520000D03*
%TD*%
D32*
%TO.C,R32*%
X45510000Y-85100000D03*
X44490000Y-85100000D03*
%TD*%
D19*
%TO.C,C11*%
X101720000Y-106175000D03*
X102680000Y-106175000D03*
%TD*%
D10*
%TO.C,C14*%
X60100000Y-142380000D03*
X60100000Y-141420000D03*
%TD*%
%TO.C,C3*%
X136838000Y-81980000D03*
X136838000Y-81020000D03*
%TD*%
%TO.C,C17*%
X162200000Y-119580000D03*
X162200000Y-118620000D03*
%TD*%
D52*
%TO.C,SW4*%
X200920000Y-82650000D03*
X203130000Y-82650000D03*
D16*
X202030000Y-80500000D03*
X202030000Y-77500000D03*
D52*
X200920000Y-75350000D03*
X203130000Y-75350000D03*
D53*
X200270000Y-81250000D03*
X200270000Y-78250000D03*
X200270000Y-76750000D03*
%TD*%
D27*
%TO.C,J7*%
X51950000Y-126625000D03*
X51950000Y-125375000D03*
D28*
X48600000Y-128475000D03*
X48600000Y-123525000D03*
%TD*%
D20*
%TO.C,R14*%
X62200000Y-141390000D03*
X62200000Y-142410000D03*
%TD*%
%TO.C,R19*%
X164300000Y-126690000D03*
X164300000Y-127710000D03*
%TD*%
D14*
%TO.C,C22*%
X129200000Y-119820000D03*
X129200000Y-120780000D03*
%TD*%
D10*
%TO.C,C15*%
X60100000Y-150380000D03*
X60100000Y-149420000D03*
%TD*%
D32*
%TO.C,R9*%
X134348000Y-85100000D03*
X133328000Y-85100000D03*
%TD*%
D12*
%TO.C,J12*%
X152050000Y-133375000D03*
X152050000Y-134625000D03*
D13*
X155400000Y-131525000D03*
X155400000Y-136475000D03*
%TD*%
D10*
%TO.C,C20*%
X162300000Y-151580000D03*
X162300000Y-150620000D03*
%TD*%
D12*
%TO.C,J11*%
X152050000Y-149375000D03*
X152050000Y-150625000D03*
D13*
X155400000Y-147525000D03*
X155400000Y-152475000D03*
%TD*%
D19*
%TO.C,C29*%
X51000000Y-79000000D03*
X51960000Y-79000000D03*
%TD*%
D20*
%TO.C,R12*%
X62200000Y-117390000D03*
X62200000Y-118410000D03*
%TD*%
D29*
%TO.C,L2*%
X46710000Y-89985000D03*
X46710000Y-89015000D03*
%TD*%
D20*
%TO.C,R17*%
X164200000Y-118590000D03*
X164200000Y-119610000D03*
%TD*%
D10*
%TO.C,C8*%
X136888000Y-87480000D03*
X136888000Y-86520000D03*
%TD*%
D12*
%TO.C,J9*%
X152050000Y-141375000D03*
X152050000Y-142625000D03*
D13*
X155400000Y-139525000D03*
X155400000Y-144475000D03*
%TD*%
D27*
%TO.C,J5*%
X51950000Y-142625000D03*
X51950000Y-141375000D03*
D28*
X48600000Y-144475000D03*
X48600000Y-139525000D03*
%TD*%
D10*
%TO.C,C31*%
X48050000Y-87480000D03*
X48050000Y-86520000D03*
%TD*%
D42*
%TO.C,R7*%
X151090000Y-80300000D03*
X152110000Y-80300000D03*
%TD*%
D56*
%TO.C,U3*%
X122625000Y-145905000D03*
X122625000Y-144635000D03*
X122625000Y-143365000D03*
X122625000Y-142095000D03*
X117375000Y-142095000D03*
X117375000Y-143365000D03*
X117375000Y-144635000D03*
X117375000Y-145905000D03*
%TD*%
D42*
%TO.C,R10*%
X126090000Y-78800000D03*
X127110000Y-78800000D03*
%TD*%
D10*
%TO.C,C16*%
X60100000Y-126280000D03*
X60100000Y-125320000D03*
%TD*%
D14*
%TO.C,C1*%
X134100000Y-86520000D03*
X134100000Y-87480000D03*
%TD*%
D20*
%TO.C,R16*%
X62200000Y-125300000D03*
X62200000Y-126320000D03*
%TD*%
D10*
%TO.C,C19*%
X162300000Y-127680000D03*
X162300000Y-126720000D03*
%TD*%
D57*
%TO.C,U7*%
X160760000Y-36920000D03*
X160760000Y-39460000D03*
D58*
X184620000Y-52477000D03*
D57*
X184890000Y-57240000D03*
D59*
X185370000Y-54890000D03*
X181870000Y-54890000D03*
D57*
X182350000Y-57240000D03*
D58*
X182620000Y-52500000D03*
D57*
X174730000Y-57240000D03*
X172190000Y-57240000D03*
X169650000Y-57240000D03*
X167110000Y-57240000D03*
X169650000Y-26760000D03*
X169650000Y-31840000D03*
D59*
X170257000Y-29109000D03*
X166757000Y-29109000D03*
D57*
X167110000Y-26760000D03*
X167110000Y-31840000D03*
X186160000Y-35650000D03*
%TD*%
M02*
