%TF.GenerationSoftware,KiCad,Pcbnew,8.0.3*%
%TF.CreationDate,2024-06-22T00:29:56+02:00*%
%TF.ProjectId,Pilot,50696c6f-742e-46b6-9963-61645f706362,rev?*%
%TF.SameCoordinates,Original*%
%TF.FileFunction,Profile,NP*%
%FSLAX46Y46*%
G04 Gerber Fmt 4.6, Leading zero omitted, Abs format (unit mm)*
G04 Created by KiCad (PCBNEW 8.0.3) date 2024-06-22 00:29:56*
%MOMM*%
%LPD*%
G01*
G04 APERTURE LIST*
%TA.AperFunction,Profile*%
%ADD10C,0.050000*%
%TD*%
G04 APERTURE END LIST*
D10*
X191500000Y-28000000D02*
G75*
G02*
X188500000Y-28000000I-1500000J0D01*
G01*
X188500000Y-28000000D02*
G75*
G02*
X191500000Y-28000000I1500000J0D01*
G01*
X163500000Y-28000000D02*
G75*
G02*
X160500000Y-28000000I-1500000J0D01*
G01*
X160500000Y-28000000D02*
G75*
G02*
X163500000Y-28000000I1500000J0D01*
G01*
X16500000Y-15000000D02*
G75*
G02*
X13500000Y-15000000I-1500000J0D01*
G01*
X13500000Y-15000000D02*
G75*
G02*
X16500000Y-15000000I1500000J0D01*
G01*
X204000000Y-158000000D02*
X0Y-158000000D01*
X0Y-158000000D02*
X0Y-23000000D01*
X191500000Y-56000000D02*
G75*
G02*
X188500000Y-56000000I-1500000J0D01*
G01*
X188500000Y-56000000D02*
G75*
G02*
X191500000Y-56000000I1500000J0D01*
G01*
X182000003Y0D02*
G75*
G02*
X204000000Y-21999997I-1000003J-23000000D01*
G01*
X180576000Y-15000000D02*
G75*
G02*
X179424000Y-15000000I-576000J0D01*
G01*
X179424000Y-15000000D02*
G75*
G02*
X180576000Y-15000000I576000J0D01*
G01*
X30576000Y-148000000D02*
G75*
G02*
X29424000Y-148000000I-576000J0D01*
G01*
X29424000Y-148000000D02*
G75*
G02*
X30576000Y-148000000I576000J0D01*
G01*
X30576000Y-15000000D02*
G75*
G02*
X29424000Y-15000000I-576000J0D01*
G01*
X29424000Y-15000000D02*
G75*
G02*
X30576000Y-15000000I576000J0D01*
G01*
X0Y-23000000D02*
G75*
G02*
X23000000Y0I23000000J0D01*
G01*
X204000000Y-158000000D02*
X204000000Y-21999997D01*
X163500000Y-56000000D02*
G75*
G02*
X160500000Y-56000000I-1500000J0D01*
G01*
X160500000Y-56000000D02*
G75*
G02*
X163500000Y-56000000I1500000J0D01*
G01*
X190500000Y-15000000D02*
G75*
G02*
X187500000Y-15000000I-1500000J0D01*
G01*
X187500000Y-15000000D02*
G75*
G02*
X190500000Y-15000000I1500000J0D01*
G01*
X23000000Y0D02*
X182000003Y0D01*
X11500000Y-148000000D02*
G75*
G02*
X8500000Y-148000000I-1500000J0D01*
G01*
X8500000Y-148000000D02*
G75*
G02*
X11500000Y-148000000I1500000J0D01*
G01*
X180576000Y-148000000D02*
G75*
G02*
X179424000Y-148000000I-576000J0D01*
G01*
X179424000Y-148000000D02*
G75*
G02*
X180576000Y-148000000I576000J0D01*
G01*
X195500000Y-148000000D02*
G75*
G02*
X192500000Y-148000000I-1500000J0D01*
G01*
X192500000Y-148000000D02*
G75*
G02*
X195500000Y-148000000I1500000J0D01*
G01*
M02*
