M48
; DRILL file {KiCad 8.0.3} date 2024-06-23T20:05:29+0200
; FORMAT={-:-/ absolute / metric / decimal}
; #@! TF.CreationDate,2024-06-23T20:05:29+02:00
; #@! TF.GenerationSoftware,Kicad,Pcbnew,8.0.3
; #@! TF.FileFunction,Plated,1,4,PTH
FMAT,2
METRIC
; #@! TA.AperFunction,Plated,PTH,ViaDrill
T1C0.300
; #@! TA.AperFunction,Plated,PTH,ComponentDrill
T2C0.700
; #@! TA.AperFunction,Plated,PTH,ComponentDrill
T3C0.800
%
G90
G05
T1
X4.575Y-76.75
X4.6Y-81.25
X16.7Y-79.1
X23.75Y-58.25
X26.25Y-58.25
X27.3Y-82.8
X30.4Y-85.9
X36.35Y-85.65
X36.4Y-84.1
X37.625Y-37.55
X37.625Y-38.55
X37.675Y-40.525
X37.725Y-41.6
X38.725Y-34.05
X38.775Y-58.275
X38.8Y-35.0
X39.9Y-24.525
X40.275Y-40.55
X40.275Y-41.625
X40.3Y-37.525
X40.325Y-38.45
X41.25Y-58.275
X41.725Y-40.525
X41.725Y-41.575
X42.0Y-79.325
X43.175Y-23.35
X44.3Y-40.55
X44.3Y-41.6
X44.575Y-87.475
X46.1Y-90.0
X46.325Y-24.525
X47.275Y-81.975
X47.3Y-81.025
X47.35Y-86.25
X47.35Y-89.975
X47.825Y-78.1
X49.375Y-79.75
X49.4Y-78.1
X51.1Y-78.35
X51.95Y-78.325
X53.125Y-118.625
X53.125Y-126.625
X53.175Y-134.625
X53.175Y-142.625
X53.175Y-150.625
X55.7Y-45.2
X56.1Y-87.2
X56.5Y-86.1
X57.075Y-91.775
X57.925Y-8.975
X58.5Y-91.1
X58.7Y-5.85
X60.0Y-86.1
X60.1Y-87.2
X60.1Y-119.05
X60.1Y-127.0
X60.1Y-135.15
X60.1Y-143.075
X60.1Y-151.2
X60.325Y-80.725
X60.95Y-82.1
X61.4Y-91.975
X62.2Y-48.6
X62.2Y-127.025
X62.2Y-135.15
X62.2Y-151.225
X62.225Y-119.1
X62.225Y-143.075
X62.8Y-77.65
X63.3Y-83.575
X67.6Y-112.1
X67.9Y-121.1
X68.7Y-129.8
X69.5Y-55.8
X73.8Y-5.075
X75.3Y-13.5
X75.45Y-63.0
X78.25Y-5.0
X80.15Y-63.0
X100.425Y-129.75
X100.45Y-131.25
X101.0Y-106.175
X101.025Y-104.625
X101.375Y-103.4
X104.925Y-131.25
X104.95Y-129.75
X106.4Y-126.7
X107.5Y-142.7
X108.6Y-126.4
X109.8Y-125.2
X110.225Y-128.575
X113.4Y-102.0
X114.7Y-146.0
X115.5Y-147.8
X116.0Y-144.625
X117.325Y-125.025
X117.375Y-122.4
X120.675Y-126.275
X123.75Y-55.675
X123.925Y-142.05
X123.925Y-143.35
X123.925Y-144.625
X123.925Y-145.9
X124.5Y-78.8
X125.2Y-85.6
X125.25Y-84.2
X125.75Y-4.775
X126.25Y-58.4
X127.25Y-16.15
X127.3Y-20.5
X129.225Y-119.1
X130.125Y-120.775
X130.25Y-4.6
X130.575Y-122.475
X130.625Y-79.35
X131.4Y-132.925
X133.275Y-88.25
X134.3Y-92.9
X134.8Y-90.0
X134.9Y-107.6
X135.1Y-104.6
X136.05Y-81.75
X136.15Y-86.125
X136.325Y-77.875
X136.325Y-79.775
X137.1Y-102.6
X137.55Y-80.85
X137.875Y-78.0
X137.875Y-79.75
X138.2Y-18.0
X138.4Y-97.5
X138.7Y-93.2
X138.7Y-95.85
X138.75Y-55.7
X139.2Y-79.0
X139.8Y-93.0
X141.2Y-84.5
X141.2Y-85.6
X141.2Y-93.2
X141.2Y-96.3
X141.25Y-58.475
X141.45Y-79.0
X141.7Y-87.3
X141.75Y-9.05
X141.8Y-86.3
X142.2Y-92.9
X142.6Y-107.6
X142.65Y-5.85
X142.8Y-85.0
X143.1Y-93.1
X143.1Y-96.3
X143.2Y-86.8
X144.0Y-91.4
X144.3Y-73.775
X144.3Y-83.0
X144.3Y-84.5
X144.775Y-92.775
X145.0Y-96.3
X145.825Y-91.75
X146.4Y-79.3
X146.775Y-91.825
X147.575Y-96.5
X149.1Y-18.0
X149.1Y-80.325
X149.475Y-77.0
X149.825Y-81.975
X149.925Y-96.65
X150.9Y-86.1
X150.9Y-87.2
X150.975Y-81.875
X151.075Y-79.575
X151.247Y-72.0
X151.31Y-69.91
X152.2Y-92.7
X152.3Y-91.0
X152.4Y-89.0
X153.325Y-141.375
X153.35Y-117.375
X153.35Y-149.375
X153.375Y-133.4
X153.45Y-125.375
X155.8Y-72.0
X155.9Y-69.9
X156.5Y-82.525
X159.8Y-146.3
X160.6Y-138.1
X162.2Y-120.225
X162.3Y-128.35
X162.3Y-136.275
X162.3Y-144.25
X162.3Y-152.225
X164.275Y-120.175
X164.3Y-128.425
X164.3Y-136.35
X164.3Y-144.325
X164.4Y-152.325
X165.55Y-26.75
X165.55Y-29.3
X165.65Y-31.875
X166.975Y-133.0
X167.1Y-33.125
X167.125Y-25.425
X167.15Y-55.375
X167.6Y-43.25
X168.45Y-38.9
X168.775Y-125.275
X169.65Y-55.4
X170.525Y-117.7
X171.875Y-70.925
X171.9Y-69.9
X171.95Y-81.85
X171.95Y-83.225
X177.275Y-83.075
X177.3Y-81.775
X177.375Y-69.8
X177.375Y-70.975
X184.725Y-51.35
X184.9Y-59.175
X185.35Y-78.925
X186.525Y-52.8
X186.525Y-54.975
X186.575Y-56.525
X187.35Y-83.6
X187.5Y-81.575
X187.625Y-79.05
X189.45Y-68.7
X189.65Y-78.925
X189.725Y-81.6
X189.725Y-83.575
X190.0Y-71.85
X190.475Y-68.7
X191.75Y-81.675
X191.775Y-78.925
X192.3Y-68.95
X192.3Y-71.825
X200.3Y-79.55
T2
G00X57.775Y-4.9
M15
G01X57.775Y-4.7
M16
G05
G00X62.225Y-4.9
M15
G01X62.225Y-4.7
M16
G05
G00X141.775Y-4.9
M15
G01X141.775Y-4.7
M16
G05
G00X146.225Y-4.9
M15
G01X146.225Y-4.7
M16
G05
T3
G00X55.825Y-2.15
M15
G01X55.825Y-1.45
M16
G05
G00X64.175Y-2.15
M15
G01X64.175Y-1.45
M16
G05
G00X139.825Y-2.15
M15
G01X139.825Y-1.45
M16
G05
G00X148.175Y-2.15
M15
G01X148.175Y-1.45
M16
G05
M30
