%TF.GenerationSoftware,KiCad,Pcbnew,8.0.3*%
%TF.CreationDate,2024-06-22T00:29:56+02:00*%
%TF.ProjectId,Pilot,50696c6f-742e-46b6-9963-61645f706362,rev?*%
%TF.SameCoordinates,Original*%
%TF.FileFunction,Copper,L4,Bot*%
%TF.FilePolarity,Positive*%
%FSLAX46Y46*%
G04 Gerber Fmt 4.6, Leading zero omitted, Abs format (unit mm)*
G04 Created by KiCad (PCBNEW 8.0.3) date 2024-06-22 00:29:56*
%MOMM*%
%LPD*%
G01*
G04 APERTURE LIST*
G04 Aperture macros list*
%AMRoundRect*
0 Rectangle with rounded corners*
0 $1 Rounding radius*
0 $2 $3 $4 $5 $6 $7 $8 $9 X,Y pos of 4 corners*
0 Add a 4 corners polygon primitive as box body*
4,1,4,$2,$3,$4,$5,$6,$7,$8,$9,$2,$3,0*
0 Add four circle primitives for the rounded corners*
1,1,$1+$1,$2,$3*
1,1,$1+$1,$4,$5*
1,1,$1+$1,$6,$7*
1,1,$1+$1,$8,$9*
0 Add four rect primitives between the rounded corners*
20,1,$1+$1,$2,$3,$4,$5,0*
20,1,$1+$1,$4,$5,$6,$7,0*
20,1,$1+$1,$6,$7,$8,$9,0*
20,1,$1+$1,$8,$9,$2,$3,0*%
G04 Aperture macros list end*
%TA.AperFunction,ComponentPad*%
%ADD10O,1.200000X1.900000*%
%TD*%
%TA.AperFunction,ComponentPad*%
%ADD11C,1.450000*%
%TD*%
%TA.AperFunction,SMDPad,CuDef*%
%ADD12RoundRect,0.750000X0.750000X-0.750000X0.750000X0.750000X-0.750000X0.750000X-0.750000X-0.750000X0*%
%TD*%
%TA.AperFunction,ViaPad*%
%ADD13C,0.600000*%
%TD*%
%TA.AperFunction,Conductor*%
%ADD14C,0.300000*%
%TD*%
%TA.AperFunction,Conductor*%
%ADD15C,0.750000*%
%TD*%
%TA.AperFunction,Conductor*%
%ADD16C,0.500000*%
%TD*%
%TA.AperFunction,Conductor*%
%ADD17C,1.000000*%
%TD*%
G04 APERTURE END LIST*
D10*
%TO.P,J20,6,Shield*%
%TO.N,unconnected-(J20-Shield-Pad6)_2*%
X63500000Y-1562500D03*
D11*
%TO.N,unconnected-(J20-Shield-Pad6)_0*%
X62500000Y-4262500D03*
%TO.N,unconnected-(J20-Shield-Pad6)_5*%
X57500000Y-4262500D03*
D10*
%TO.N,unconnected-(J20-Shield-Pad6)_1*%
X56500000Y-1562500D03*
%TD*%
%TO.P,J14,6,Shield*%
%TO.N,unconnected-(J14-Shield-Pad6)_5*%
X147500000Y-1562500D03*
D11*
%TO.N,unconnected-(J14-Shield-Pad6)*%
X146500000Y-4262500D03*
%TO.N,unconnected-(J14-Shield-Pad6)_2*%
X141500000Y-4262500D03*
D10*
%TO.N,unconnected-(J14-Shield-Pad6)_1*%
X140500000Y-1562500D03*
%TD*%
D12*
%TO.P,J21,1,Pin_1*%
%TO.N,BAT-*%
X200000000Y-104000000D03*
%TO.P,J21,2,Pin_2*%
%TO.N,BAT+*%
X200000000Y-96000000D03*
%TD*%
D13*
%TO.N,GND*%
X192300000Y-71825000D03*
X58700000Y-5500000D03*
X100425000Y-129750000D03*
X41725000Y-40525000D03*
X57925000Y-8975000D03*
X4600000Y-81250000D03*
X164275000Y-120175000D03*
X36575000Y-86800000D03*
X123925000Y-144625000D03*
X141450000Y-79000000D03*
X126050000Y-87625000D03*
X62200000Y-151225000D03*
X171875000Y-70925000D03*
X44575000Y-87475000D03*
X164300000Y-144325000D03*
X125750000Y-4775000D03*
X62225000Y-119100000D03*
X126050000Y-82100000D03*
X47350000Y-86250000D03*
X171950000Y-81850000D03*
X177275000Y-83075000D03*
X57075000Y-91775000D03*
X186525000Y-54975000D03*
X177375000Y-69800000D03*
X129225000Y-119100000D03*
X62200000Y-127025000D03*
X44300000Y-41600000D03*
X138750000Y-55700000D03*
X123925000Y-143350000D03*
X130625000Y-79350000D03*
X38775000Y-58275000D03*
X137550000Y-80850000D03*
X38800000Y-35000000D03*
X164300000Y-136350000D03*
X47825000Y-78100000D03*
X167100000Y-33125000D03*
X40275000Y-41625000D03*
X62225000Y-143075000D03*
X136150000Y-86125000D03*
X44300000Y-40550000D03*
X41725000Y-41575000D03*
X104950000Y-129750000D03*
X37725000Y-41600000D03*
X115500000Y-147800000D03*
X75450000Y-63000000D03*
X37675000Y-40525000D03*
X62200000Y-135150000D03*
X133275000Y-88250000D03*
X23750000Y-58250000D03*
X136325000Y-77875000D03*
X47300000Y-81025000D03*
X164300000Y-128425000D03*
X80150000Y-63000000D03*
X165650000Y-31875000D03*
X123750000Y-55675000D03*
X186575000Y-56525000D03*
X177300000Y-81775000D03*
X192300000Y-68950000D03*
X200300000Y-79550000D03*
X171950000Y-83225000D03*
X51950000Y-78325000D03*
X141750000Y-9050000D03*
X116000000Y-144625000D03*
X142675000Y-5500000D03*
X123925000Y-142050000D03*
X145825000Y-91750000D03*
X164400000Y-152325000D03*
X73800000Y-5075000D03*
X42000000Y-79325000D03*
X184900000Y-59175000D03*
X36575000Y-83000000D03*
X171900000Y-69900000D03*
X167125000Y-25425000D03*
X60950000Y-82100000D03*
X186525000Y-52800000D03*
X149825000Y-81975000D03*
X40275000Y-40550000D03*
X101025000Y-104625000D03*
X136325000Y-79775000D03*
X123925000Y-145900000D03*
X184725000Y-51350000D03*
X165550000Y-26750000D03*
X120675000Y-126275000D03*
X177375000Y-70975000D03*
X165550000Y-29300000D03*
X167150000Y-55375000D03*
%TO.N,+3.3V*%
X185350000Y-78925000D03*
X153350000Y-117375000D03*
X191775000Y-78925000D03*
X60100000Y-135150000D03*
X38725000Y-34050000D03*
X49375000Y-79750000D03*
X61400000Y-91975000D03*
X153350000Y-149375000D03*
X51100000Y-78350000D03*
X117375000Y-122400000D03*
X189725000Y-81600000D03*
X53175000Y-142625000D03*
X101375000Y-103400000D03*
X49400000Y-78100000D03*
X40325000Y-38450000D03*
X130575000Y-122475000D03*
X46100000Y-90000000D03*
X162300000Y-144250000D03*
X100450000Y-131250000D03*
X190000000Y-71850000D03*
X117325000Y-125025000D03*
X130125000Y-120775000D03*
X4575000Y-76750000D03*
X151075000Y-79575000D03*
X149100000Y-80325000D03*
X137875000Y-79750000D03*
X47350000Y-89975000D03*
X189650000Y-78925000D03*
X162200000Y-120225000D03*
X190475000Y-68700000D03*
X189450000Y-68700000D03*
X60100000Y-143075000D03*
X146775000Y-91825000D03*
X162300000Y-128350000D03*
X162300000Y-136275000D03*
X58500000Y-91100000D03*
X156500000Y-82525000D03*
X53125000Y-126625000D03*
X46325000Y-24525000D03*
X39900000Y-24525000D03*
X149475000Y-77000000D03*
X134800000Y-90000000D03*
X101000000Y-106175000D03*
X37625000Y-38550000D03*
X60100000Y-151200000D03*
X47275000Y-81975000D03*
X187350000Y-83600000D03*
X189725000Y-83575000D03*
X169650000Y-55400000D03*
X40300000Y-37525000D03*
X153325000Y-141375000D03*
X60100000Y-119050000D03*
X37625000Y-37550000D03*
X60100000Y-127000000D03*
X137875000Y-78000000D03*
X141250000Y-58475000D03*
X43175000Y-23350000D03*
X62800000Y-77650000D03*
X53175000Y-134625000D03*
X114700000Y-146000000D03*
X136050000Y-81750000D03*
X63300000Y-83575000D03*
X153450000Y-125375000D03*
X162300000Y-152225000D03*
X53125000Y-118625000D03*
X78250000Y-5000000D03*
X41250000Y-58275000D03*
X153375000Y-133400000D03*
X126250000Y-58400000D03*
X53175000Y-150625000D03*
X139200000Y-79000000D03*
X110225000Y-128575000D03*
X26250000Y-58250000D03*
X130250000Y-4600000D03*
X187625000Y-79050000D03*
X144300000Y-73775000D03*
X191750000Y-81675000D03*
X104925000Y-131250000D03*
X187500000Y-81575000D03*
X60325000Y-80725000D03*
%TO.N,ON_BUTTON*%
X113400000Y-102000000D03*
X150975000Y-81875000D03*
%TO.N,MENU_BUTTON*%
X67600000Y-112100000D03*
X141200000Y-84500000D03*
%TO.N,PAGE_UP_BUTTON*%
X134300000Y-92900000D03*
X68700000Y-129800000D03*
%TO.N,PAGE_DOWN_BUTTON*%
X138700000Y-93200000D03*
X138700000Y-95850000D03*
%TO.N,BACK_BUTTON*%
X139800000Y-93000000D03*
X138400000Y-97500000D03*
%TO.N,HOME_BUTTON*%
X67900000Y-121100000D03*
X141200000Y-85600000D03*
%TO.N,UP_BUTTON*%
X150900000Y-86100000D03*
X170525000Y-117700000D03*
%TO.N,RIGHT_BUTTON*%
X152300000Y-91000000D03*
X160600000Y-138100000D03*
%TO.N,LEFT_BUTTON*%
X150900000Y-87200000D03*
X168775000Y-125275000D03*
%TO.N,DOWN_BUTTON*%
X159800000Y-146300000D03*
X152200000Y-92700000D03*
%TO.N,OK_BUTTON*%
X152400000Y-89000000D03*
X166975000Y-133000000D03*
%TO.N,+5V*%
X62200000Y-48600000D03*
X69500000Y-55800000D03*
%TO.N,USB2_5V*%
X149100000Y-18000000D03*
X138200000Y-18000000D03*
%TO.N,BATTERY_SDA*%
X155900000Y-69900000D03*
X151309817Y-69909817D03*
X142800000Y-85000000D03*
X147575000Y-96500000D03*
%TO.N,TOUCHSCREEN_INT*%
X146400000Y-79300000D03*
X131400000Y-132925000D03*
%TO.N,BATTERY_SCL*%
X144300000Y-84500000D03*
X155800000Y-72000000D03*
X151246880Y-72000000D03*
X149925000Y-96650000D03*
%TO.N,TOUCHSCREEN_RESET*%
X144300000Y-83000000D03*
X107500000Y-142700000D03*
%TO.N,LCD_RESET*%
X106400000Y-126700000D03*
X141800000Y-86300000D03*
%TO.N,LCD_DC*%
X109800000Y-125200000D03*
X143200000Y-86800000D03*
%TO.N,LCD_CS*%
X108600000Y-126400000D03*
X141700000Y-87300000D03*
%TO.N,LCD_LED*%
X135100000Y-104600000D03*
X144000000Y-91400000D03*
%TO.N,SPI1_MOSI*%
X143100000Y-93100000D03*
X143100000Y-96300000D03*
%TO.N,SPI1_SCK*%
X141200000Y-96300000D03*
X141200000Y-93200000D03*
%TO.N,LEFT_GIMBAL_V*%
X30400000Y-85900000D03*
X27300000Y-82800000D03*
%TO.N,RIGHT_GIMBAL_H*%
X60100000Y-87200000D03*
X56100000Y-87200000D03*
%TO.N,RIGHT_GIMBAL_V*%
X56500000Y-86100000D03*
X60000000Y-86100000D03*
%TO.N,BAT-*%
X167600000Y-43250000D03*
%TO.N,BAT+*%
X168450000Y-38900000D03*
%TO.N,Net-(SW1-B)*%
X127300000Y-20500000D03*
X127250000Y-16150000D03*
%TO.N,Net-(SW2-B)*%
X124500000Y-78800000D03*
X16700000Y-79100000D03*
%TO.N,FLASH_CS*%
X145000000Y-96300000D03*
X134900000Y-107600000D03*
X142600000Y-107600000D03*
X144775000Y-92775000D03*
%TO.N,Net-(SW3-B)*%
X75300000Y-13500000D03*
X55700000Y-45200000D03*
%TO.N,SPI1_MISO*%
X142200000Y-92900000D03*
X137100000Y-102600000D03*
%TD*%
D14*
%TO.N,ON_BUTTON*%
X150975000Y-81280761D02*
X147594239Y-77900000D01*
X150975000Y-81875000D02*
X150975000Y-81280761D01*
X139100000Y-77900000D02*
X133900000Y-72700000D01*
X133900000Y-72700000D02*
X113400000Y-93200000D01*
X113400000Y-93200000D02*
X113400000Y-102000000D01*
X147594239Y-77900000D02*
X139100000Y-77900000D01*
%TO.N,MENU_BUTTON*%
X71600000Y-108100000D02*
X67600000Y-112100000D01*
X139225000Y-84500000D02*
X126150000Y-97575000D01*
X141200000Y-84500000D02*
X139225000Y-84500000D01*
X122125000Y-97575000D02*
X111600000Y-108100000D01*
X126150000Y-97575000D02*
X122125000Y-97575000D01*
X111600000Y-108100000D02*
X71600000Y-108100000D01*
%TO.N,PAGE_UP_BUTTON*%
X134100000Y-93100000D02*
X134100000Y-94100000D01*
X86000000Y-112500000D02*
X68700000Y-129800000D01*
X134100000Y-94100000D02*
X115700000Y-112500000D01*
X115700000Y-112500000D02*
X86000000Y-112500000D01*
X134300000Y-92900000D02*
X134100000Y-93100000D01*
%TO.N,PAGE_DOWN_BUTTON*%
X138700000Y-95850000D02*
X138700000Y-93200000D01*
%TO.N,BACK_BUTTON*%
X139800000Y-93000000D02*
X139800000Y-96675000D01*
X138975000Y-97500000D02*
X138400000Y-97500000D01*
X139800000Y-96675000D02*
X138975000Y-97500000D01*
%TO.N,HOME_BUTTON*%
X78900000Y-110100000D02*
X67900000Y-121100000D01*
X141200000Y-85600000D02*
X140200000Y-85600000D01*
X115700000Y-110100000D02*
X78900000Y-110100000D01*
X140200000Y-85600000D02*
X115700000Y-110100000D01*
%TO.N,UP_BUTTON*%
X170525000Y-90650000D02*
X165975000Y-86100000D01*
X170525000Y-117700000D02*
X170525000Y-90650000D01*
X165975000Y-86100000D02*
X150900000Y-86100000D01*
%TO.N,RIGHT_BUTTON*%
X160600000Y-99300000D02*
X160600000Y-138100000D01*
X152300000Y-91000000D02*
X160600000Y-99300000D01*
%TO.N,LEFT_BUTTON*%
X160600000Y-87200000D02*
X150900000Y-87200000D01*
X168775000Y-95375000D02*
X160600000Y-87200000D01*
X168775000Y-125275000D02*
X168775000Y-95375000D01*
%TO.N,DOWN_BUTTON*%
X158300000Y-144800000D02*
X159800000Y-146300000D01*
X158300000Y-98800000D02*
X158300000Y-144800000D01*
X152200000Y-92700000D02*
X158300000Y-98800000D01*
%TO.N,OK_BUTTON*%
X166950000Y-132975000D02*
X166975000Y-133000000D01*
X152400000Y-89000000D02*
X166950000Y-103550000D01*
X166950000Y-103550000D02*
X166950000Y-132975000D01*
D15*
%TO.N,+5V*%
X62200000Y-48600000D02*
X69400000Y-55800000D01*
X69400000Y-55800000D02*
X69500000Y-55800000D01*
D16*
%TO.N,USB2_5V*%
X138200000Y-18000000D02*
X149100000Y-18000000D01*
D14*
%TO.N,BATTERY_SDA*%
X155900000Y-69900000D02*
X151319634Y-69900000D01*
X151319634Y-69900000D02*
X151309817Y-69909817D01*
X147575000Y-96500000D02*
X147575000Y-89775000D01*
X147575000Y-89775000D02*
X142800000Y-85000000D01*
%TO.N,TOUCHSCREEN_INT*%
X143650000Y-84769239D02*
X143650000Y-82050000D01*
X148550000Y-97625000D02*
X148550000Y-89669239D01*
X147975000Y-116350000D02*
X147975000Y-98200000D01*
X148550000Y-89669239D02*
X143650000Y-84769239D01*
X143650000Y-82050000D02*
X146400000Y-79300000D01*
X131400000Y-132925000D02*
X147975000Y-116350000D01*
X147975000Y-98200000D02*
X148550000Y-97625000D01*
%TO.N,BATTERY_SCL*%
X144600000Y-84500000D02*
X144300000Y-84500000D01*
X149925000Y-96650000D02*
X149900000Y-96625000D01*
X149900000Y-89800000D02*
X144600000Y-84500000D01*
X149900000Y-96625000D02*
X149900000Y-89800000D01*
X155800000Y-72000000D02*
X151246880Y-72000000D01*
%TO.N,TOUCHSCREEN_RESET*%
X130800000Y-142700000D02*
X151100000Y-122400000D01*
X151100000Y-89800000D02*
X144300000Y-83000000D01*
X107500000Y-142700000D02*
X130800000Y-142700000D01*
X151100000Y-122400000D02*
X151100000Y-89800000D01*
%TO.N,LCD_RESET*%
X134950000Y-92625000D02*
X134950000Y-95050000D01*
X141275000Y-86300000D02*
X134950000Y-92625000D01*
X134950000Y-95050000D02*
X106400000Y-123600000D01*
X106400000Y-123600000D02*
X106400000Y-126700000D01*
X141800000Y-86300000D02*
X141275000Y-86300000D01*
%TO.N,LCD_DC*%
X136675000Y-93525000D02*
X136675000Y-98325000D01*
X136675000Y-98325000D02*
X109800000Y-125200000D01*
X143200000Y-86800000D02*
X143200000Y-87000000D01*
X143200000Y-87000000D02*
X136675000Y-93525000D01*
%TO.N,LCD_CS*%
X108600000Y-126400000D02*
X108600000Y-123200000D01*
X135675000Y-96125000D02*
X135675000Y-93325000D01*
X108600000Y-123200000D02*
X135675000Y-96125000D01*
X135675000Y-93325000D02*
X141700000Y-87300000D01*
%TO.N,LCD_LED*%
X139700000Y-104600000D02*
X135100000Y-104600000D01*
X144000000Y-91400000D02*
X144000000Y-100300000D01*
X144000000Y-100300000D02*
X139700000Y-104600000D01*
%TO.N,SPI1_MOSI*%
X143100000Y-93100000D02*
X143100000Y-96300000D01*
%TO.N,SPI1_SCK*%
X141200000Y-93200000D02*
X141200000Y-96300000D01*
%TO.N,LEFT_GIMBAL_V*%
X30400000Y-85900000D02*
X27300000Y-82800000D01*
%TO.N,RIGHT_GIMBAL_H*%
X60100000Y-87200000D02*
X56100000Y-87200000D01*
%TO.N,RIGHT_GIMBAL_V*%
X56500000Y-86100000D02*
X60000000Y-86100000D01*
D17*
%TO.N,BAT-*%
X167600000Y-43250000D02*
X170750000Y-46400000D01*
X170750000Y-46400000D02*
X186050000Y-46400000D01*
X186050000Y-46400000D02*
X195100000Y-55450000D01*
X195100000Y-55450000D02*
X195100000Y-99100000D01*
X195100000Y-99100000D02*
X200000000Y-104000000D01*
%TO.N,BAT+*%
X186950000Y-38900000D02*
X168450000Y-38900000D01*
X200000000Y-96000000D02*
X197500000Y-93500000D01*
X197500000Y-93500000D02*
X197500000Y-49450000D01*
X197500000Y-49450000D02*
X186950000Y-38900000D01*
D14*
%TO.N,Net-(SW1-B)*%
X127300000Y-16200000D02*
X127250000Y-16150000D01*
X127300000Y-20500000D02*
X127300000Y-16200000D01*
%TO.N,Net-(SW2-B)*%
X119100000Y-73400000D02*
X119000000Y-73400000D01*
X21600000Y-73400000D02*
X16600000Y-78400000D01*
X16600000Y-78400000D02*
X16600000Y-79000000D01*
X16600000Y-79000000D02*
X16700000Y-79100000D01*
X124500000Y-78800000D02*
X119100000Y-73400000D01*
X119000000Y-73400000D02*
X21600000Y-73400000D01*
%TO.N,FLASH_CS*%
X144775000Y-92775000D02*
X145000000Y-93000000D01*
X145000000Y-93000000D02*
X145000000Y-96300000D01*
X134900000Y-107600000D02*
X142600000Y-107600000D01*
%TO.N,Net-(SW3-B)*%
X55700000Y-45200000D02*
X75300000Y-25600000D01*
X75300000Y-25600000D02*
X75300000Y-13500000D01*
%TO.N,SPI1_MISO*%
X137100000Y-102600000D02*
X137200000Y-102600000D01*
X137200000Y-102600000D02*
X142200000Y-97600000D01*
X142200000Y-97600000D02*
X142200000Y-92900000D01*
%TD*%
M02*
