%TF.GenerationSoftware,KiCad,Pcbnew,8.0.3*%
%TF.CreationDate,2024-06-23T20:05:21+02:00*%
%TF.ProjectId,Pilot,50696c6f-742e-46b6-9963-61645f706362,rev?*%
%TF.SameCoordinates,Original*%
%TF.FileFunction,Copper,L1,Top*%
%TF.FilePolarity,Positive*%
%FSLAX46Y46*%
G04 Gerber Fmt 4.6, Leading zero omitted, Abs format (unit mm)*
G04 Created by KiCad (PCBNEW 8.0.3) date 2024-06-23 20:05:21*
%MOMM*%
%LPD*%
G01*
G04 APERTURE LIST*
G04 Aperture macros list*
%AMRoundRect*
0 Rectangle with rounded corners*
0 $1 Rounding radius*
0 $2 $3 $4 $5 $6 $7 $8 $9 X,Y pos of 4 corners*
0 Add a 4 corners polygon primitive as box body*
4,1,4,$2,$3,$4,$5,$6,$7,$8,$9,$2,$3,0*
0 Add four circle primitives for the rounded corners*
1,1,$1+$1,$2,$3*
1,1,$1+$1,$4,$5*
1,1,$1+$1,$6,$7*
1,1,$1+$1,$8,$9*
0 Add four rect primitives between the rounded corners*
20,1,$1+$1,$2,$3,$4,$5,0*
20,1,$1+$1,$4,$5,$6,$7,0*
20,1,$1+$1,$6,$7,$8,$9,0*
20,1,$1+$1,$8,$9,$2,$3,0*%
G04 Aperture macros list end*
%TA.AperFunction,ComponentPad*%
%ADD10O,1.300000X2.000000*%
%TD*%
%TA.AperFunction,SMDPad,CuDef*%
%ADD11R,1.000000X1.900000*%
%TD*%
%TA.AperFunction,ComponentPad*%
%ADD12O,1.000000X1.300000*%
%TD*%
%TA.AperFunction,SMDPad,CuDef*%
%ADD13R,1.800000X1.900000*%
%TD*%
%TA.AperFunction,SMDPad,CuDef*%
%ADD14R,0.350000X1.350000*%
%TD*%
%TA.AperFunction,SMDPad,CuDef*%
%ADD15RoundRect,0.225000X-0.225000X-0.250000X0.225000X-0.250000X0.225000X0.250000X-0.225000X0.250000X0*%
%TD*%
%TA.AperFunction,SMDPad,CuDef*%
%ADD16RoundRect,0.140000X0.170000X-0.140000X0.170000X0.140000X-0.170000X0.140000X-0.170000X-0.140000X0*%
%TD*%
%TA.AperFunction,SMDPad,CuDef*%
%ADD17RoundRect,0.250001X2.049999X0.799999X-2.049999X0.799999X-2.049999X-0.799999X2.049999X-0.799999X0*%
%TD*%
%TA.AperFunction,SMDPad,CuDef*%
%ADD18RoundRect,0.250000X-1.150000X0.250000X-1.150000X-0.250000X1.150000X-0.250000X1.150000X0.250000X0*%
%TD*%
%TA.AperFunction,SMDPad,CuDef*%
%ADD19RoundRect,0.150000X-0.700000X0.150000X-0.700000X-0.150000X0.700000X-0.150000X0.700000X0.150000X0*%
%TD*%
%TA.AperFunction,SMDPad,CuDef*%
%ADD20RoundRect,0.140000X-0.170000X0.140000X-0.170000X-0.140000X0.170000X-0.140000X0.170000X0.140000X0*%
%TD*%
%TA.AperFunction,SMDPad,CuDef*%
%ADD21R,0.700000X1.500000*%
%TD*%
%TA.AperFunction,SMDPad,CuDef*%
%ADD22R,1.000000X0.800000*%
%TD*%
%TA.AperFunction,SMDPad,CuDef*%
%ADD23R,2.400000X2.000000*%
%TD*%
%TA.AperFunction,SMDPad,CuDef*%
%ADD24RoundRect,0.135000X-0.185000X0.135000X-0.185000X-0.135000X0.185000X-0.135000X0.185000X0.135000X0*%
%TD*%
%TA.AperFunction,SMDPad,CuDef*%
%ADD25RoundRect,0.200000X-0.200000X-0.275000X0.200000X-0.275000X0.200000X0.275000X-0.200000X0.275000X0*%
%TD*%
%TA.AperFunction,SMDPad,CuDef*%
%ADD26RoundRect,0.225000X0.225000X0.250000X-0.225000X0.250000X-0.225000X-0.250000X0.225000X-0.250000X0*%
%TD*%
%TA.AperFunction,SMDPad,CuDef*%
%ADD27RoundRect,0.140000X-0.140000X-0.170000X0.140000X-0.170000X0.140000X0.170000X-0.140000X0.170000X0*%
%TD*%
%TA.AperFunction,SMDPad,CuDef*%
%ADD28RoundRect,0.140000X0.140000X0.170000X-0.140000X0.170000X-0.140000X-0.170000X0.140000X-0.170000X0*%
%TD*%
%TA.AperFunction,SMDPad,CuDef*%
%ADD29RoundRect,0.250001X0.899999X-0.499999X0.899999X0.499999X-0.899999X0.499999X-0.899999X-0.499999X0*%
%TD*%
%TA.AperFunction,SMDPad,CuDef*%
%ADD30RoundRect,0.175000X1.675000X-0.175000X1.675000X0.175000X-1.675000X0.175000X-1.675000X-0.175000X0*%
%TD*%
%TA.AperFunction,SMDPad,CuDef*%
%ADD31RoundRect,0.155500X-0.397000X0.155500X-0.397000X-0.155500X0.397000X-0.155500X0.397000X0.155500X0*%
%TD*%
%TA.AperFunction,SMDPad,CuDef*%
%ADD32RoundRect,0.250000X1.150000X-0.250000X1.150000X0.250000X-1.150000X0.250000X-1.150000X-0.250000X0*%
%TD*%
%TA.AperFunction,SMDPad,CuDef*%
%ADD33RoundRect,0.150000X0.700000X-0.150000X0.700000X0.150000X-0.700000X0.150000X-0.700000X-0.150000X0*%
%TD*%
%TA.AperFunction,SMDPad,CuDef*%
%ADD34RoundRect,0.147500X0.172500X-0.147500X0.172500X0.147500X-0.172500X0.147500X-0.172500X-0.147500X0*%
%TD*%
%TA.AperFunction,SMDPad,CuDef*%
%ADD35RoundRect,0.250000X0.650000X-1.000000X0.650000X1.000000X-0.650000X1.000000X-0.650000X-1.000000X0*%
%TD*%
%TA.AperFunction,SMDPad,CuDef*%
%ADD36RoundRect,0.150000X-0.650000X-0.150000X0.650000X-0.150000X0.650000X0.150000X-0.650000X0.150000X0*%
%TD*%
%TA.AperFunction,SMDPad,CuDef*%
%ADD37RoundRect,0.135000X0.135000X0.185000X-0.135000X0.185000X-0.135000X-0.185000X0.135000X-0.185000X0*%
%TD*%
%TA.AperFunction,SMDPad,CuDef*%
%ADD38RoundRect,0.135000X0.185000X-0.135000X0.185000X0.135000X-0.185000X0.135000X-0.185000X-0.135000X0*%
%TD*%
%TA.AperFunction,SMDPad,CuDef*%
%ADD39C,1.000000*%
%TD*%
%TA.AperFunction,SMDPad,CuDef*%
%ADD40C,0.700000*%
%TD*%
%TA.AperFunction,SMDPad,CuDef*%
%ADD41C,1.200000*%
%TD*%
%TA.AperFunction,SMDPad,CuDef*%
%ADD42R,5.500000X1.430000*%
%TD*%
%TA.AperFunction,SMDPad,CuDef*%
%ADD43RoundRect,0.375000X-0.375000X0.625000X-0.375000X-0.625000X0.375000X-0.625000X0.375000X0.625000X0*%
%TD*%
%TA.AperFunction,SMDPad,CuDef*%
%ADD44RoundRect,0.500000X-1.400000X0.500000X-1.400000X-0.500000X1.400000X-0.500000X1.400000X0.500000X0*%
%TD*%
%TA.AperFunction,SMDPad,CuDef*%
%ADD45RoundRect,0.135000X-0.135000X-0.185000X0.135000X-0.185000X0.135000X0.185000X-0.135000X0.185000X0*%
%TD*%
%TA.AperFunction,SMDPad,CuDef*%
%ADD46RoundRect,0.200000X0.200000X0.275000X-0.200000X0.275000X-0.200000X-0.275000X0.200000X-0.275000X0*%
%TD*%
%TA.AperFunction,SMDPad,CuDef*%
%ADD47RoundRect,0.250001X-0.899999X0.499999X-0.899999X-0.499999X0.899999X-0.499999X0.899999X0.499999X0*%
%TD*%
%TA.AperFunction,SMDPad,CuDef*%
%ADD48RoundRect,0.175000X-1.675000X0.175000X-1.675000X-0.175000X1.675000X-0.175000X1.675000X0.175000X0*%
%TD*%
%TA.AperFunction,SMDPad,CuDef*%
%ADD49RoundRect,0.250000X-0.250000X-1.150000X0.250000X-1.150000X0.250000X1.150000X-0.250000X1.150000X0*%
%TD*%
%TA.AperFunction,SMDPad,CuDef*%
%ADD50RoundRect,0.150000X-0.150000X-0.700000X0.150000X-0.700000X0.150000X0.700000X-0.150000X0.700000X0*%
%TD*%
%TA.AperFunction,SMDPad,CuDef*%
%ADD51RoundRect,0.250000X-0.650000X0.325000X-0.650000X-0.325000X0.650000X-0.325000X0.650000X0.325000X0*%
%TD*%
%TA.AperFunction,SMDPad,CuDef*%
%ADD52RoundRect,0.075000X-0.662500X-0.075000X0.662500X-0.075000X0.662500X0.075000X-0.662500X0.075000X0*%
%TD*%
%TA.AperFunction,SMDPad,CuDef*%
%ADD53RoundRect,0.075000X-0.075000X-0.662500X0.075000X-0.662500X0.075000X0.662500X-0.075000X0.662500X0*%
%TD*%
%TA.AperFunction,SMDPad,CuDef*%
%ADD54R,1.500000X0.700000*%
%TD*%
%TA.AperFunction,SMDPad,CuDef*%
%ADD55R,0.800000X1.000000*%
%TD*%
%TA.AperFunction,SMDPad,CuDef*%
%ADD56RoundRect,0.200000X-0.275000X0.200000X-0.275000X-0.200000X0.275000X-0.200000X0.275000X0.200000X0*%
%TD*%
%TA.AperFunction,SMDPad,CuDef*%
%ADD57RoundRect,0.218750X-0.256250X0.218750X-0.256250X-0.218750X0.256250X-0.218750X0.256250X0.218750X0*%
%TD*%
%TA.AperFunction,SMDPad,CuDef*%
%ADD58RoundRect,0.150000X0.675000X0.150000X-0.675000X0.150000X-0.675000X-0.150000X0.675000X-0.150000X0*%
%TD*%
%TA.AperFunction,SMDPad,CuDef*%
%ADD59RoundRect,0.150000X-0.150000X0.512500X-0.150000X-0.512500X0.150000X-0.512500X0.150000X0.512500X0*%
%TD*%
%TA.AperFunction,ViaPad*%
%ADD60C,0.600000*%
%TD*%
%TA.AperFunction,Conductor*%
%ADD61C,0.400000*%
%TD*%
%TA.AperFunction,Conductor*%
%ADD62C,0.200000*%
%TD*%
%TA.AperFunction,Conductor*%
%ADD63C,0.500000*%
%TD*%
%TA.AperFunction,Conductor*%
%ADD64C,0.300000*%
%TD*%
%TA.AperFunction,Conductor*%
%ADD65C,1.000000*%
%TD*%
%TA.AperFunction,Conductor*%
%ADD66C,1.500000*%
%TD*%
%TA.AperFunction,Conductor*%
%ADD67C,0.750000*%
%TD*%
%TA.AperFunction,Conductor*%
%ADD68C,0.261112*%
%TD*%
G04 APERTURE END LIST*
D10*
%TO.P,J20,6,Shield*%
%TO.N,unconnected-(J20-Shield-Pad6)_0*%
X55825000Y-1800000D03*
D11*
%TO.N,unconnected-(J20-Shield-Pad6)_3*%
X56825000Y-1800000D03*
D12*
%TO.N,unconnected-(J20-Shield-Pad6)*%
X57775000Y-4800000D03*
D13*
%TO.N,unconnected-(J20-Shield-Pad6)_4*%
X58850000Y-1808000D03*
%TO.N,unconnected-(J20-Shield-Pad6)_5*%
X61150000Y-1808000D03*
D12*
%TO.N,unconnected-(J20-Shield-Pad6)_2*%
X62225000Y-4800000D03*
D11*
%TO.N,unconnected-(J20-Shield-Pad6)_1*%
X63175000Y-1800000D03*
D10*
%TO.N,unconnected-(J20-Shield-Pad6)_6*%
X64175000Y-1800000D03*
D14*
%TO.P,J20,5,GND*%
%TO.N,GND*%
X58700000Y-4475000D03*
%TO.P,J20,4,ID*%
%TO.N,unconnected-(J20-ID-Pad4)*%
X59350000Y-4475000D03*
%TO.P,J20,3,D+*%
%TO.N,USB2_CONN+*%
X60000000Y-4475000D03*
%TO.P,J20,2,D-*%
%TO.N,USB2_CONN-*%
X60650000Y-4475000D03*
%TO.P,J20,1,VBUS*%
%TO.N,USB2_5V*%
X61300000Y-4475000D03*
%TD*%
D15*
%TO.P,C33,1*%
%TO.N,GND*%
X36405000Y-86800000D03*
%TO.P,C33,2*%
%TO.N,Net-(C33-Pad2)*%
X37955000Y-86800000D03*
%TD*%
%TO.P,C10,2*%
%TO.N,Net-(C10-Pad2)*%
X126793000Y-86800000D03*
%TO.P,C10,1*%
%TO.N,GND*%
X125243000Y-86800000D03*
%TD*%
%TO.P,C9,2*%
%TO.N,HSE_IN_1*%
X126793000Y-83000000D03*
%TO.P,C9,1*%
%TO.N,GND*%
X125243000Y-83000000D03*
%TD*%
%TO.P,C32,1*%
%TO.N,GND*%
X36405000Y-83000000D03*
%TO.P,C32,2*%
%TO.N,HSE_IN_2*%
X37955000Y-83000000D03*
%TD*%
D16*
%TO.P,C26,1*%
%TO.N,+3.3V*%
X48000000Y-81980000D03*
%TO.P,C26,2*%
%TO.N,GND*%
X48000000Y-81020000D03*
%TD*%
D17*
%TO.P,C34,1*%
%TO.N,Net-(U7-Vout+)*%
X183400000Y-70500000D03*
%TO.P,C34,2*%
%TO.N,GND*%
X174600000Y-70500000D03*
%TD*%
D18*
%TO.P,J10,MP*%
%TO.N,N/C*%
X155400000Y-128475000D03*
X155400000Y-123525000D03*
D19*
%TO.P,J10,2,Pin_2*%
%TO.N,LEFT_BUTTON*%
X152050000Y-126625000D03*
%TO.P,J10,1,Pin_1*%
%TO.N,+3.3V*%
X152050000Y-125375000D03*
%TD*%
D20*
%TO.P,C24,1*%
%TO.N,Net-(U5-NRST)*%
X45300000Y-86520000D03*
%TO.P,C24,2*%
%TO.N,GND*%
X45300000Y-87480000D03*
%TD*%
D21*
%TO.P,SW3,3,C*%
%TO.N,GND*%
X73750000Y-3730000D03*
%TO.P,SW3,2,B*%
%TO.N,Net-(SW3-B)*%
X75250000Y-3730000D03*
%TO.P,SW3,1,A*%
%TO.N,+3.3V*%
X78250000Y-3730000D03*
D22*
%TO.P,SW3,*%
%TO.N,*%
X72350000Y-870000D03*
X72350000Y-3080000D03*
X79650000Y-870000D03*
X79650000Y-3080000D03*
%TD*%
D17*
%TO.P,C35,1*%
%TO.N,+3.3V*%
X183400000Y-82500000D03*
%TO.P,C35,2*%
%TO.N,GND*%
X174600000Y-82500000D03*
%TD*%
D16*
%TO.P,C13,1*%
%TO.N,+3.3V*%
X60100000Y-134380000D03*
%TO.P,C13,2*%
%TO.N,PAGE_UP_BUTTON*%
X60100000Y-133420000D03*
%TD*%
D23*
%TO.P,Y2,1,1*%
%TO.N,Net-(C33-Pad2)*%
X41200000Y-86750000D03*
%TO.P,Y2,2,2*%
%TO.N,HSE_IN_2*%
X41200000Y-83050000D03*
%TD*%
D16*
%TO.P,C18,1*%
%TO.N,+3.3V*%
X162300000Y-143580000D03*
%TO.P,C18,2*%
%TO.N,RIGHT_BUTTON*%
X162300000Y-142620000D03*
%TD*%
D20*
%TO.P,C28,1*%
%TO.N,+3.3V*%
X60300000Y-81320000D03*
%TO.P,C28,2*%
%TO.N,GND*%
X60300000Y-82280000D03*
%TD*%
D24*
%TO.P,R29,1*%
%TO.N,USB2+*%
X65200000Y-75990000D03*
%TO.P,R29,2*%
%TO.N,Net-(U5-PA12)*%
X65200000Y-77010000D03*
%TD*%
D25*
%TO.P,R24,1*%
%TO.N,+3.3V*%
X118175000Y-122400000D03*
%TO.P,R24,2*%
%TO.N,FLASH_CS*%
X119825000Y-122400000D03*
%TD*%
D26*
%TO.P,C2,1*%
%TO.N,+3.3V*%
X137875000Y-78900000D03*
%TO.P,C2,2*%
%TO.N,GND*%
X136325000Y-78900000D03*
%TD*%
D16*
%TO.P,C23,1*%
%TO.N,GND*%
X115500000Y-146960000D03*
%TO.P,C23,2*%
%TO.N,+3.3V*%
X115500000Y-146000000D03*
%TD*%
D23*
%TO.P,Y1,1,1*%
%TO.N,Net-(C10-Pad2)*%
X130038000Y-86750000D03*
%TO.P,Y1,2,2*%
%TO.N,HSE_IN_1*%
X130038000Y-83050000D03*
%TD*%
D27*
%TO.P,C6,1*%
%TO.N,+3.3V*%
X139837000Y-79000000D03*
%TO.P,C6,2*%
%TO.N,GND*%
X140797000Y-79000000D03*
%TD*%
D16*
%TO.P,C21,1*%
%TO.N,+3.3V*%
X162300000Y-135600000D03*
%TO.P,C21,2*%
%TO.N,OK_BUTTON*%
X162300000Y-134640000D03*
%TD*%
D28*
%TO.P,C4,1*%
%TO.N,+3.3V*%
X146780000Y-91000000D03*
%TO.P,C4,2*%
%TO.N,GND*%
X145820000Y-91000000D03*
%TD*%
D29*
%TO.P,J13,MP*%
%TO.N,N/C*%
X100600000Y-118700000D03*
X100600000Y-133300000D03*
D30*
%TO.P,J13,8,Pin_8*%
%TO.N,LCD_LED*%
X102700000Y-120750000D03*
%TO.P,J13,7,Pin_7*%
%TO.N,SPI1_SCK*%
X102700000Y-122250000D03*
%TO.P,J13,6,Pin_6*%
%TO.N,SPI1_MOSI*%
X102700000Y-123750000D03*
%TO.P,J13,5,Pin_5*%
%TO.N,LCD_DC*%
X102700000Y-125250000D03*
%TO.P,J13,4,Pin_4*%
%TO.N,LCD_RESET*%
X102700000Y-126750000D03*
%TO.P,J13,3,Pin_3*%
%TO.N,LCD_CS*%
X102700000Y-128250000D03*
%TO.P,J13,2,Pin_2*%
%TO.N,GND*%
X102700000Y-129750000D03*
%TO.P,J13,1,Pin_1*%
%TO.N,+3.3V*%
X102700000Y-131250000D03*
%TD*%
D24*
%TO.P,R18,1*%
%TO.N,RIGHT_BUTTON*%
X164300000Y-142590000D03*
%TO.P,R18,2*%
%TO.N,GND*%
X164300000Y-143610000D03*
%TD*%
D31*
%TO.P,U9,1,CE*%
%TO.N,+3.3V*%
X39700000Y-34050000D03*
%TO.P,U9,2,GND*%
%TO.N,GND*%
X39700000Y-35000000D03*
%TO.P,U9,3,VBAT*%
%TO.N,+3.3V*%
X39700000Y-35950000D03*
%TO.P,U9,4,VOUT*%
%TO.N,+5V*%
X42300000Y-35900000D03*
%TO.P,U9,5,LX*%
%TO.N,Net-(U9-LX)*%
X42300000Y-34050000D03*
%TD*%
D32*
%TO.P,J6,MP*%
%TO.N,N/C*%
X48600000Y-147525000D03*
X48600000Y-152475000D03*
D33*
%TO.P,J6,2,Pin_2*%
%TO.N,BACK_BUTTON*%
X51950000Y-149375000D03*
%TO.P,J6,1,Pin_1*%
%TO.N,+3.3V*%
X51950000Y-150625000D03*
%TD*%
D34*
%TO.P,L1,1*%
%TO.N,+3.3V*%
X135548000Y-89985000D03*
%TO.P,L1,2*%
%TO.N,3.3VA_1*%
X135548000Y-89015000D03*
%TD*%
D35*
%TO.P,D4,1,K*%
%TO.N,Net-(D3-K)*%
X170000000Y-22000000D03*
%TO.P,D4,2,A*%
%TO.N,USB2_5V*%
X170000000Y-18000000D03*
%TD*%
D36*
%TO.P,U2,1,~{CS}*%
%TO.N,FLASH_CS*%
X122000000Y-122460000D03*
%TO.P,U2,2,DO(IO1)*%
%TO.N,SPI1_MISO*%
X122000000Y-123730000D03*
%TO.P,U2,3,~{WP}*%
%TO.N,Net-(U2-~{HOLD})*%
X122000000Y-125000000D03*
%TO.P,U2,4,GND*%
%TO.N,GND*%
X122000000Y-126270000D03*
%TO.P,U2,5,DI(IO0)*%
%TO.N,SPI1_MOSI*%
X129200000Y-126270000D03*
%TO.P,U2,6,SCK*%
%TO.N,SPI1_SCK*%
X129200000Y-125000000D03*
%TO.P,U2,7,~{HOLD}*%
%TO.N,Net-(U2-~{HOLD})*%
X129200000Y-123730000D03*
%TO.P,U2,8,VCC*%
%TO.N,+3.3V*%
X129200000Y-122460000D03*
%TD*%
D37*
%TO.P,R11,1*%
%TO.N,ON_BUTTON*%
X102710000Y-104675000D03*
%TO.P,R11,2*%
%TO.N,GND*%
X101690000Y-104675000D03*
%TD*%
D38*
%TO.P,R26,1*%
%TO.N,USART1_RX1*%
X156500000Y-84210000D03*
%TO.P,R26,2*%
%TO.N,+3.3V*%
X156500000Y-83190000D03*
%TD*%
%TO.P,R4,1*%
%TO.N,USART1_TX1*%
X61400000Y-93610000D03*
%TO.P,R4,2*%
%TO.N,+3.3V*%
X61400000Y-92590000D03*
%TD*%
D39*
%TO.P,U7,1,BAT+*%
%TO.N,BAT+*%
X160760000Y-36920000D03*
%TO.P,U7,2,BAT-*%
%TO.N,BAT-*%
X160760000Y-39460000D03*
D40*
%TO.P,U7,3,Vout-*%
%TO.N,GND*%
X184620000Y-52477000D03*
D39*
X184890000Y-57240000D03*
D41*
X185370000Y-54890000D03*
%TO.P,U7,4,Vout+*%
%TO.N,Net-(U7-Vout+)*%
X181870000Y-54890000D03*
D39*
X182350000Y-57240000D03*
D40*
X182620000Y-52500000D03*
D39*
%TO.P,U7,5,SCL*%
%TO.N,BATTERY_SCL*%
X174730000Y-57240000D03*
%TO.P,U7,6,SDA*%
%TO.N,BATTERY_SDA*%
X172190000Y-57240000D03*
%TO.P,U7,7,VCC*%
%TO.N,+3.3V*%
X169650000Y-57240000D03*
%TO.P,U7,8,GND*%
%TO.N,GND*%
X167110000Y-57240000D03*
%TO.P,U7,9,Vin+*%
%TO.N,Net-(D3-K)*%
X169650000Y-26760000D03*
X169650000Y-31840000D03*
D41*
X170257000Y-29109000D03*
%TO.P,U7,10,Vin-*%
%TO.N,GND*%
X166757000Y-29109000D03*
D39*
X167110000Y-26760000D03*
X167110000Y-31840000D03*
%TO.P,U7,11,ENB*%
%TO.N,Net-(SW4-C)*%
X186160000Y-35650000D03*
%TD*%
D32*
%TO.P,J4,MP*%
%TO.N,N/C*%
X48600000Y-131525000D03*
X48600000Y-136475000D03*
D33*
%TO.P,J4,2,Pin_2*%
%TO.N,PAGE_UP_BUTTON*%
X51950000Y-133375000D03*
%TO.P,J4,1,Pin_1*%
%TO.N,+3.3V*%
X51950000Y-134625000D03*
%TD*%
D42*
%TO.P,L3,1*%
%TO.N,Net-(U9-LX)*%
X43200000Y-28520000D03*
%TO.P,L3,2*%
%TO.N,+3.3V*%
X43200000Y-24480000D03*
%TD*%
D43*
%TO.P,U8,1,GND*%
%TO.N,GND*%
X192300000Y-70350000D03*
%TO.P,U8,2,VO*%
%TO.N,+3.3V*%
X190000000Y-70350000D03*
D44*
X190000000Y-76650000D03*
D43*
%TO.P,U8,3,VI*%
%TO.N,Net-(U7-Vout+)*%
X187700000Y-70350000D03*
%TD*%
D24*
%TO.P,R13,1*%
%TO.N,PAGE_UP_BUTTON*%
X62200000Y-133390000D03*
%TO.P,R13,2*%
%TO.N,GND*%
X62200000Y-134410000D03*
%TD*%
D45*
%TO.P,R30,1*%
%TO.N,+3.3V*%
X62790000Y-78300000D03*
%TO.P,R30,2*%
%TO.N,Net-(U5-PA12)*%
X63810000Y-78300000D03*
%TD*%
D24*
%TO.P,R6,1*%
%TO.N,USB1+*%
X153100000Y-78190000D03*
%TO.P,R6,2*%
%TO.N,Net-(U1-PA12)*%
X153100000Y-79210000D03*
%TD*%
D46*
%TO.P,R23,1*%
%TO.N,+3.3V*%
X110225000Y-127700000D03*
%TO.P,R23,2*%
%TO.N,LCD_CS*%
X108575000Y-127700000D03*
%TD*%
D47*
%TO.P,J15,MP*%
%TO.N,N/C*%
X79900000Y-66550000D03*
X79900000Y-59450000D03*
D48*
%TO.P,J15,3,Pin_3*%
%TO.N,CRSF*%
X77800000Y-64500000D03*
%TO.P,J15,2,Pin_2*%
%TO.N,GND*%
X77800000Y-63000000D03*
%TO.P,J15,1,Pin_1*%
%TO.N,+5V*%
X77800000Y-61500000D03*
%TD*%
D49*
%TO.P,J19,MP*%
%TO.N,N/C*%
X128100000Y-53600000D03*
X121900000Y-53600000D03*
D50*
%TO.P,J19,3,Pin_3*%
%TO.N,+3.3V*%
X126250000Y-56950000D03*
%TO.P,J19,2,Pin_2*%
%TO.N,RIGHT_GIMBAL_V*%
X125000000Y-56950000D03*
%TO.P,J19,1,Pin_1*%
%TO.N,GND*%
X123750000Y-56950000D03*
%TD*%
D49*
%TO.P,J18,MP*%
%TO.N,N/C*%
X143100000Y-53600000D03*
X136900000Y-53600000D03*
D50*
%TO.P,J18,3,Pin_3*%
%TO.N,+3.3V*%
X141250000Y-56950000D03*
%TO.P,J18,2,Pin_2*%
%TO.N,RIGHT_GIMBAL_H*%
X140000000Y-56950000D03*
%TO.P,J18,1,Pin_1*%
%TO.N,GND*%
X138750000Y-56950000D03*
%TD*%
D46*
%TO.P,R25,1*%
%TO.N,Net-(U2-~{HOLD})*%
X119805000Y-125015000D03*
%TO.P,R25,2*%
%TO.N,+3.3V*%
X118155000Y-125015000D03*
%TD*%
D24*
%TO.P,R8,1*%
%TO.N,Net-(SW1-B)*%
X142200000Y-74000000D03*
%TO.P,R8,2*%
%TO.N,BOOT0_1*%
X142200000Y-75020000D03*
%TD*%
%TO.P,R31,1*%
%TO.N,Net-(SW3-B)*%
X53425000Y-77450000D03*
%TO.P,R31,2*%
%TO.N,BOOT0_2*%
X53425000Y-78470000D03*
%TD*%
D51*
%TO.P,C37,1*%
%TO.N,+3.3V*%
X39000000Y-38025000D03*
%TO.P,C37,2*%
%TO.N,GND*%
X39000000Y-40975000D03*
%TD*%
D16*
%TO.P,C12,1*%
%TO.N,+3.3V*%
X60100000Y-118380000D03*
%TO.P,C12,2*%
%TO.N,MENU_BUTTON*%
X60100000Y-117420000D03*
%TD*%
D45*
%TO.P,R2,1*%
%TO.N,+3.3V*%
X144290000Y-74600000D03*
%TO.P,R2,2*%
%TO.N,BATTERY_SDA*%
X145310000Y-74600000D03*
%TD*%
D35*
%TO.P,D3,1,K*%
%TO.N,Net-(D3-K)*%
X174000000Y-22000000D03*
%TO.P,D3,2,A*%
%TO.N,USB1_5V*%
X174000000Y-18000000D03*
%TD*%
D24*
%TO.P,R20,1*%
%TO.N,DOWN_BUTTON*%
X164400000Y-150590000D03*
%TO.P,R20,2*%
%TO.N,GND*%
X164400000Y-151610000D03*
%TD*%
D51*
%TO.P,C36,1*%
%TO.N,+5V*%
X43000000Y-38025000D03*
%TO.P,C36,2*%
%TO.N,GND*%
X43000000Y-40975000D03*
%TD*%
D38*
%TO.P,R27,1*%
%TO.N,CRSF*%
X63300000Y-85210000D03*
%TO.P,R27,2*%
%TO.N,+3.3V*%
X63300000Y-84190000D03*
%TD*%
D28*
%TO.P,C27,1*%
%TO.N,+3.3V*%
X57880000Y-91100000D03*
%TO.P,C27,2*%
%TO.N,GND*%
X56920000Y-91100000D03*
%TD*%
D52*
%TO.P,U1,1,VBAT*%
%TO.N,+3.3V*%
X138837500Y-82250000D03*
%TO.P,U1,2,PC13*%
%TO.N,LED_1*%
X138837500Y-82750000D03*
%TO.P,U1,3,PC14*%
%TO.N,unconnected-(U1-PC14-Pad3)*%
X138837500Y-83250000D03*
%TO.P,U1,4,PC15*%
%TO.N,LCD_SWITCH*%
X138837500Y-83750000D03*
%TO.P,U1,5,PD0*%
%TO.N,HSE_IN_1*%
X138837500Y-84250000D03*
%TO.P,U1,6,PD1*%
%TO.N,HSE_OUT_1*%
X138837500Y-84750000D03*
%TO.P,U1,7,NRST*%
%TO.N,Net-(U1-NRST)*%
X138837500Y-85250000D03*
%TO.P,U1,8,VSSA*%
%TO.N,GND*%
X138837500Y-85750000D03*
%TO.P,U1,9,VDDA*%
%TO.N,3.3VA_1*%
X138837500Y-86250000D03*
%TO.P,U1,10,PA0*%
%TO.N,MENU_BUTTON*%
X138837500Y-86750000D03*
%TO.P,U1,11,PA1*%
%TO.N,HOME_BUTTON*%
X138837500Y-87250000D03*
%TO.P,U1,12,PA2*%
%TO.N,PAGE_UP_BUTTON*%
X138837500Y-87750000D03*
D53*
%TO.P,U1,13,PA3*%
%TO.N,PAGE_DOWN_BUTTON*%
X140250000Y-89162500D03*
%TO.P,U1,14,PA4*%
%TO.N,BACK_BUTTON*%
X140750000Y-89162500D03*
%TO.P,U1,15,PA5*%
%TO.N,Net-(U1-PA5)*%
X141250000Y-89162500D03*
%TO.P,U1,16,PA6*%
%TO.N,SPI1_MISO*%
X141750000Y-89162500D03*
%TO.P,U1,17,PA7*%
%TO.N,SPI1_MOSI*%
X142250000Y-89162500D03*
%TO.P,U1,18,PB0*%
%TO.N,LCD_CS*%
X142750000Y-89162500D03*
%TO.P,U1,19,PB1*%
%TO.N,LCD_RESET*%
X143250000Y-89162500D03*
%TO.P,U1,20,PB2*%
%TO.N,LCD_DC*%
X143750000Y-89162500D03*
%TO.P,U1,21,PB10*%
%TO.N,LCD_LED*%
X144250000Y-89162500D03*
%TO.P,U1,22,PB11*%
%TO.N,FLASH_CS*%
X144750000Y-89162500D03*
%TO.P,U1,23,VSS*%
%TO.N,GND*%
X145250000Y-89162500D03*
%TO.P,U1,24,VDD*%
%TO.N,+3.3V*%
X145750000Y-89162500D03*
D52*
%TO.P,U1,25,PB12*%
%TO.N,DOWN_BUTTON*%
X147162500Y-87750000D03*
%TO.P,U1,26,PB13*%
%TO.N,RIGHT_BUTTON*%
X147162500Y-87250000D03*
%TO.P,U1,27,PB14*%
%TO.N,OK_BUTTON*%
X147162500Y-86750000D03*
%TO.P,U1,28,PB15*%
%TO.N,LEFT_BUTTON*%
X147162500Y-86250000D03*
%TO.P,U1,29,PA8*%
%TO.N,UP_BUTTON*%
X147162500Y-85750000D03*
%TO.P,U1,30,PA9*%
%TO.N,USART1_TX1*%
X147162500Y-85250000D03*
%TO.P,U1,31,PA10*%
%TO.N,USART1_RX1*%
X147162500Y-84750000D03*
%TO.P,U1,32,PA11*%
%TO.N,Net-(U1-PA11)*%
X147162500Y-84250000D03*
%TO.P,U1,33,PA12*%
%TO.N,Net-(U1-PA12)*%
X147162500Y-83750000D03*
%TO.P,U1,34,PA13*%
%TO.N,ON_BUTTON*%
X147162500Y-83250000D03*
%TO.P,U1,35,VSS*%
%TO.N,GND*%
X147162500Y-82750000D03*
%TO.P,U1,36,VDD*%
%TO.N,+3.3V*%
X147162500Y-82250000D03*
D53*
%TO.P,U1,37,PA14*%
%TO.N,unconnected-(U1-PA14-Pad37)*%
X145750000Y-80837500D03*
%TO.P,U1,38,PA15*%
%TO.N,unconnected-(U1-PA15-Pad38)*%
X145250000Y-80837500D03*
%TO.P,U1,39,PB3*%
%TO.N,unconnected-(U1-PB3-Pad39)*%
X144750000Y-80837500D03*
%TO.P,U1,40,PB4*%
%TO.N,TOUCHSCREEN_INT*%
X144250000Y-80837500D03*
%TO.P,U1,41,PB5*%
%TO.N,TOUCHSCREEN_RESET*%
X143750000Y-80837500D03*
%TO.P,U1,42,PB6*%
%TO.N,BATTERY_SCL*%
X143250000Y-80837500D03*
%TO.P,U1,43,PB7*%
%TO.N,BATTERY_SDA*%
X142750000Y-80837500D03*
%TO.P,U1,44,BOOT0*%
%TO.N,BOOT0_1*%
X142250000Y-80837500D03*
%TO.P,U1,45,PB8*%
%TO.N,unconnected-(U1-PB8-Pad45)*%
X141750000Y-80837500D03*
%TO.P,U1,46,PB9*%
%TO.N,unconnected-(U1-PB9-Pad46)*%
X141250000Y-80837500D03*
%TO.P,U1,47,VSS*%
%TO.N,GND*%
X140750000Y-80837500D03*
%TO.P,U1,48,VDD*%
%TO.N,+3.3V*%
X140250000Y-80837500D03*
%TD*%
D49*
%TO.P,J17,MP*%
%TO.N,N/C*%
X28100000Y-53600000D03*
X21900000Y-53600000D03*
D50*
%TO.P,J17,3,Pin_3*%
%TO.N,+3.3V*%
X26250000Y-56950000D03*
%TO.P,J17,2,Pin_2*%
%TO.N,LEFT_GIMBAL_V*%
X25000000Y-56950000D03*
%TO.P,J17,1,Pin_1*%
%TO.N,GND*%
X23750000Y-56950000D03*
%TD*%
D37*
%TO.P,R1,1*%
%TO.N,+3.3V*%
X148710000Y-77000000D03*
%TO.P,R1,2*%
%TO.N,BATTERY_SCL*%
X147690000Y-77000000D03*
%TD*%
D54*
%TO.P,SW2,3,C*%
%TO.N,GND*%
X3730000Y-81250000D03*
%TO.P,SW2,2,B*%
%TO.N,Net-(SW2-B)*%
X3730000Y-79750000D03*
%TO.P,SW2,1,A*%
%TO.N,+3.3V*%
X3730000Y-76750000D03*
D55*
%TO.P,SW2,*%
%TO.N,*%
X870000Y-82650000D03*
X3080000Y-82650000D03*
X870000Y-75350000D03*
X3080000Y-75350000D03*
%TD*%
D21*
%TO.P,SW1,3,C*%
%TO.N,GND*%
X125750000Y-3730000D03*
%TO.P,SW1,2,B*%
%TO.N,Net-(SW1-B)*%
X127250000Y-3730000D03*
%TO.P,SW1,1,A*%
%TO.N,+3.3V*%
X130250000Y-3730000D03*
D22*
%TO.P,SW1,*%
%TO.N,*%
X124350000Y-870000D03*
X124350000Y-3080000D03*
X131650000Y-870000D03*
X131650000Y-3080000D03*
%TD*%
D20*
%TO.P,C5,1*%
%TO.N,+3.3V*%
X149100000Y-81020000D03*
%TO.P,C5,2*%
%TO.N,GND*%
X149100000Y-81980000D03*
%TD*%
D56*
%TO.P,R33,1*%
%TO.N,Net-(D2-K)*%
X42900000Y-77675000D03*
%TO.P,R33,2*%
%TO.N,GND*%
X42900000Y-79325000D03*
%TD*%
D32*
%TO.P,J1,MP*%
%TO.N,N/C*%
X100600000Y-138275000D03*
X100600000Y-145725000D03*
D33*
%TO.P,J1,4,Pin_4*%
%TO.N,TOUCHSCREEN_INT*%
X103950000Y-140125000D03*
%TO.P,J1,3,Pin_3*%
%TO.N,BATTERY_SDA*%
X103950000Y-141375000D03*
%TO.P,J1,2,Pin_2*%
%TO.N,TOUCHSCREEN_RESET*%
X103950000Y-142625000D03*
%TO.P,J1,1,Pin_1*%
%TO.N,BATTERY_SCL*%
X103950000Y-143875000D03*
%TD*%
D18*
%TO.P,J8,MP*%
%TO.N,N/C*%
X155400000Y-120475000D03*
X155400000Y-115525000D03*
D19*
%TO.P,J8,2,Pin_2*%
%TO.N,UP_BUTTON*%
X152050000Y-118625000D03*
%TO.P,J8,1,Pin_1*%
%TO.N,+3.3V*%
X152050000Y-117375000D03*
%TD*%
D49*
%TO.P,J16,MP*%
%TO.N,N/C*%
X43100000Y-53600000D03*
X36900000Y-53600000D03*
D50*
%TO.P,J16,3,Pin_3*%
%TO.N,+3.3V*%
X41250000Y-56950000D03*
%TO.P,J16,2,Pin_2*%
%TO.N,LEFT_GIMBAL_H*%
X40000000Y-56950000D03*
%TO.P,J16,1,Pin_1*%
%TO.N,GND*%
X38750000Y-56950000D03*
%TD*%
D32*
%TO.P,J3,MP*%
%TO.N,N/C*%
X48600000Y-115525000D03*
X48600000Y-120475000D03*
D33*
%TO.P,J3,2,Pin_2*%
%TO.N,MENU_BUTTON*%
X51950000Y-117375000D03*
%TO.P,J3,1,Pin_1*%
%TO.N,+3.3V*%
X51950000Y-118625000D03*
%TD*%
D24*
%TO.P,R28,1*%
%TO.N,USB2-*%
X66300000Y-75990000D03*
%TO.P,R28,2*%
%TO.N,Net-(U5-PA11)*%
X66300000Y-77010000D03*
%TD*%
D52*
%TO.P,U5,1,VBAT*%
%TO.N,+3.3V*%
X50000000Y-82250000D03*
%TO.P,U5,2,PC13*%
%TO.N,LED_2*%
X50000000Y-82750000D03*
%TO.P,U5,3,PC14*%
%TO.N,unconnected-(U5-PC14-Pad3)*%
X50000000Y-83250000D03*
%TO.P,U5,4,PC15*%
%TO.N,unconnected-(U5-PC15-Pad4)*%
X50000000Y-83750000D03*
%TO.P,U5,5,PD0*%
%TO.N,HSE_IN_2*%
X50000000Y-84250000D03*
%TO.P,U5,6,PD1*%
%TO.N,HSE_OUT_2*%
X50000000Y-84750000D03*
%TO.P,U5,7,NRST*%
%TO.N,Net-(U5-NRST)*%
X50000000Y-85250000D03*
%TO.P,U5,8,VSSA*%
%TO.N,GND*%
X50000000Y-85750000D03*
%TO.P,U5,9,VDDA*%
%TO.N,3.3VA_2*%
X50000000Y-86250000D03*
%TO.P,U5,10,PA0*%
%TO.N,unconnected-(U5-PA0-Pad10)*%
X50000000Y-86750000D03*
%TO.P,U5,11,PA1*%
%TO.N,unconnected-(U5-PA1-Pad11)*%
X50000000Y-87250000D03*
%TO.P,U5,12,PA2*%
%TO.N,unconnected-(U5-PA2-Pad12)*%
X50000000Y-87750000D03*
D53*
%TO.P,U5,13,PA3*%
%TO.N,unconnected-(U5-PA3-Pad13)*%
X51412500Y-89162500D03*
%TO.P,U5,14,PA4*%
%TO.N,unconnected-(U5-PA4-Pad14)*%
X51912500Y-89162500D03*
%TO.P,U5,15,PA5*%
%TO.N,RIGHT_GIMBAL_V*%
X52412500Y-89162500D03*
%TO.P,U5,16,PA6*%
%TO.N,RIGHT_GIMBAL_H*%
X52912500Y-89162500D03*
%TO.P,U5,17,PA7*%
%TO.N,LEFT_GIMBAL_V*%
X53412500Y-89162500D03*
%TO.P,U5,18,PB0*%
%TO.N,LEFT_GIMBAL_H*%
X53912500Y-89162500D03*
%TO.P,U5,19,PB1*%
%TO.N,unconnected-(U5-PB1-Pad19)*%
X54412500Y-89162500D03*
%TO.P,U5,20,PB2*%
%TO.N,unconnected-(U5-PB2-Pad20)*%
X54912500Y-89162500D03*
%TO.P,U5,21,PB10*%
%TO.N,USART1_RX1*%
X55412500Y-89162500D03*
%TO.P,U5,22,PB11*%
%TO.N,USART1_TX1*%
X55912500Y-89162500D03*
%TO.P,U5,23,VSS*%
%TO.N,GND*%
X56412500Y-89162500D03*
%TO.P,U5,24,VDD*%
%TO.N,+3.3V*%
X56912500Y-89162500D03*
D52*
%TO.P,U5,25,PB12*%
%TO.N,unconnected-(U5-PB12-Pad25)*%
X58325000Y-87750000D03*
%TO.P,U5,26,PB13*%
%TO.N,unconnected-(U5-PB13-Pad26)*%
X58325000Y-87250000D03*
%TO.P,U5,27,PB14*%
%TO.N,unconnected-(U5-PB14-Pad27)*%
X58325000Y-86750000D03*
%TO.P,U5,28,PB15*%
%TO.N,unconnected-(U5-PB15-Pad28)*%
X58325000Y-86250000D03*
%TO.P,U5,29,PA8*%
%TO.N,unconnected-(U5-PA8-Pad29)*%
X58325000Y-85750000D03*
%TO.P,U5,30,PA9*%
%TO.N,CRSF*%
X58325000Y-85250000D03*
%TO.P,U5,31,PA10*%
%TO.N,unconnected-(U5-PA10-Pad31)*%
X58325000Y-84750000D03*
%TO.P,U5,32,PA11*%
%TO.N,Net-(U5-PA11)*%
X58325000Y-84250000D03*
%TO.P,U5,33,PA12*%
%TO.N,Net-(U5-PA12)*%
X58325000Y-83750000D03*
%TO.P,U5,34,PA13*%
%TO.N,unconnected-(U5-PA13-Pad34)*%
X58325000Y-83250000D03*
%TO.P,U5,35,VSS*%
%TO.N,GND*%
X58325000Y-82750000D03*
%TO.P,U5,36,VDD*%
%TO.N,+3.3V*%
X58325000Y-82250000D03*
D53*
%TO.P,U5,37,PA14*%
%TO.N,unconnected-(U5-PA14-Pad37)*%
X56912500Y-80837500D03*
%TO.P,U5,38,PA15*%
%TO.N,unconnected-(U5-PA15-Pad38)*%
X56412500Y-80837500D03*
%TO.P,U5,39,PB3*%
%TO.N,unconnected-(U5-PB3-Pad39)*%
X55912500Y-80837500D03*
%TO.P,U5,40,PB4*%
%TO.N,unconnected-(U5-PB4-Pad40)*%
X55412500Y-80837500D03*
%TO.P,U5,41,PB5*%
%TO.N,unconnected-(U5-PB5-Pad41)*%
X54912500Y-80837500D03*
%TO.P,U5,42,PB6*%
%TO.N,unconnected-(U5-PB6-Pad42)*%
X54412500Y-80837500D03*
%TO.P,U5,43,PB7*%
%TO.N,unconnected-(U5-PB7-Pad43)*%
X53912500Y-80837500D03*
%TO.P,U5,44,BOOT0*%
%TO.N,BOOT0_2*%
X53412500Y-80837500D03*
%TO.P,U5,45,PB8*%
%TO.N,unconnected-(U5-PB8-Pad45)*%
X52912500Y-80837500D03*
%TO.P,U5,46,PB9*%
%TO.N,unconnected-(U5-PB9-Pad46)*%
X52412500Y-80837500D03*
%TO.P,U5,47,VSS*%
%TO.N,GND*%
X51912500Y-80837500D03*
%TO.P,U5,48,VDD*%
%TO.N,+3.3V*%
X51412500Y-80837500D03*
%TD*%
D49*
%TO.P,J2,MP*%
%TO.N,N/C*%
X104475000Y-98600000D03*
X99525000Y-98600000D03*
D50*
%TO.P,J2,2,Pin_2*%
%TO.N,ON_BUTTON*%
X102625000Y-101950000D03*
%TO.P,J2,1,Pin_1*%
%TO.N,+3.3V*%
X101375000Y-101950000D03*
%TD*%
D57*
%TO.P,D1,1,K*%
%TO.N,Net-(D1-K)*%
X133638000Y-77712500D03*
%TO.P,D1,2,A*%
%TO.N,LED_1*%
X133638000Y-79287500D03*
%TD*%
D56*
%TO.P,R22,1*%
%TO.N,Net-(D1-K)*%
X131738000Y-77675000D03*
%TO.P,R22,2*%
%TO.N,GND*%
X131738000Y-79325000D03*
%TD*%
D24*
%TO.P,R21,1*%
%TO.N,OK_BUTTON*%
X164300000Y-134610000D03*
%TO.P,R21,2*%
%TO.N,GND*%
X164300000Y-135630000D03*
%TD*%
D16*
%TO.P,C30,1*%
%TO.N,3.3VA_2*%
X46700000Y-87480000D03*
%TO.P,C30,2*%
%TO.N,GND*%
X46700000Y-86520000D03*
%TD*%
D57*
%TO.P,D2,1,K*%
%TO.N,Net-(D2-K)*%
X44800000Y-77712500D03*
%TO.P,D2,2,A*%
%TO.N,LED_2*%
X44800000Y-79287500D03*
%TD*%
D26*
%TO.P,C25,1*%
%TO.N,+3.3V*%
X49375000Y-78900000D03*
%TO.P,C25,2*%
%TO.N,GND*%
X47825000Y-78900000D03*
%TD*%
D24*
%TO.P,R15,1*%
%TO.N,BACK_BUTTON*%
X62200000Y-149390000D03*
%TO.P,R15,2*%
%TO.N,GND*%
X62200000Y-150410000D03*
%TD*%
%TO.P,R5,1*%
%TO.N,USB1-*%
X154300000Y-78190000D03*
%TO.P,R5,2*%
%TO.N,Net-(U1-PA11)*%
X154300000Y-79210000D03*
%TD*%
D38*
%TO.P,R3,1*%
%TO.N,SPI1_SCK*%
X141200000Y-92310000D03*
%TO.P,R3,2*%
%TO.N,Net-(U1-PA5)*%
X141200000Y-91290000D03*
%TD*%
D16*
%TO.P,C7,1*%
%TO.N,3.3VA_1*%
X135538000Y-87480000D03*
%TO.P,C7,2*%
%TO.N,GND*%
X135538000Y-86520000D03*
%TD*%
D37*
%TO.P,R32,1*%
%TO.N,HSE_OUT_2*%
X45510000Y-85100000D03*
%TO.P,R32,2*%
%TO.N,Net-(C33-Pad2)*%
X44490000Y-85100000D03*
%TD*%
D27*
%TO.P,C11,1*%
%TO.N,+3.3V*%
X101720000Y-106175000D03*
%TO.P,C11,2*%
%TO.N,ON_BUTTON*%
X102680000Y-106175000D03*
%TD*%
D16*
%TO.P,C14,1*%
%TO.N,+3.3V*%
X60100000Y-142380000D03*
%TO.P,C14,2*%
%TO.N,PAGE_DOWN_BUTTON*%
X60100000Y-141420000D03*
%TD*%
%TO.P,C3,1*%
%TO.N,+3.3V*%
X136838000Y-81980000D03*
%TO.P,C3,2*%
%TO.N,GND*%
X136838000Y-81020000D03*
%TD*%
%TO.P,C17,1*%
%TO.N,+3.3V*%
X162200000Y-119580000D03*
%TO.P,C17,2*%
%TO.N,UP_BUTTON*%
X162200000Y-118620000D03*
%TD*%
D54*
%TO.P,SW4,3,C*%
%TO.N,Net-(SW4-C)*%
X200270000Y-76750000D03*
%TO.P,SW4,2,B*%
%TO.N,GND*%
X200270000Y-78250000D03*
%TO.P,SW4,1,A*%
%TO.N,unconnected-(SW4-A-Pad1)*%
X200270000Y-81250000D03*
D55*
%TO.P,SW4,*%
%TO.N,*%
X203130000Y-75350000D03*
X200920000Y-75350000D03*
X203130000Y-82650000D03*
X200920000Y-82650000D03*
%TD*%
D32*
%TO.P,J7,MP*%
%TO.N,N/C*%
X48600000Y-123525000D03*
X48600000Y-128475000D03*
D33*
%TO.P,J7,2,Pin_2*%
%TO.N,HOME_BUTTON*%
X51950000Y-125375000D03*
%TO.P,J7,1,Pin_1*%
%TO.N,+3.3V*%
X51950000Y-126625000D03*
%TD*%
D24*
%TO.P,R14,1*%
%TO.N,PAGE_DOWN_BUTTON*%
X62200000Y-141390000D03*
%TO.P,R14,2*%
%TO.N,GND*%
X62200000Y-142410000D03*
%TD*%
%TO.P,R19,1*%
%TO.N,LEFT_BUTTON*%
X164300000Y-126690000D03*
%TO.P,R19,2*%
%TO.N,GND*%
X164300000Y-127710000D03*
%TD*%
D20*
%TO.P,C22,1*%
%TO.N,GND*%
X129200000Y-119820000D03*
%TO.P,C22,2*%
%TO.N,+3.3V*%
X129200000Y-120780000D03*
%TD*%
D16*
%TO.P,C15,1*%
%TO.N,+3.3V*%
X60100000Y-150380000D03*
%TO.P,C15,2*%
%TO.N,BACK_BUTTON*%
X60100000Y-149420000D03*
%TD*%
D37*
%TO.P,R9,1*%
%TO.N,HSE_OUT_1*%
X134348000Y-85100000D03*
%TO.P,R9,2*%
%TO.N,Net-(C10-Pad2)*%
X133328000Y-85100000D03*
%TD*%
D18*
%TO.P,J12,MP*%
%TO.N,N/C*%
X155400000Y-136475000D03*
X155400000Y-131525000D03*
D19*
%TO.P,J12,2,Pin_2*%
%TO.N,OK_BUTTON*%
X152050000Y-134625000D03*
%TO.P,J12,1,Pin_1*%
%TO.N,+3.3V*%
X152050000Y-133375000D03*
%TD*%
D16*
%TO.P,C20,1*%
%TO.N,+3.3V*%
X162300000Y-151580000D03*
%TO.P,C20,2*%
%TO.N,DOWN_BUTTON*%
X162300000Y-150620000D03*
%TD*%
D18*
%TO.P,J11,MP*%
%TO.N,N/C*%
X155400000Y-152475000D03*
X155400000Y-147525000D03*
D19*
%TO.P,J11,2,Pin_2*%
%TO.N,DOWN_BUTTON*%
X152050000Y-150625000D03*
%TO.P,J11,1,Pin_1*%
%TO.N,+3.3V*%
X152050000Y-149375000D03*
%TD*%
D27*
%TO.P,C29,1*%
%TO.N,+3.3V*%
X51000000Y-79000000D03*
%TO.P,C29,2*%
%TO.N,GND*%
X51960000Y-79000000D03*
%TD*%
D24*
%TO.P,R12,1*%
%TO.N,MENU_BUTTON*%
X62200000Y-117390000D03*
%TO.P,R12,2*%
%TO.N,GND*%
X62200000Y-118410000D03*
%TD*%
D34*
%TO.P,L2,1*%
%TO.N,+3.3V*%
X46710000Y-89985000D03*
%TO.P,L2,2*%
%TO.N,3.3VA_2*%
X46710000Y-89015000D03*
%TD*%
D24*
%TO.P,R17,1*%
%TO.N,UP_BUTTON*%
X164200000Y-118590000D03*
%TO.P,R17,2*%
%TO.N,GND*%
X164200000Y-119610000D03*
%TD*%
D16*
%TO.P,C8,1*%
%TO.N,3.3VA_1*%
X136888000Y-87480000D03*
%TO.P,C8,2*%
%TO.N,GND*%
X136888000Y-86520000D03*
%TD*%
D18*
%TO.P,J9,MP*%
%TO.N,N/C*%
X155400000Y-144475000D03*
X155400000Y-139525000D03*
D19*
%TO.P,J9,2,Pin_2*%
%TO.N,RIGHT_BUTTON*%
X152050000Y-142625000D03*
%TO.P,J9,1,Pin_1*%
%TO.N,+3.3V*%
X152050000Y-141375000D03*
%TD*%
D32*
%TO.P,J5,MP*%
%TO.N,N/C*%
X48600000Y-139525000D03*
X48600000Y-144475000D03*
D33*
%TO.P,J5,2,Pin_2*%
%TO.N,PAGE_DOWN_BUTTON*%
X51950000Y-141375000D03*
%TO.P,J5,1,Pin_1*%
%TO.N,+3.3V*%
X51950000Y-142625000D03*
%TD*%
D16*
%TO.P,C31,1*%
%TO.N,3.3VA_2*%
X48050000Y-87480000D03*
%TO.P,C31,2*%
%TO.N,GND*%
X48050000Y-86520000D03*
%TD*%
D45*
%TO.P,R7,1*%
%TO.N,+3.3V*%
X151090000Y-80300000D03*
%TO.P,R7,2*%
%TO.N,Net-(U1-PA12)*%
X152110000Y-80300000D03*
%TD*%
D58*
%TO.P,U3,1,A0*%
%TO.N,GND*%
X122625000Y-145905000D03*
%TO.P,U3,2,A1*%
X122625000Y-144635000D03*
%TO.P,U3,3,A2*%
X122625000Y-143365000D03*
%TO.P,U3,4,GND*%
X122625000Y-142095000D03*
%TO.P,U3,5,SDA*%
%TO.N,BATTERY_SDA*%
X117375000Y-142095000D03*
%TO.P,U3,6,SCL*%
%TO.N,BATTERY_SCL*%
X117375000Y-143365000D03*
%TO.P,U3,7,WP*%
%TO.N,GND*%
X117375000Y-144635000D03*
%TO.P,U3,8,VCC*%
%TO.N,+3.3V*%
X117375000Y-145905000D03*
%TD*%
D45*
%TO.P,R10,1*%
%TO.N,Net-(SW2-B)*%
X126090000Y-78800000D03*
%TO.P,R10,2*%
%TO.N,LCD_SWITCH*%
X127110000Y-78800000D03*
%TD*%
D16*
%TO.P,C16,1*%
%TO.N,+3.3V*%
X60100000Y-126280000D03*
%TO.P,C16,2*%
%TO.N,HOME_BUTTON*%
X60100000Y-125320000D03*
%TD*%
D20*
%TO.P,C1,1*%
%TO.N,Net-(U1-NRST)*%
X134100000Y-86520000D03*
%TO.P,C1,2*%
%TO.N,GND*%
X134100000Y-87480000D03*
%TD*%
D24*
%TO.P,R16,1*%
%TO.N,HOME_BUTTON*%
X62200000Y-125300000D03*
%TO.P,R16,2*%
%TO.N,GND*%
X62200000Y-126320000D03*
%TD*%
D16*
%TO.P,C19,1*%
%TO.N,+3.3V*%
X162300000Y-127680000D03*
%TO.P,C19,2*%
%TO.N,LEFT_BUTTON*%
X162300000Y-126720000D03*
%TD*%
D14*
%TO.P,J14,1,VBUS*%
%TO.N,USB1_5V*%
X145300000Y-4475000D03*
%TO.P,J14,2,D-*%
%TO.N,USB1_CONN-*%
X144650000Y-4475000D03*
%TO.P,J14,3,D+*%
%TO.N,USB1_CONN+*%
X144000000Y-4475000D03*
%TO.P,J14,4,ID*%
%TO.N,unconnected-(J14-ID-Pad4)*%
X143350000Y-4475000D03*
%TO.P,J14,5,GND*%
%TO.N,GND*%
X142700000Y-4475000D03*
D10*
%TO.P,J14,6,Shield*%
%TO.N,unconnected-(J14-Shield-Pad6)_3*%
X148175000Y-1800000D03*
D11*
%TO.N,unconnected-(J14-Shield-Pad6)_4*%
X147175000Y-1800000D03*
D12*
%TO.N,unconnected-(J14-Shield-Pad6)_5*%
X146225000Y-4800000D03*
D13*
%TO.N,unconnected-(J14-Shield-Pad6)_1*%
X145150000Y-1808000D03*
%TO.N,unconnected-(J14-Shield-Pad6)_2*%
X142850000Y-1808000D03*
D12*
%TO.N,unconnected-(J14-Shield-Pad6)_0*%
X141775000Y-4800000D03*
D11*
%TO.N,unconnected-(J14-Shield-Pad6)*%
X140825000Y-1800000D03*
D10*
%TO.N,unconnected-(J14-Shield-Pad6)_6*%
X139825000Y-1800000D03*
%TD*%
D59*
%TO.P,U6,1,I/O1*%
%TO.N,USB2_CONN-*%
X60950000Y-7862500D03*
%TO.P,U6,2,GND*%
%TO.N,GND*%
X60000000Y-7862500D03*
%TO.P,U6,3,I/O2*%
%TO.N,USB2_CONN+*%
X59050000Y-7862500D03*
%TO.P,U6,4,I/O2*%
%TO.N,USB2+*%
X59050000Y-10137500D03*
%TO.P,U6,5,VBUS*%
%TO.N,USB2_5V*%
X60000000Y-10137500D03*
%TO.P,U6,6,I/O1*%
%TO.N,USB2-*%
X60950000Y-10137500D03*
%TD*%
%TO.P,U4,1,I/O1*%
%TO.N,USB1_CONN-*%
X144950000Y-7862500D03*
%TO.P,U4,2,GND*%
%TO.N,GND*%
X144000000Y-7862500D03*
%TO.P,U4,3,I/O2*%
%TO.N,USB1_CONN+*%
X143050000Y-7862500D03*
%TO.P,U4,4,I/O2*%
%TO.N,USB1+*%
X143050000Y-10137500D03*
%TO.P,U4,5,VBUS*%
%TO.N,USB1_5V*%
X144000000Y-10137500D03*
%TO.P,U4,6,I/O1*%
%TO.N,USB1-*%
X144950000Y-10137500D03*
%TD*%
D60*
%TO.N,GND*%
X192300000Y-71825000D03*
X58700000Y-5850000D03*
X100425000Y-129750000D03*
X41725000Y-40525000D03*
X57925000Y-8975000D03*
X4600000Y-81250000D03*
X164275000Y-120175000D03*
X36350000Y-85650000D03*
X123925000Y-144625000D03*
X141450000Y-79000000D03*
X125200000Y-85600000D03*
X62200000Y-151225000D03*
X171875000Y-70925000D03*
X44575000Y-87475000D03*
X164300000Y-144325000D03*
X125750000Y-4775000D03*
X62225000Y-119100000D03*
X125250000Y-84200000D03*
X47350000Y-86250000D03*
X171950000Y-81850000D03*
X177275000Y-83075000D03*
X57075000Y-91775000D03*
X186525000Y-54975000D03*
X177375000Y-69800000D03*
X129225000Y-119100000D03*
X62200000Y-127025000D03*
X44300000Y-41600000D03*
X138750000Y-55700000D03*
X123925000Y-143350000D03*
X130625000Y-79350000D03*
X38775000Y-58275000D03*
X137550000Y-80850000D03*
X38800000Y-35000000D03*
X164300000Y-136350000D03*
X47825000Y-78100000D03*
X167100000Y-33125000D03*
X40275000Y-41625000D03*
X62225000Y-143075000D03*
X136150000Y-86125000D03*
X44300000Y-40550000D03*
X41725000Y-41575000D03*
X104950000Y-129750000D03*
X37725000Y-41600000D03*
X115500000Y-147800000D03*
X75450000Y-63000000D03*
X37675000Y-40525000D03*
X62200000Y-135150000D03*
X133275000Y-88250000D03*
X23750000Y-58250000D03*
X136325000Y-77875000D03*
X47300000Y-81025000D03*
X164300000Y-128425000D03*
X80150000Y-63000000D03*
X165650000Y-31875000D03*
X123750000Y-55675000D03*
X186575000Y-56525000D03*
X177300000Y-81775000D03*
X192300000Y-68950000D03*
X200300000Y-79550000D03*
X171950000Y-83225000D03*
X51950000Y-78325000D03*
X141750000Y-9050000D03*
X116000000Y-144625000D03*
X142650000Y-5850000D03*
X123925000Y-142050000D03*
X145825000Y-91750000D03*
X164400000Y-152325000D03*
X73800000Y-5075000D03*
X42000000Y-79325000D03*
X184900000Y-59175000D03*
X36400000Y-84100000D03*
X171900000Y-69900000D03*
X167125000Y-25425000D03*
X60950000Y-82100000D03*
X186525000Y-52800000D03*
X149825000Y-81975000D03*
X40275000Y-40550000D03*
X101025000Y-104625000D03*
X136325000Y-79775000D03*
X123925000Y-145900000D03*
X184725000Y-51350000D03*
X165550000Y-26750000D03*
X120675000Y-126275000D03*
X177375000Y-70975000D03*
X165550000Y-29300000D03*
X167150000Y-55375000D03*
%TO.N,+3.3V*%
X185350000Y-78925000D03*
X153350000Y-117375000D03*
X191775000Y-78925000D03*
X60100000Y-135150000D03*
X38725000Y-34050000D03*
X49375000Y-79750000D03*
X61400000Y-91975000D03*
X153350000Y-149375000D03*
X51100000Y-78350000D03*
X117375000Y-122400000D03*
X189725000Y-81600000D03*
X53175000Y-142625000D03*
X101375000Y-103400000D03*
X49400000Y-78100000D03*
X40325000Y-38450000D03*
X130575000Y-122475000D03*
X46100000Y-90000000D03*
X162300000Y-144250000D03*
X100450000Y-131250000D03*
X190000000Y-71850000D03*
X117325000Y-125025000D03*
X130125000Y-120775000D03*
X4575000Y-76750000D03*
X151075000Y-79575000D03*
X149100000Y-80325000D03*
X137875000Y-79750000D03*
X47350000Y-89975000D03*
X189650000Y-78925000D03*
X162200000Y-120225000D03*
X190475000Y-68700000D03*
X189450000Y-68700000D03*
X60100000Y-143075000D03*
X146775000Y-91825000D03*
X162300000Y-128350000D03*
X162300000Y-136275000D03*
X58500000Y-91100000D03*
X156500000Y-82525000D03*
X53125000Y-126625000D03*
X46325000Y-24525000D03*
X39900000Y-24525000D03*
X149475000Y-77000000D03*
X134800000Y-90000000D03*
X101000000Y-106175000D03*
X37625000Y-38550000D03*
X60100000Y-151200000D03*
X47275000Y-81975000D03*
X187350000Y-83600000D03*
X189725000Y-83575000D03*
X169650000Y-55400000D03*
X40300000Y-37525000D03*
X153325000Y-141375000D03*
X60100000Y-119050000D03*
X37625000Y-37550000D03*
X60100000Y-127000000D03*
X137875000Y-78000000D03*
X141250000Y-58475000D03*
X43175000Y-23350000D03*
X62800000Y-77650000D03*
X53175000Y-134625000D03*
X114700000Y-146000000D03*
X136050000Y-81750000D03*
X63300000Y-83575000D03*
X153450000Y-125375000D03*
X162300000Y-152225000D03*
X53125000Y-118625000D03*
X78250000Y-5000000D03*
X41250000Y-58275000D03*
X153375000Y-133400000D03*
X126250000Y-58400000D03*
X53175000Y-150625000D03*
X139200000Y-79000000D03*
X110225000Y-128575000D03*
X26250000Y-58250000D03*
X130250000Y-4600000D03*
X187625000Y-79050000D03*
X144300000Y-73775000D03*
X191750000Y-81675000D03*
X104925000Y-131250000D03*
X187500000Y-81575000D03*
X60325000Y-80725000D03*
%TO.N,ON_BUTTON*%
X113400000Y-102000000D03*
X150975000Y-81875000D03*
%TO.N,MENU_BUTTON*%
X67600000Y-112100000D03*
X141200000Y-84500000D03*
%TO.N,PAGE_UP_BUTTON*%
X134300000Y-92900000D03*
X68700000Y-129800000D03*
%TO.N,PAGE_DOWN_BUTTON*%
X138700000Y-93200000D03*
X138700000Y-95850000D03*
%TO.N,BACK_BUTTON*%
X139800000Y-93000000D03*
X138400000Y-97500000D03*
%TO.N,HOME_BUTTON*%
X67900000Y-121100000D03*
X141200000Y-85600000D03*
%TO.N,UP_BUTTON*%
X150900000Y-86100000D03*
X170525000Y-117700000D03*
%TO.N,RIGHT_BUTTON*%
X152300000Y-91000000D03*
X160600000Y-138100000D03*
%TO.N,LEFT_BUTTON*%
X150900000Y-87200000D03*
X168775000Y-125275000D03*
%TO.N,DOWN_BUTTON*%
X159800000Y-146300000D03*
X152200000Y-92700000D03*
%TO.N,OK_BUTTON*%
X152400000Y-89000000D03*
X166975000Y-133000000D03*
%TO.N,+5V*%
X62200000Y-48600000D03*
X69500000Y-55800000D03*
%TO.N,USB2_5V*%
X149100000Y-18000000D03*
X138200000Y-18000000D03*
%TO.N,BATTERY_SDA*%
X155900000Y-69900000D03*
X151309817Y-69909817D03*
X142800000Y-85000000D03*
X147575000Y-96500000D03*
%TO.N,TOUCHSCREEN_INT*%
X146400000Y-79300000D03*
X131400000Y-132925000D03*
%TO.N,BATTERY_SCL*%
X144300000Y-84500000D03*
X155800000Y-72000000D03*
X151246880Y-72000000D03*
X149925000Y-96650000D03*
%TO.N,TOUCHSCREEN_RESET*%
X144300000Y-83000000D03*
X107500000Y-142700000D03*
%TO.N,LCD_RESET*%
X106400000Y-126700000D03*
X141800000Y-86300000D03*
%TO.N,LCD_DC*%
X109800000Y-125200000D03*
X143200000Y-86800000D03*
%TO.N,LCD_CS*%
X108600000Y-126400000D03*
X141700000Y-87300000D03*
%TO.N,LCD_LED*%
X135100000Y-104600000D03*
X144000000Y-91400000D03*
%TO.N,SPI1_MOSI*%
X143100000Y-93100000D03*
X143100000Y-96300000D03*
%TO.N,SPI1_SCK*%
X141200000Y-96300000D03*
X141200000Y-93200000D03*
%TO.N,LEFT_GIMBAL_V*%
X30400000Y-85900000D03*
X27300000Y-82800000D03*
%TO.N,RIGHT_GIMBAL_H*%
X60100000Y-87200000D03*
X56100000Y-87200000D03*
%TO.N,RIGHT_GIMBAL_V*%
X56500000Y-86100000D03*
X60000000Y-86100000D03*
%TO.N,BAT-*%
X167600000Y-43250000D03*
%TO.N,BAT+*%
X168450000Y-38900000D03*
%TO.N,Net-(SW1-B)*%
X127300000Y-20500000D03*
X127250000Y-16150000D03*
%TO.N,Net-(SW2-B)*%
X124500000Y-78800000D03*
X16700000Y-79100000D03*
%TO.N,FLASH_CS*%
X145000000Y-96300000D03*
X134900000Y-107600000D03*
X142600000Y-107600000D03*
X144775000Y-92775000D03*
%TO.N,Net-(SW3-B)*%
X75300000Y-13500000D03*
X55700000Y-45200000D03*
%TO.N,SPI1_MISO*%
X142200000Y-92900000D03*
X137100000Y-102600000D03*
%TD*%
D61*
%TO.N,USB1_5V*%
X146150000Y-6300000D02*
X146600000Y-6300000D01*
X145300000Y-5450000D02*
X146150000Y-6300000D01*
%TO.N,GND*%
X142700000Y-5800000D02*
X142650000Y-5850000D01*
X142700000Y-4475000D02*
X142700000Y-5800000D01*
%TO.N,USB1_5V*%
X145300000Y-4475000D02*
X145300000Y-5450000D01*
D62*
%TO.N,USB1_CONN-*%
X144475000Y-4650000D02*
X144650000Y-4475000D01*
X144475000Y-5436368D02*
X144475000Y-4650000D01*
X144225000Y-6143749D02*
X144225000Y-5686368D01*
X144225000Y-5686368D02*
X144475000Y-5436368D01*
X144950000Y-7862500D02*
X144950000Y-6868749D01*
%TO.N,USB1_CONN+*%
X144000000Y-4488603D02*
X144000000Y-4475000D01*
X143825000Y-5450000D02*
X143825000Y-4663603D01*
X143775000Y-5450000D02*
X143825000Y-5450000D01*
X143775000Y-6143749D02*
X143775000Y-5450000D01*
X143825000Y-4663603D02*
X144000000Y-4488603D01*
X143050000Y-7862500D02*
X143050000Y-6868749D01*
%TO.N,USB1_CONN-*%
X144950000Y-6868749D02*
X144225000Y-6143749D01*
%TO.N,USB1_CONN+*%
X143050000Y-6868749D02*
X143775000Y-6143749D01*
D61*
%TO.N,USB2_5V*%
X63768750Y-7868750D02*
X63818750Y-7868750D01*
X61300000Y-5400000D02*
X63768750Y-7868750D01*
%TO.N,GND*%
X58700000Y-4475000D02*
X58700000Y-5850000D01*
%TO.N,USB2_5V*%
X61300000Y-4475000D02*
X61300000Y-5400000D01*
D63*
X66443750Y-9081250D02*
X65231250Y-7868750D01*
X65231250Y-7868750D02*
X63818750Y-7868750D01*
D62*
%TO.N,USB2_CONN-*%
X60475000Y-4650000D02*
X60650000Y-4475000D01*
X60475000Y-5436368D02*
X60475000Y-4650000D01*
X60225000Y-5686368D02*
X60475000Y-5436368D01*
%TO.N,USB2_CONN+*%
X60000000Y-4488603D02*
X60000000Y-4475000D01*
X59825000Y-4663603D02*
X60000000Y-4488603D01*
%TO.N,USB2_CONN-*%
X60225000Y-6143749D02*
X60225000Y-5686368D01*
%TO.N,USB2_CONN+*%
X59825000Y-5450000D02*
X59825000Y-4663603D01*
%TO.N,USB2_CONN-*%
X60950000Y-7862500D02*
X60950000Y-6868749D01*
%TO.N,USB2_CONN+*%
X59775000Y-6143749D02*
X59775000Y-5450000D01*
X59050000Y-6868749D02*
X59775000Y-6143749D01*
X59775000Y-5450000D02*
X59825000Y-5450000D01*
%TO.N,USB2_CONN-*%
X60950000Y-6868749D02*
X60225000Y-6143749D01*
%TO.N,USB2_CONN+*%
X59050000Y-7862500D02*
X59050000Y-6868749D01*
%TO.N,USB1_CONN+*%
X144000000Y-3988603D02*
X144000000Y-3975000D01*
D63*
%TO.N,GND*%
X36400000Y-84100000D02*
X36400000Y-83005000D01*
X36400000Y-83005000D02*
X36405000Y-83000000D01*
X36350000Y-86745000D02*
X36405000Y-86800000D01*
X36350000Y-85650000D02*
X36350000Y-86745000D01*
X125200000Y-85600000D02*
X125200000Y-86757000D01*
X125200000Y-86757000D02*
X125243000Y-86800000D01*
X125250000Y-83007000D02*
X125243000Y-83000000D01*
X125250000Y-84200000D02*
X125250000Y-83007000D01*
D64*
X60770000Y-82280000D02*
X60950000Y-82100000D01*
D63*
X45295000Y-87475000D02*
X45300000Y-87480000D01*
D65*
X167100000Y-33125000D02*
X167100000Y-31850000D01*
X186525000Y-52800000D02*
X186525000Y-54975000D01*
X184900000Y-57250000D02*
X184890000Y-57240000D01*
D61*
X62225000Y-142435000D02*
X62200000Y-142410000D01*
X121995000Y-126275000D02*
X122000000Y-126270000D01*
D65*
X167125000Y-26745000D02*
X167110000Y-26760000D01*
X171950000Y-81850000D02*
X171950000Y-83225000D01*
X173875000Y-83225000D02*
X174600000Y-82500000D01*
X166900000Y-33125000D02*
X165650000Y-31875000D01*
X184725000Y-52372000D02*
X184620000Y-52477000D01*
D63*
X37700000Y-40550000D02*
X37675000Y-40525000D01*
X47300000Y-81025000D02*
X47995000Y-81025000D01*
D65*
X37675000Y-40700000D02*
X38725000Y-40700000D01*
X171950000Y-81850000D02*
X173950000Y-81850000D01*
X184725000Y-51350000D02*
X184725000Y-52372000D01*
D61*
X122630000Y-145900000D02*
X122625000Y-145905000D01*
D65*
X175300000Y-69800000D02*
X174600000Y-70500000D01*
D61*
X136838000Y-81020000D02*
X137380000Y-81020000D01*
D63*
X129225000Y-119795000D02*
X129200000Y-119820000D01*
D64*
X200300000Y-78280000D02*
X200270000Y-78250000D01*
X48050000Y-86520000D02*
X48820000Y-85750000D01*
D61*
X145825000Y-91750000D02*
X145825000Y-91005000D01*
D65*
X184900000Y-59175000D02*
X184900000Y-58375000D01*
D61*
X144000000Y-8356974D02*
X144000000Y-7862500D01*
X62225000Y-143075000D02*
X62225000Y-142435000D01*
D66*
X185370000Y-54890000D02*
X185370000Y-53227000D01*
D65*
X40275000Y-40700000D02*
X40275000Y-41425000D01*
D63*
X38775000Y-56975000D02*
X38750000Y-56950000D01*
X51950000Y-78990000D02*
X51960000Y-79000000D01*
D65*
X175175000Y-83075000D02*
X174600000Y-82500000D01*
D61*
X164300000Y-128425000D02*
X164300000Y-127710000D01*
X115500000Y-147800000D02*
X115500000Y-146960000D01*
D66*
X184890000Y-52747000D02*
X184620000Y-52477000D01*
D65*
X177275000Y-83075000D02*
X175175000Y-83075000D01*
X165550000Y-29300000D02*
X165550000Y-26750000D01*
D61*
X143306974Y-9050000D02*
X144000000Y-8356974D01*
D65*
X186575000Y-56700000D02*
X186575000Y-56525000D01*
D64*
X147162500Y-82750000D02*
X148330000Y-82750000D01*
D65*
X184725000Y-51350000D02*
X185075000Y-51350000D01*
D63*
X44575000Y-87475000D02*
X45295000Y-87475000D01*
D61*
X122625000Y-143365000D02*
X123910000Y-143365000D01*
X62225000Y-118435000D02*
X62200000Y-118410000D01*
D64*
X140797000Y-79000000D02*
X141450000Y-79000000D01*
D66*
X166757000Y-29109000D02*
X166757000Y-31487000D01*
X185370000Y-53227000D02*
X184890000Y-52747000D01*
D61*
X123880000Y-142095000D02*
X123925000Y-142050000D01*
D64*
X56920000Y-90820000D02*
X56920000Y-91100000D01*
D61*
X136150000Y-86125000D02*
X136493000Y-86125000D01*
D63*
X47825000Y-78900000D02*
X47825000Y-78100000D01*
D66*
X166757000Y-31487000D02*
X167110000Y-31840000D01*
D65*
X184900000Y-58375000D02*
X184900000Y-57250000D01*
D61*
X122625000Y-142095000D02*
X123880000Y-142095000D01*
D65*
X40275000Y-40700000D02*
X39275000Y-40700000D01*
X165650000Y-31875000D02*
X165650000Y-29400000D01*
X43450000Y-41425000D02*
X43000000Y-40975000D01*
D64*
X60120000Y-82280000D02*
X60300000Y-82280000D01*
D61*
X57925000Y-8975000D02*
X59549999Y-8975000D01*
D65*
X177375000Y-70975000D02*
X175075000Y-70975000D01*
D63*
X57075000Y-91775000D02*
X57075000Y-91255000D01*
X57075000Y-91255000D02*
X56920000Y-91100000D01*
D65*
X186525000Y-56475000D02*
X186575000Y-56525000D01*
X167100000Y-31850000D02*
X167110000Y-31840000D01*
D61*
X136325000Y-77875000D02*
X136325000Y-78900000D01*
X62200000Y-127025000D02*
X62200000Y-126320000D01*
X102700000Y-129750000D02*
X100425000Y-129750000D01*
D64*
X101025000Y-104625000D02*
X101640000Y-104625000D01*
D61*
X145825000Y-91005000D02*
X145820000Y-91000000D01*
D64*
X145250000Y-90430000D02*
X145250000Y-89162500D01*
X200300000Y-79550000D02*
X200300000Y-78280000D01*
D65*
X43275000Y-40700000D02*
X43000000Y-40975000D01*
D64*
X140750000Y-80837500D02*
X140750000Y-79047000D01*
D61*
X136150000Y-86125000D02*
X135933000Y-86125000D01*
X122625000Y-144635000D02*
X123915000Y-144635000D01*
D63*
X42000000Y-79325000D02*
X42900000Y-79325000D01*
D65*
X192300000Y-68950000D02*
X192300000Y-70350000D01*
D61*
X117365000Y-144625000D02*
X117375000Y-144635000D01*
D65*
X192300000Y-71825000D02*
X192300000Y-70350000D01*
X177300000Y-83050000D02*
X177275000Y-83075000D01*
D64*
X148330000Y-82750000D02*
X149100000Y-81980000D01*
D65*
X177375000Y-70975000D02*
X177375000Y-69800000D01*
D64*
X101640000Y-104625000D02*
X101690000Y-104675000D01*
D63*
X77800000Y-63000000D02*
X80150000Y-63000000D01*
D66*
X185370000Y-54890000D02*
X185370000Y-56760000D01*
D65*
X174000000Y-69900000D02*
X174600000Y-70500000D01*
D64*
X59650000Y-82750000D02*
X60120000Y-82280000D01*
D63*
X40250000Y-41600000D02*
X40275000Y-41625000D01*
D61*
X123925000Y-145900000D02*
X122630000Y-145900000D01*
D63*
X23750000Y-58250000D02*
X23750000Y-56950000D01*
X3430000Y-81250000D02*
X4600000Y-81250000D01*
D64*
X56412500Y-90312500D02*
X56920000Y-90820000D01*
X48050000Y-86520000D02*
X47620000Y-86520000D01*
D65*
X38725000Y-40700000D02*
X39000000Y-40975000D01*
D63*
X129225000Y-119100000D02*
X129225000Y-119795000D01*
X47080000Y-86520000D02*
X47350000Y-86250000D01*
D61*
X149825000Y-81975000D02*
X149105000Y-81975000D01*
D66*
X166757000Y-27113000D02*
X167110000Y-26760000D01*
D63*
X167110000Y-55415000D02*
X167110000Y-57240000D01*
D61*
X62225000Y-119100000D02*
X62225000Y-118435000D01*
D65*
X41725000Y-40700000D02*
X42725000Y-40700000D01*
D64*
X58325000Y-82750000D02*
X59650000Y-82750000D01*
D65*
X42575000Y-41400000D02*
X43000000Y-40975000D01*
D66*
X185370000Y-56760000D02*
X184890000Y-57240000D01*
D65*
X165650000Y-29400000D02*
X165550000Y-29300000D01*
D61*
X136325000Y-79775000D02*
X136325000Y-78900000D01*
X135933000Y-86125000D02*
X135538000Y-86520000D01*
D64*
X48820000Y-85750000D02*
X50000000Y-85750000D01*
D65*
X184900000Y-58275000D02*
X184900000Y-58375000D01*
D63*
X77800000Y-63000000D02*
X75450000Y-63000000D01*
D64*
X138837500Y-85750000D02*
X137658000Y-85750000D01*
D61*
X133330000Y-88250000D02*
X134100000Y-87480000D01*
D65*
X37675000Y-41350000D02*
X38625000Y-41350000D01*
X186525000Y-54975000D02*
X186525000Y-56475000D01*
D63*
X47995000Y-81025000D02*
X48000000Y-81020000D01*
D65*
X44300000Y-41425000D02*
X43450000Y-41425000D01*
D64*
X47620000Y-86520000D02*
X47350000Y-86250000D01*
D63*
X138750000Y-55700000D02*
X138750000Y-56950000D01*
D65*
X175075000Y-70975000D02*
X174600000Y-70500000D01*
D61*
X164275000Y-119685000D02*
X164200000Y-119610000D01*
D64*
X60300000Y-82280000D02*
X60770000Y-82280000D01*
D63*
X73750000Y-5025000D02*
X73750000Y-3430000D01*
D65*
X171875000Y-69925000D02*
X171900000Y-69900000D01*
X167125000Y-25425000D02*
X167125000Y-26745000D01*
D66*
X184890000Y-57240000D02*
X184890000Y-52747000D01*
D61*
X136493000Y-86125000D02*
X136888000Y-86520000D01*
D65*
X173950000Y-81850000D02*
X174600000Y-82500000D01*
D61*
X60000000Y-8524999D02*
X60000000Y-7862500D01*
D65*
X37675000Y-41350000D02*
X37675000Y-40700000D01*
D66*
X166757000Y-29109000D02*
X166757000Y-27113000D01*
D65*
X177300000Y-81775000D02*
X175325000Y-81775000D01*
X175325000Y-81775000D02*
X174600000Y-82500000D01*
D61*
X131713000Y-79350000D02*
X131738000Y-79325000D01*
X130625000Y-79350000D02*
X131713000Y-79350000D01*
X59549999Y-8975000D02*
X60000000Y-8524999D01*
D63*
X38775000Y-58275000D02*
X38775000Y-56975000D01*
D65*
X167100000Y-33125000D02*
X166900000Y-33125000D01*
D61*
X164300000Y-136350000D02*
X164300000Y-135630000D01*
D65*
X174175000Y-70925000D02*
X174600000Y-70500000D01*
X38625000Y-41350000D02*
X39000000Y-40975000D01*
D63*
X38800000Y-35000000D02*
X39700000Y-35000000D01*
D61*
X164300000Y-144325000D02*
X164300000Y-143610000D01*
D65*
X41725000Y-41400000D02*
X42575000Y-41400000D01*
X165550000Y-26750000D02*
X165800000Y-26750000D01*
D61*
X120675000Y-126275000D02*
X121995000Y-126275000D01*
D63*
X123750000Y-55675000D02*
X123750000Y-56950000D01*
D65*
X171875000Y-70925000D02*
X174175000Y-70925000D01*
D64*
X137658000Y-85750000D02*
X136888000Y-86520000D01*
D61*
X164400000Y-152325000D02*
X164400000Y-151610000D01*
X62200000Y-150410000D02*
X62200000Y-151225000D01*
X123915000Y-144635000D02*
X123925000Y-144625000D01*
D63*
X37725000Y-41600000D02*
X40250000Y-41600000D01*
D61*
X137380000Y-81020000D02*
X137550000Y-80850000D01*
D65*
X44300000Y-40700000D02*
X43275000Y-40700000D01*
X185075000Y-51350000D02*
X186525000Y-52800000D01*
D63*
X73800000Y-5075000D02*
X73750000Y-5025000D01*
D65*
X177375000Y-69800000D02*
X175300000Y-69800000D01*
X39450000Y-41425000D02*
X39000000Y-40975000D01*
X42725000Y-40700000D02*
X43000000Y-40975000D01*
D61*
X149105000Y-81975000D02*
X149100000Y-81980000D01*
X102700000Y-129750000D02*
X104950000Y-129750000D01*
D63*
X167150000Y-55375000D02*
X167110000Y-55415000D01*
X125750000Y-4775000D02*
X125750000Y-3430000D01*
D65*
X177300000Y-81775000D02*
X177300000Y-83050000D01*
D64*
X51912500Y-80837500D02*
X51912500Y-79047500D01*
D65*
X165800000Y-26750000D02*
X167125000Y-25425000D01*
X171900000Y-69900000D02*
X174000000Y-69900000D01*
D61*
X116000000Y-144625000D02*
X117365000Y-144625000D01*
X164275000Y-120175000D02*
X164275000Y-119685000D01*
X62200000Y-135150000D02*
X62200000Y-134410000D01*
D64*
X51912500Y-79047500D02*
X51960000Y-79000000D01*
D65*
X171950000Y-83225000D02*
X173875000Y-83225000D01*
D64*
X140750000Y-79047000D02*
X140797000Y-79000000D01*
D61*
X123910000Y-143365000D02*
X123925000Y-143350000D01*
D64*
X145820000Y-91000000D02*
X145250000Y-90430000D01*
D63*
X51950000Y-78325000D02*
X51950000Y-78990000D01*
D61*
X141750000Y-9050000D02*
X143306974Y-9050000D01*
D63*
X46700000Y-86520000D02*
X47080000Y-86520000D01*
D65*
X39275000Y-40700000D02*
X39000000Y-40975000D01*
X184900000Y-58375000D02*
X186575000Y-56700000D01*
D63*
X40275000Y-40550000D02*
X37700000Y-40550000D01*
D61*
X133275000Y-88250000D02*
X133330000Y-88250000D01*
D65*
X40275000Y-41425000D02*
X39450000Y-41425000D01*
X171875000Y-70925000D02*
X171875000Y-69925000D01*
D64*
X56412500Y-89162500D02*
X56412500Y-90312500D01*
%TO.N,Net-(U1-NRST)*%
X135370000Y-85250000D02*
X138837500Y-85250000D01*
X134100000Y-86520000D02*
X135370000Y-85250000D01*
D63*
%TO.N,+3.3V*%
X39900000Y-24525000D02*
X43155000Y-24525000D01*
X190475000Y-68700000D02*
X190475000Y-69875000D01*
D64*
X148392500Y-81020000D02*
X149100000Y-81020000D01*
D63*
X151075000Y-79575000D02*
X151075000Y-80285000D01*
D64*
X59255000Y-81320000D02*
X60300000Y-81320000D01*
D67*
X39700000Y-35950000D02*
X39700000Y-37325000D01*
D64*
X140250000Y-80837500D02*
X139837000Y-80424500D01*
X115500000Y-146000000D02*
X117280000Y-146000000D01*
D63*
X63300000Y-83575000D02*
X63300000Y-84190000D01*
X190475000Y-69875000D02*
X190000000Y-70350000D01*
X189450000Y-68700000D02*
X189450000Y-69350000D01*
X51950000Y-134625000D02*
X53175000Y-134625000D01*
X152050000Y-125375000D02*
X153450000Y-125375000D01*
X190475000Y-68700000D02*
X189450000Y-68700000D01*
X169650000Y-57240000D02*
X169650000Y-55400000D01*
D64*
X130560000Y-122460000D02*
X130575000Y-122475000D01*
D63*
X46695000Y-90000000D02*
X46710000Y-89985000D01*
X134800000Y-90000000D02*
X135533000Y-90000000D01*
X100450000Y-131250000D02*
X102700000Y-131250000D01*
X51100000Y-78900000D02*
X51000000Y-79000000D01*
X137875000Y-78000000D02*
X137875000Y-78900000D01*
X110225000Y-127700000D02*
X110225000Y-128575000D01*
D64*
X57880000Y-90130000D02*
X57880000Y-91100000D01*
D63*
X190000000Y-69900000D02*
X189450000Y-69350000D01*
X60100000Y-134380000D02*
X60100000Y-135150000D01*
X43175000Y-24455000D02*
X43200000Y-24480000D01*
D64*
X149100000Y-81020000D02*
X149100000Y-80325000D01*
D63*
X51950000Y-126625000D02*
X53125000Y-126625000D01*
X118145000Y-125025000D02*
X118155000Y-125015000D01*
X190475000Y-68775000D02*
X190000000Y-69250000D01*
X152050000Y-117375000D02*
X153350000Y-117375000D01*
D64*
X51000000Y-79000000D02*
X51330000Y-79330000D01*
D63*
X162300000Y-152225000D02*
X162300000Y-151580000D01*
D64*
X56912500Y-89162500D02*
X57880000Y-90130000D01*
X117280000Y-146000000D02*
X117375000Y-145905000D01*
D63*
X60100000Y-118380000D02*
X60100000Y-119050000D01*
D64*
X49730000Y-81980000D02*
X50000000Y-82250000D01*
D63*
X41250000Y-58275000D02*
X41250000Y-56950000D01*
X137875000Y-79750000D02*
X137875000Y-78900000D01*
X60100000Y-142380000D02*
X60100000Y-143075000D01*
X144300000Y-73775000D02*
X144300000Y-74590000D01*
D64*
X129200000Y-120780000D02*
X130120000Y-120780000D01*
D63*
X117325000Y-125025000D02*
X118145000Y-125025000D01*
X148710000Y-77000000D02*
X149475000Y-77000000D01*
X50900000Y-78900000D02*
X51000000Y-79000000D01*
D65*
X37700000Y-38325000D02*
X37650000Y-38375000D01*
D63*
X153350000Y-133375000D02*
X153375000Y-133400000D01*
X47275000Y-81975000D02*
X47995000Y-81975000D01*
X49400000Y-78875000D02*
X49375000Y-78900000D01*
D64*
X58325000Y-82250000D02*
X59255000Y-81320000D01*
D63*
X101375000Y-103400000D02*
X101375000Y-101950000D01*
D65*
X40325000Y-38325000D02*
X37700000Y-38325000D01*
D64*
X101720000Y-106175000D02*
X101000000Y-106175000D01*
D63*
X3430000Y-76750000D02*
X4575000Y-76750000D01*
D65*
X37650000Y-37675000D02*
X40325000Y-37675000D01*
D63*
X47995000Y-81975000D02*
X48000000Y-81980000D01*
X146775000Y-91005000D02*
X146780000Y-91000000D01*
X46710000Y-89985000D02*
X47340000Y-89985000D01*
X152050000Y-133375000D02*
X153350000Y-133375000D01*
X162200000Y-120225000D02*
X162200000Y-119580000D01*
D64*
X48000000Y-81980000D02*
X49730000Y-81980000D01*
D63*
X190000000Y-70350000D02*
X190000000Y-69900000D01*
X78250000Y-3430000D02*
X78250000Y-5000000D01*
X190000000Y-69250000D02*
X189450000Y-68700000D01*
D64*
X146780000Y-90192500D02*
X146780000Y-91000000D01*
D63*
X162300000Y-128350000D02*
X162300000Y-127680000D01*
X156500000Y-82525000D02*
X156500000Y-83190000D01*
X43155000Y-24525000D02*
X43200000Y-24480000D01*
D64*
X129200000Y-122460000D02*
X129200000Y-120780000D01*
D67*
X39700000Y-37325000D02*
X39000000Y-38025000D01*
D64*
X51412500Y-79459346D02*
X51412500Y-80837500D01*
D63*
X190000000Y-71850000D02*
X190000000Y-69250000D01*
D64*
X129200000Y-122460000D02*
X130560000Y-122460000D01*
D63*
X49375000Y-78900000D02*
X50900000Y-78900000D01*
X153325000Y-141375000D02*
X152050000Y-141375000D01*
D64*
X138080000Y-81980000D02*
X136838000Y-81980000D01*
D63*
X130250000Y-4600000D02*
X130250000Y-3430000D01*
X38725000Y-34050000D02*
X39700000Y-34050000D01*
X144300000Y-74590000D02*
X144290000Y-74600000D01*
X43175000Y-23350000D02*
X43175000Y-24455000D01*
X60100000Y-126280000D02*
X60100000Y-127000000D01*
X190475000Y-68700000D02*
X190475000Y-68775000D01*
X46325000Y-24525000D02*
X43245000Y-24525000D01*
D64*
X136050000Y-81750000D02*
X136608000Y-81750000D01*
D63*
X141250000Y-58475000D02*
X141250000Y-56950000D01*
D64*
X130120000Y-120780000D02*
X130125000Y-120775000D01*
D63*
X61400000Y-91975000D02*
X61400000Y-92590000D01*
X104925000Y-131250000D02*
X102700000Y-131250000D01*
X139200000Y-79000000D02*
X139837000Y-79000000D01*
D64*
X51330000Y-79330000D02*
X51330000Y-79376846D01*
D63*
X51100000Y-78350000D02*
X51100000Y-78900000D01*
X62800000Y-77650000D02*
X62800000Y-78290000D01*
D64*
X147162500Y-82250000D02*
X148392500Y-81020000D01*
D63*
X46100000Y-90000000D02*
X46695000Y-90000000D01*
X146775000Y-91825000D02*
X146775000Y-91005000D01*
D64*
X57880000Y-91100000D02*
X58500000Y-91100000D01*
D61*
X114700000Y-146000000D02*
X115500000Y-146000000D01*
D63*
X60325000Y-80725000D02*
X60325000Y-81295000D01*
X51950000Y-142625000D02*
X53175000Y-142625000D01*
X190000000Y-71850000D02*
X190000000Y-70350000D01*
X151075000Y-80285000D02*
X151090000Y-80300000D01*
X135533000Y-90000000D02*
X135548000Y-89985000D01*
X126250000Y-58400000D02*
X126250000Y-56950000D01*
X51950000Y-150625000D02*
X53175000Y-150625000D01*
X60100000Y-150380000D02*
X60100000Y-151200000D01*
X51950000Y-118625000D02*
X53125000Y-118625000D01*
X62800000Y-78290000D02*
X62790000Y-78300000D01*
X49375000Y-79750000D02*
X49375000Y-78900000D01*
X60325000Y-81295000D02*
X60300000Y-81320000D01*
D64*
X139837000Y-80424500D02*
X139837000Y-79000000D01*
D63*
X162300000Y-143580000D02*
X162300000Y-144250000D01*
X43245000Y-24525000D02*
X43200000Y-24480000D01*
D64*
X145750000Y-89162500D02*
X146780000Y-90192500D01*
D63*
X26250000Y-58250000D02*
X26250000Y-56950000D01*
D64*
X138350000Y-82250000D02*
X138080000Y-81980000D01*
X51330000Y-79376846D02*
X51412500Y-79459346D01*
D63*
X162300000Y-135600000D02*
X162300000Y-136275000D01*
D64*
X138837500Y-82250000D02*
X138350000Y-82250000D01*
D63*
X47340000Y-89985000D02*
X47350000Y-89975000D01*
X117375000Y-122400000D02*
X118175000Y-122400000D01*
X153350000Y-149375000D02*
X152050000Y-149375000D01*
X49400000Y-78100000D02*
X49400000Y-78875000D01*
D64*
X136608000Y-81750000D02*
X136838000Y-81980000D01*
%TO.N,HSE_IN_1*%
X126998000Y-83000000D02*
X129988000Y-83000000D01*
X130788000Y-83800000D02*
X130038000Y-83050000D01*
X133450000Y-84250000D02*
X133000000Y-83800000D01*
X129988000Y-83000000D02*
X130038000Y-83050000D01*
X138837500Y-84250000D02*
X133450000Y-84250000D01*
X133000000Y-83800000D02*
X130788000Y-83800000D01*
%TO.N,Net-(C10-Pad2)*%
X133328000Y-85100000D02*
X131688000Y-85100000D01*
X129988000Y-86800000D02*
X130038000Y-86750000D01*
X126998000Y-86800000D02*
X129988000Y-86800000D01*
X131688000Y-85100000D02*
X130038000Y-86750000D01*
%TO.N,ON_BUTTON*%
X102690000Y-104730000D02*
X102720000Y-104700000D01*
X102625000Y-101950000D02*
X102625000Y-104605000D01*
X102710000Y-104675000D02*
X110725000Y-104675000D01*
X149600000Y-83250000D02*
X147162500Y-83250000D01*
X102690000Y-106200000D02*
X102690000Y-104730000D01*
X110725000Y-104675000D02*
X113400000Y-102000000D01*
X150975000Y-81875000D02*
X149600000Y-83250000D01*
X102625000Y-104605000D02*
X102720000Y-104700000D01*
%TO.N,MENU_BUTTON*%
X138837500Y-86750000D02*
X139678120Y-86750000D01*
X139678120Y-86750000D02*
X140300000Y-86128120D01*
X140300000Y-85400000D02*
X141200000Y-84500000D01*
X62170000Y-117420000D02*
X62200000Y-117390000D01*
X51950000Y-117375000D02*
X59955000Y-117375000D01*
X140300000Y-86128120D02*
X140300000Y-85400000D01*
X60100000Y-117420000D02*
X62170000Y-117420000D01*
X67490000Y-112100000D02*
X62200000Y-117390000D01*
X59955000Y-117275000D02*
X60100000Y-117420000D01*
X67600000Y-112100000D02*
X67490000Y-112100000D01*
%TO.N,PAGE_UP_BUTTON*%
X60100000Y-133420000D02*
X62170000Y-133420000D01*
X137900000Y-89300000D02*
X134300000Y-92900000D01*
X51950000Y-133375000D02*
X60055000Y-133375000D01*
X138837500Y-87750000D02*
X137900000Y-88687500D01*
X60055000Y-133375000D02*
X60100000Y-133420000D01*
X65110000Y-133390000D02*
X62200000Y-133390000D01*
X62170000Y-133420000D02*
X62200000Y-133390000D01*
X137900000Y-88687500D02*
X137900000Y-89300000D01*
X68700000Y-129800000D02*
X65110000Y-133390000D01*
%TO.N,PAGE_DOWN_BUTTON*%
X138100000Y-96450000D02*
X137250000Y-96450000D01*
X138700000Y-93200000D02*
X138700000Y-90700000D01*
X119700000Y-114000000D02*
X89590000Y-114000000D01*
X138700000Y-95850000D02*
X138100000Y-96450000D01*
X60055000Y-141375000D02*
X60100000Y-141420000D01*
X138700000Y-90700000D02*
X138800000Y-90600000D01*
X60100000Y-141420000D02*
X62170000Y-141420000D01*
X138812500Y-90600000D02*
X140250000Y-89162500D01*
X51950000Y-141375000D02*
X60055000Y-141375000D01*
X62170000Y-141420000D02*
X62200000Y-141390000D01*
X138800000Y-90600000D02*
X138812500Y-90600000D01*
X137250000Y-96450000D02*
X119700000Y-114000000D01*
X89590000Y-114000000D02*
X62200000Y-141390000D01*
%TO.N,BACK_BUTTON*%
X138400000Y-97500000D02*
X137400000Y-98500000D01*
X140750000Y-90003120D02*
X139853120Y-90900000D01*
X139800000Y-90900000D02*
X139800000Y-93000000D01*
X121900000Y-115400000D02*
X121900000Y-115500000D01*
X139853120Y-90900000D02*
X139800000Y-90900000D01*
X60055000Y-149375000D02*
X60100000Y-149420000D01*
X51950000Y-149375000D02*
X60055000Y-149375000D01*
X121900000Y-115500000D02*
X96090000Y-115500000D01*
X137400000Y-99900000D02*
X121900000Y-115400000D01*
X96090000Y-115500000D02*
X62200000Y-149390000D01*
X137400000Y-98500000D02*
X137400000Y-99900000D01*
X62170000Y-149420000D02*
X62200000Y-149390000D01*
X140750000Y-89162500D02*
X140750000Y-90003120D01*
X60100000Y-149420000D02*
X62170000Y-149420000D01*
%TO.N,HOME_BUTTON*%
X63700000Y-125300000D02*
X67900000Y-121100000D01*
X139885226Y-87250000D02*
X141200000Y-85935226D01*
X60100000Y-125320000D02*
X52005000Y-125320000D01*
X60120000Y-125300000D02*
X60100000Y-125320000D01*
X62200000Y-125300000D02*
X63700000Y-125300000D01*
X52005000Y-125320000D02*
X51950000Y-125375000D01*
X62200000Y-125300000D02*
X60120000Y-125300000D01*
X138837500Y-87250000D02*
X139885226Y-87250000D01*
X141200000Y-85935226D02*
X141200000Y-85600000D01*
%TO.N,UP_BUTTON*%
X169635000Y-118590000D02*
X164200000Y-118590000D01*
X152050000Y-118625000D02*
X162195000Y-118625000D01*
X162195000Y-118625000D02*
X162200000Y-118620000D01*
X162200000Y-118620000D02*
X164170000Y-118620000D01*
X147162500Y-85750000D02*
X150550000Y-85750000D01*
X170525000Y-117700000D02*
X169635000Y-118590000D01*
X150550000Y-85750000D02*
X150900000Y-86100000D01*
X164170000Y-118620000D02*
X164200000Y-118590000D01*
%TO.N,RIGHT_BUTTON*%
X152050000Y-142625000D02*
X162295000Y-142625000D01*
X147162500Y-87250000D02*
X148003120Y-87250000D01*
X162300000Y-142620000D02*
X164270000Y-142620000D01*
X160600000Y-140920000D02*
X160600000Y-138100000D01*
X162300000Y-142620000D02*
X160600000Y-140920000D01*
X164270000Y-142620000D02*
X164300000Y-142590000D01*
X148003120Y-87250000D02*
X151753120Y-91000000D01*
X151753120Y-91000000D02*
X152300000Y-91000000D01*
X162295000Y-142625000D02*
X162300000Y-142620000D01*
%TO.N,LEFT_BUTTON*%
X149650000Y-86250000D02*
X150600000Y-87200000D01*
X168775000Y-126025000D02*
X168110000Y-126690000D01*
X152050000Y-126625000D02*
X162205000Y-126625000D01*
X168110000Y-126690000D02*
X164300000Y-126690000D01*
X168775000Y-125275000D02*
X168775000Y-126025000D01*
X162205000Y-126625000D02*
X162300000Y-126720000D01*
X147162500Y-86250000D02*
X149650000Y-86250000D01*
X150600000Y-87200000D02*
X150900000Y-87200000D01*
X162330000Y-126690000D02*
X162300000Y-126720000D01*
X164300000Y-126690000D02*
X162330000Y-126690000D01*
%TO.N,DOWN_BUTTON*%
X162295000Y-150625000D02*
X162300000Y-150620000D01*
X162300000Y-150620000D02*
X159800000Y-148120000D01*
X159800000Y-148120000D02*
X159800000Y-146300000D01*
X152112500Y-92700000D02*
X152200000Y-92700000D01*
X164370000Y-150620000D02*
X164400000Y-150590000D01*
X162300000Y-150620000D02*
X164370000Y-150620000D01*
X152050000Y-150625000D02*
X162295000Y-150625000D01*
X147162500Y-87750000D02*
X152112500Y-92700000D01*
D63*
%TO.N,OK_BUTTON*%
X164300000Y-134610000D02*
X165365000Y-134610000D01*
X152065000Y-134640000D02*
X152050000Y-134625000D01*
D64*
X147162500Y-86750000D02*
X148850000Y-86750000D01*
D63*
X164300000Y-134610000D02*
X162330000Y-134610000D01*
X162285000Y-134625000D02*
X162300000Y-134640000D01*
X162300000Y-134640000D02*
X152065000Y-134640000D01*
X165365000Y-134610000D02*
X166975000Y-133000000D01*
X164270000Y-134640000D02*
X164300000Y-134610000D01*
D64*
X151100000Y-89000000D02*
X152400000Y-89000000D01*
X148850000Y-86750000D02*
X151100000Y-89000000D01*
D63*
X162330000Y-134610000D02*
X162300000Y-134640000D01*
D64*
%TO.N,Net-(U5-NRST)*%
X46570000Y-85250000D02*
X50000000Y-85250000D01*
X45300000Y-86520000D02*
X46570000Y-85250000D01*
%TO.N,HSE_IN_2*%
X50000000Y-84250000D02*
X48250000Y-84250000D01*
X41750000Y-83600000D02*
X41200000Y-83050000D01*
X47600000Y-83600000D02*
X41750000Y-83600000D01*
X41150000Y-83000000D02*
X41200000Y-83050000D01*
X48250000Y-84250000D02*
X47600000Y-83600000D01*
X38160000Y-83000000D02*
X41150000Y-83000000D01*
%TO.N,Net-(C33-Pad2)*%
X44490000Y-85100000D02*
X42850000Y-85100000D01*
X38180000Y-86800000D02*
X41150000Y-86800000D01*
X41150000Y-86800000D02*
X41200000Y-86750000D01*
X42850000Y-85100000D02*
X41200000Y-86750000D01*
D66*
%TO.N,Net-(U7-Vout+)*%
X182350000Y-57240000D02*
X182350000Y-52770000D01*
X181870000Y-54890000D02*
X181870000Y-56760000D01*
X182350000Y-52770000D02*
X182620000Y-52500000D01*
X181870000Y-53250000D02*
X182620000Y-52500000D01*
X182350000Y-69450000D02*
X182350000Y-57240000D01*
X181870000Y-54890000D02*
X181870000Y-53250000D01*
X181870000Y-56760000D02*
X182350000Y-57240000D01*
X183400000Y-70500000D02*
X182350000Y-69450000D01*
X187700000Y-70350000D02*
X183550000Y-70350000D01*
X183550000Y-70350000D02*
X183400000Y-70500000D01*
D67*
%TO.N,+5V*%
X77800000Y-61500000D02*
X75100000Y-61500000D01*
X69500000Y-55800000D02*
X69500000Y-55900000D01*
D65*
X42300000Y-35900000D02*
X42300000Y-37325000D01*
D67*
X69500000Y-55900000D02*
X75100000Y-61500000D01*
D65*
X42300000Y-37325000D02*
X43000000Y-38025000D01*
D67*
X51625000Y-38025000D02*
X43000000Y-38025000D01*
X51625000Y-38025000D02*
X62200000Y-48600000D01*
D63*
%TO.N,Net-(D1-K)*%
X131738000Y-77675000D02*
X133600500Y-77675000D01*
X133600500Y-77675000D02*
X133638000Y-77712500D01*
D64*
%TO.N,LED_1*%
X135150000Y-82750000D02*
X133638000Y-81238000D01*
X138837500Y-82750000D02*
X135150000Y-82750000D01*
X133638000Y-81238000D02*
X133638000Y-79287500D01*
%TO.N,LED_2*%
X50000000Y-82750000D02*
X46450000Y-82750000D01*
X46450000Y-82750000D02*
X44800000Y-81100000D01*
X44800000Y-81100000D02*
X44800000Y-79287500D01*
D63*
%TO.N,Net-(D2-K)*%
X44800000Y-77712500D02*
X42937500Y-77712500D01*
X42937500Y-77712500D02*
X42900000Y-77675000D01*
D67*
%TO.N,Net-(D3-K)*%
X169650000Y-26760000D02*
X169650000Y-22350000D01*
X170257000Y-31233000D02*
X169650000Y-31840000D01*
X169650000Y-22350000D02*
X170000000Y-22000000D01*
X170257000Y-29109000D02*
X170257000Y-31233000D01*
D66*
X169650000Y-31840000D02*
X169650000Y-26760000D01*
X170000000Y-22000000D02*
X174000000Y-22000000D01*
D67*
X170257000Y-27367000D02*
X169650000Y-26760000D01*
X170257000Y-29109000D02*
X170257000Y-27367000D01*
D63*
%TO.N,USB1_5V*%
X146600000Y-6300000D02*
X148350000Y-6300000D01*
X166400000Y-5600000D02*
X174000000Y-13200000D01*
D61*
X144000000Y-9475001D02*
X144425001Y-9050000D01*
X144000000Y-10137500D02*
X144000000Y-9475001D01*
X149025000Y-5600000D02*
X149050000Y-5600000D01*
D63*
X148350000Y-6300000D02*
X149050000Y-5600000D01*
X149050000Y-5600000D02*
X166400000Y-5600000D01*
D61*
X144425001Y-9050000D02*
X145575000Y-9050000D01*
X145575000Y-9050000D02*
X149025000Y-5600000D01*
D63*
X174000000Y-13200000D02*
X174000000Y-18000000D01*
%TO.N,USB2_5V*%
X66443750Y-9081250D02*
X75362500Y-18000000D01*
D61*
X60425001Y-9050000D02*
X66412500Y-9050000D01*
X60000000Y-10137500D02*
X60000000Y-9475001D01*
X60000000Y-9475001D02*
X60425001Y-9050000D01*
D63*
X149100000Y-18000000D02*
X170000000Y-18000000D01*
X75362500Y-18000000D02*
X138200000Y-18000000D01*
D61*
X66412500Y-9050000D02*
X66443750Y-9081250D01*
D64*
%TO.N,BATTERY_SDA*%
X142750000Y-84950000D02*
X142800000Y-85000000D01*
X145310000Y-75590000D02*
X145310000Y-74600000D01*
X117375000Y-142095000D02*
X116745000Y-142095000D01*
X151400000Y-69819634D02*
X151400000Y-69800000D01*
X151400000Y-69819634D02*
X151309817Y-69909817D01*
X142750000Y-78450000D02*
X145300000Y-75900000D01*
X145310000Y-74600000D02*
X145310000Y-73590000D01*
X146800000Y-120900000D02*
X132700000Y-135000000D01*
X145300000Y-75600000D02*
X145310000Y-75590000D01*
X142750000Y-80837500D02*
X142750000Y-78450000D01*
X147575000Y-96500000D02*
X146800000Y-97275000D01*
X145300000Y-75900000D02*
X145300000Y-75600000D01*
X116025000Y-141375000D02*
X103950000Y-141375000D01*
X142750000Y-80837500D02*
X142750000Y-84950000D01*
X132700000Y-135000000D02*
X124470000Y-135000000D01*
X148990183Y-69909817D02*
X151309817Y-69909817D01*
X124470000Y-135000000D02*
X117375000Y-142095000D01*
X145310000Y-73590000D02*
X148990183Y-69909817D01*
X159530000Y-69900000D02*
X172190000Y-57240000D01*
X155900000Y-69900000D02*
X159530000Y-69900000D01*
X116745000Y-142095000D02*
X116025000Y-141375000D01*
X146800000Y-97275000D02*
X146800000Y-120900000D01*
%TO.N,TOUCHSCREEN_INT*%
X144250000Y-79996880D02*
X144946880Y-79300000D01*
X117900000Y-132900000D02*
X114200000Y-136600000D01*
X144250000Y-80837500D02*
X144250000Y-79996880D01*
X131400000Y-132925000D02*
X131375000Y-132900000D01*
X131375000Y-132900000D02*
X117900000Y-132900000D01*
X114200000Y-136600000D02*
X107475000Y-136600000D01*
X144946880Y-79300000D02*
X146400000Y-79300000D01*
X107475000Y-136600000D02*
X103950000Y-140125000D01*
%TO.N,BATTERY_SCL*%
X125100000Y-136700000D02*
X118435000Y-143365000D01*
X147690000Y-77710000D02*
X147690000Y-77000000D01*
X143250000Y-83450000D02*
X144300000Y-84500000D01*
X114625000Y-143875000D02*
X115135000Y-143365000D01*
X147690000Y-75610000D02*
X151246880Y-72053120D01*
X143250000Y-79996880D02*
X144746880Y-78500000D01*
X133400000Y-136700000D02*
X125100000Y-136700000D01*
X144746880Y-78500000D02*
X146900000Y-78500000D01*
X151246880Y-72053120D02*
X151246880Y-72000000D01*
X143250000Y-80837500D02*
X143250000Y-79996880D01*
X149925000Y-96650000D02*
X149400000Y-97175000D01*
X143250000Y-80837500D02*
X143250000Y-83450000D01*
X149400000Y-97175000D02*
X149400000Y-120700000D01*
X174730000Y-57240000D02*
X174730000Y-58970000D01*
X149400000Y-120700000D02*
X133400000Y-136700000D01*
X103950000Y-143875000D02*
X114625000Y-143875000D01*
X147690000Y-77000000D02*
X147690000Y-75610000D01*
X118435000Y-143365000D02*
X117375000Y-143365000D01*
X146900000Y-78500000D02*
X147690000Y-77710000D01*
X174730000Y-58970000D02*
X161700000Y-72000000D01*
X115135000Y-143365000D02*
X117375000Y-143365000D01*
X161700000Y-72000000D02*
X155800000Y-72000000D01*
%TO.N,TOUCHSCREEN_RESET*%
X143750000Y-82450000D02*
X144300000Y-83000000D01*
X107500000Y-142700000D02*
X107425000Y-142625000D01*
X107425000Y-142625000D02*
X103950000Y-142625000D01*
X143750000Y-80837500D02*
X143750000Y-82450000D01*
%TO.N,LCD_RESET*%
X106350000Y-126750000D02*
X102700000Y-126750000D01*
X106400000Y-126700000D02*
X106350000Y-126750000D01*
X143250000Y-87769239D02*
X141800000Y-86319239D01*
X143250000Y-89162500D02*
X143250000Y-87769239D01*
X141800000Y-86319239D02*
X141800000Y-86300000D01*
%TO.N,LCD_DC*%
X143750000Y-87450000D02*
X143750000Y-89162500D01*
X109750000Y-125250000D02*
X102700000Y-125250000D01*
X109800000Y-125200000D02*
X109750000Y-125250000D01*
X143200000Y-86900000D02*
X143750000Y-87450000D01*
X143200000Y-86800000D02*
X143200000Y-86900000D01*
%TO.N,LCD_CS*%
X108600000Y-126400000D02*
X108600000Y-127675000D01*
X142750000Y-89162500D02*
X142750000Y-88321880D01*
X108600000Y-127675000D02*
X108575000Y-127700000D01*
X108025000Y-128250000D02*
X108575000Y-127700000D01*
X141728120Y-87300000D02*
X141700000Y-87300000D01*
X102700000Y-128250000D02*
X108025000Y-128250000D01*
X142750000Y-88321880D02*
X141728120Y-87300000D01*
%TO.N,LCD_LED*%
X135100000Y-104600000D02*
X118950000Y-120750000D01*
X118950000Y-120750000D02*
X102700000Y-120750000D01*
X144250000Y-91150000D02*
X144000000Y-91400000D01*
X144250000Y-89162500D02*
X144250000Y-91150000D01*
%TO.N,SPI1_MOSI*%
X140700000Y-101600000D02*
X140700000Y-121350000D01*
X143100000Y-99200000D02*
X140700000Y-101600000D01*
X102700000Y-123750000D02*
X109750000Y-123750000D01*
X116100000Y-130100000D02*
X125370000Y-130100000D01*
X125370000Y-130100000D02*
X129200000Y-126270000D01*
X142250000Y-89162500D02*
X142250000Y-90003120D01*
X135780000Y-126270000D02*
X129200000Y-126270000D01*
X140700000Y-121350000D02*
X135780000Y-126270000D01*
X109750000Y-123750000D02*
X116100000Y-130100000D01*
X143100000Y-96300000D02*
X143100000Y-99200000D01*
X142250000Y-90003120D02*
X143100000Y-90853120D01*
X143100000Y-90853120D02*
X143100000Y-93100000D01*
%TO.N,SPI1_SCK*%
X129999999Y-125000000D02*
X138700000Y-116299999D01*
X128400001Y-125000000D02*
X129200000Y-125000000D01*
X138700000Y-98800000D02*
X141200000Y-96300000D01*
X116900000Y-128900000D02*
X124500001Y-128900000D01*
X141200000Y-92310000D02*
X141200000Y-93200000D01*
X110250000Y-122250000D02*
X116900000Y-128900000D01*
X138700000Y-116299999D02*
X138700000Y-98800000D01*
X129200000Y-125000000D02*
X129999999Y-125000000D01*
X102700000Y-122250000D02*
X110250000Y-122250000D01*
X124500001Y-128900000D02*
X128400001Y-125000000D01*
%TO.N,CRSF*%
X63790000Y-85210000D02*
X76000000Y-73000000D01*
X63260000Y-85250000D02*
X63300000Y-85210000D01*
X76000000Y-73000000D02*
X76000000Y-66300000D01*
X58325000Y-85250000D02*
X63260000Y-85250000D01*
X63300000Y-85210000D02*
X63790000Y-85210000D01*
X76000000Y-66300000D02*
X77800000Y-64500000D01*
%TO.N,LEFT_GIMBAL_H*%
X36400000Y-94200000D02*
X29000000Y-86800000D01*
X53912500Y-89162500D02*
X53912500Y-90787500D01*
X50500000Y-94200000D02*
X36400000Y-94200000D01*
X40000000Y-64200000D02*
X40000000Y-56950000D01*
X53912500Y-90787500D02*
X50500000Y-94200000D01*
X29000000Y-75200000D02*
X40000000Y-64200000D01*
X29000000Y-86800000D02*
X29000000Y-75200000D01*
%TO.N,LEFT_GIMBAL_V*%
X37600000Y-93100000D02*
X30400000Y-85900000D01*
X27300000Y-82800000D02*
X25000000Y-80500000D01*
X50315620Y-93100000D02*
X37600000Y-93100000D01*
X53412500Y-90003120D02*
X50315620Y-93100000D01*
X25000000Y-80500000D02*
X25000000Y-56950000D01*
X53412500Y-89162500D02*
X53412500Y-90003120D01*
%TO.N,RIGHT_GIMBAL_H*%
X60100000Y-87200000D02*
X61500000Y-88600000D01*
X56100000Y-87200000D02*
X54034380Y-87200000D01*
X109199999Y-88600000D02*
X140000000Y-57799999D01*
X52912500Y-88321880D02*
X52912500Y-89162500D01*
X140000000Y-57799999D02*
X140000000Y-56950000D01*
X54034380Y-87200000D02*
X52912500Y-88321880D01*
X61500000Y-88600000D02*
X109199999Y-88600000D01*
%TO.N,RIGHT_GIMBAL_V*%
X60000000Y-86100000D02*
X61500000Y-86100000D01*
X69800000Y-83600000D02*
X99199999Y-83600000D01*
X66300000Y-87100000D02*
X69800000Y-83600000D01*
X53600000Y-86100000D02*
X56500000Y-86100000D01*
X62500000Y-87100000D02*
X66300000Y-87100000D01*
X99199999Y-83600000D02*
X125000000Y-57799999D01*
X125000000Y-57799999D02*
X125000000Y-56950000D01*
X52412500Y-87287500D02*
X53600000Y-86100000D01*
X61500000Y-86100000D02*
X62500000Y-87100000D01*
X52412500Y-89162500D02*
X52412500Y-87287500D01*
D65*
%TO.N,BAT-*%
X167600000Y-43250000D02*
X164550000Y-43250000D01*
X164550000Y-43250000D02*
X160760000Y-39460000D01*
%TO.N,BAT+*%
X160780000Y-36900000D02*
X160760000Y-36920000D01*
X166450000Y-36900000D02*
X160780000Y-36900000D01*
X168450000Y-38900000D02*
X166450000Y-36900000D01*
D67*
%TO.N,Net-(U9-LX)*%
X43400000Y-32950000D02*
X43400000Y-28720000D01*
X42300000Y-34050000D02*
X43400000Y-32950000D01*
X43400000Y-28720000D02*
X43200000Y-28520000D01*
D64*
%TO.N,Net-(U1-PA5)*%
X141250000Y-91240000D02*
X141250000Y-89162500D01*
X141200000Y-91290000D02*
X141250000Y-91240000D01*
%TO.N,USART1_TX1*%
X57600000Y-93600000D02*
X58300000Y-93600000D01*
X157900000Y-92400000D02*
X157900000Y-88400000D01*
X58310000Y-93610000D02*
X61400000Y-93610000D01*
X157900000Y-88400000D02*
X154750000Y-85250000D01*
X61660000Y-93350000D02*
X131525000Y-93350000D01*
X58300000Y-93600000D02*
X58310000Y-93610000D01*
X156450000Y-93850000D02*
X157900000Y-92400000D01*
X61400000Y-93610000D02*
X61660000Y-93350000D01*
X154750000Y-85250000D02*
X147162500Y-85250000D01*
X131525000Y-93350000D02*
X132025000Y-93850000D01*
X55912500Y-89162500D02*
X55912500Y-91912500D01*
X55912500Y-91912500D02*
X57600000Y-93600000D01*
X132025000Y-93850000D02*
X156450000Y-93850000D01*
D68*
%TO.N,USB1-*%
X153932156Y-77342155D02*
X153932156Y-36903836D01*
X144630556Y-10456944D02*
X144950000Y-10137500D01*
X144630556Y-10853208D02*
X144630556Y-10456944D01*
X143514312Y-11969452D02*
X144630556Y-10853208D01*
X153932156Y-36903836D02*
X143514312Y-26485992D01*
X154300000Y-77709999D02*
X153932156Y-77342155D01*
X143514312Y-26485992D02*
X143514312Y-11969452D01*
X154300000Y-78190000D02*
X154300000Y-77709999D01*
%TO.N,Net-(U1-PA11)*%
X154300000Y-80875000D02*
X154300000Y-79210000D01*
X148286595Y-84232156D02*
X150942844Y-84232156D01*
X147162500Y-84250000D02*
X148268751Y-84250000D01*
X147180344Y-84232156D02*
X147456178Y-84232156D01*
X150942844Y-84232156D02*
X154300000Y-80875000D01*
X147162500Y-84250000D02*
X147180344Y-84232156D01*
X148268751Y-84250000D02*
X148286595Y-84232156D01*
%TO.N,USB1+*%
X153100000Y-78190000D02*
X153100000Y-77709999D01*
X153100000Y-77709999D02*
X153467844Y-77342155D01*
X153467844Y-77342155D02*
X153467844Y-37096164D01*
X143050000Y-26678320D02*
X143050000Y-10137500D01*
X153467844Y-37096164D02*
X143050000Y-26678320D01*
%TO.N,Net-(U1-PA12)*%
X153100000Y-80300000D02*
X153100000Y-79210000D01*
X148268751Y-83750000D02*
X148286595Y-83767844D01*
X147162500Y-83750000D02*
X147180344Y-83767844D01*
X150203836Y-83767844D02*
X153100000Y-80871680D01*
X153100000Y-80871680D02*
X153100000Y-80300000D01*
X152110000Y-80300000D02*
X153100000Y-80300000D01*
X148286595Y-83767844D02*
X150203836Y-83767844D01*
X147162500Y-83750000D02*
X148268751Y-83750000D01*
X147180344Y-83767844D02*
X147456178Y-83767844D01*
D64*
%TO.N,BOOT0_1*%
X142250000Y-75070000D02*
X142250000Y-80837500D01*
X142200000Y-75020000D02*
X142250000Y-75070000D01*
%TO.N,Net-(SW1-B)*%
X127300000Y-20500000D02*
X127300000Y-27100000D01*
X127300000Y-27100000D02*
X148000000Y-47800000D01*
X142200000Y-74000000D02*
X142200000Y-73300000D01*
X148000000Y-67500000D02*
X142200000Y-73300000D01*
X127250000Y-16150000D02*
X127250000Y-3430000D01*
X148000000Y-47800000D02*
X148000000Y-67500000D01*
%TO.N,HSE_OUT_1*%
X138837500Y-84750000D02*
X134698000Y-84750000D01*
X134698000Y-84750000D02*
X134348000Y-85100000D01*
%TO.N,LCD_SWITCH*%
X127110000Y-78810000D02*
X127110000Y-78800000D01*
X134850000Y-83750000D02*
X132000000Y-80900000D01*
X132000000Y-80900000D02*
X129200000Y-80900000D01*
X138837500Y-83750000D02*
X134850000Y-83750000D01*
X129200000Y-80900000D02*
X127110000Y-78810000D01*
%TO.N,Net-(SW2-B)*%
X3430000Y-79750000D02*
X16050000Y-79750000D01*
X124500000Y-78800000D02*
X126090000Y-78800000D01*
X16050000Y-79750000D02*
X16700000Y-79100000D01*
%TO.N,FLASH_CS*%
X134800000Y-107600000D02*
X134900000Y-107600000D01*
X142600000Y-107600000D02*
X145000000Y-105200000D01*
X145000000Y-105200000D02*
X145000000Y-96300000D01*
X123300000Y-121160000D02*
X123300000Y-119100000D01*
X144750000Y-92750000D02*
X144775000Y-92775000D01*
X119825000Y-122400000D02*
X121940000Y-122400000D01*
X123300000Y-119100000D02*
X134800000Y-107600000D01*
X122000000Y-122460000D02*
X123300000Y-121160000D01*
X144750000Y-89162500D02*
X144750000Y-92750000D01*
X121940000Y-122400000D02*
X122000000Y-122460000D01*
%TO.N,Net-(U2-~{HOLD})*%
X122000000Y-125000000D02*
X125000000Y-125000000D01*
X121985000Y-125015000D02*
X122000000Y-125000000D01*
X125000000Y-125000000D02*
X126270000Y-123730000D01*
X119805000Y-125015000D02*
X121985000Y-125015000D01*
X126270000Y-123730000D02*
X129200000Y-123730000D01*
%TO.N,USART1_RX1*%
X58050000Y-95200000D02*
X158600000Y-95200000D01*
X55412500Y-89162500D02*
X55412500Y-92562500D01*
X152950000Y-84750000D02*
X147162500Y-84750000D01*
X153500000Y-84200000D02*
X152950000Y-84750000D01*
X159500000Y-94300000D02*
X159500000Y-86100000D01*
X157600000Y-84200000D02*
X153500000Y-84200000D01*
X55412500Y-92562500D02*
X58050000Y-95200000D01*
X159500000Y-86100000D02*
X157600000Y-84200000D01*
X158600000Y-95200000D02*
X159500000Y-94300000D01*
D68*
%TO.N,Net-(U5-PA11)*%
X58342844Y-84232156D02*
X58653071Y-84232156D01*
X60596164Y-84232156D02*
X66300000Y-78528320D01*
X66300000Y-78528320D02*
X66300000Y-77010000D01*
X58325000Y-84250000D02*
X58342844Y-84232156D01*
X59431251Y-84250000D02*
X59449095Y-84232156D01*
X59449095Y-84232156D02*
X60596164Y-84232156D01*
X58325000Y-84250000D02*
X59431251Y-84250000D01*
%TO.N,USB2-*%
X66300000Y-75990000D02*
X66300000Y-75509999D01*
X60232156Y-21103836D02*
X60232156Y-11849095D01*
X65982156Y-75192155D02*
X65982156Y-26853836D01*
X65982156Y-26853836D02*
X60232156Y-21103836D01*
X60950000Y-11131251D02*
X60950000Y-10137500D01*
X60232156Y-11849095D02*
X60950000Y-11131251D01*
X66300000Y-75509999D02*
X65982156Y-75192155D01*
%TO.N,Net-(U5-PA12)*%
X59449095Y-83767844D02*
X60403836Y-83767844D01*
X65200000Y-78971680D02*
X65200000Y-78300000D01*
X58325000Y-83750000D02*
X59431251Y-83750000D01*
X58342844Y-83767844D02*
X58653071Y-83767844D01*
X63810000Y-78300000D02*
X65200000Y-78300000D01*
X60403836Y-83767844D02*
X65200000Y-78971680D01*
X59431251Y-83750000D02*
X59449095Y-83767844D01*
X58325000Y-83750000D02*
X58342844Y-83767844D01*
X65200000Y-78300000D02*
X65200000Y-77010000D01*
%TO.N,USB2+*%
X59050000Y-11131251D02*
X59050000Y-10137500D01*
X59767844Y-11849095D02*
X59050000Y-11131251D01*
X65200000Y-75509999D02*
X65517844Y-75192155D01*
X65517844Y-75192155D02*
X65517844Y-27046164D01*
X65200000Y-75990000D02*
X65200000Y-75509999D01*
X65517844Y-27046164D02*
X59767844Y-21296164D01*
X59767844Y-21296164D02*
X59767844Y-11849095D01*
D64*
%TO.N,Net-(SW3-B)*%
X75250000Y-3430000D02*
X75250000Y-13450000D01*
X53425000Y-47475000D02*
X55700000Y-45200000D01*
X53425000Y-77450000D02*
X53425000Y-47475000D01*
X75250000Y-13450000D02*
X75300000Y-13500000D01*
%TO.N,BOOT0_2*%
X53412500Y-78482500D02*
X53425000Y-78470000D01*
X53412500Y-80837500D02*
X53412500Y-78482500D01*
%TO.N,HSE_OUT_2*%
X45510000Y-85100000D02*
X45860000Y-84750000D01*
X45860000Y-84750000D02*
X50000000Y-84750000D01*
%TO.N,SPI1_MISO*%
X122270000Y-123730000D02*
X137000000Y-109000000D01*
X137000000Y-102700000D02*
X137100000Y-102600000D01*
X141750000Y-90550000D02*
X142200000Y-91000000D01*
X142200000Y-91000000D02*
X142200000Y-92900000D01*
X141750000Y-89162500D02*
X141750000Y-90550000D01*
X122000000Y-123730000D02*
X122270000Y-123730000D01*
X137000000Y-109000000D02*
X137000000Y-102700000D01*
%TO.N,Net-(SW4-C)*%
X195650000Y-35650000D02*
X186160000Y-35650000D01*
X200270000Y-76750000D02*
X199500000Y-75980000D01*
X199500000Y-39500000D02*
X195650000Y-35650000D01*
X199500000Y-75980000D02*
X199500000Y-39500000D01*
%TO.N,3.3VA_1*%
X137548000Y-86952000D02*
X137020000Y-87480000D01*
X137020000Y-87480000D02*
X136888000Y-87480000D01*
D63*
X135548000Y-89015000D02*
X135548000Y-87490000D01*
X135548000Y-87490000D02*
X135538000Y-87480000D01*
D64*
X138837500Y-86250000D02*
X137996880Y-86250000D01*
X137996880Y-86250000D02*
X137548000Y-86698880D01*
X137548000Y-86698880D02*
X137548000Y-86952000D01*
D63*
X136888000Y-87480000D02*
X135538000Y-87480000D01*
D64*
%TO.N,3.3VA_2*%
X48050000Y-87480000D02*
X48220000Y-87480000D01*
D63*
X46700000Y-87480000D02*
X46700000Y-89005000D01*
X46700000Y-88990000D02*
X46675000Y-89015000D01*
X46700000Y-89005000D02*
X46710000Y-89015000D01*
X46700000Y-87480000D02*
X48050000Y-87480000D01*
D64*
X48710000Y-86700000D02*
X49160000Y-86250000D01*
X49160000Y-86250000D02*
X50000000Y-86250000D01*
X48710000Y-86990000D02*
X48710000Y-86700000D01*
X48220000Y-87480000D02*
X48710000Y-86990000D01*
%TD*%
%TA.AperFunction,Conductor*%
%TO.N,+3.3V*%
G36*
X191923542Y-75319685D02*
G01*
X191933965Y-75327172D01*
X192353462Y-75662770D01*
X192393514Y-75720019D01*
X192400000Y-75759597D01*
X192400000Y-83340402D01*
X192380315Y-83407441D01*
X192353462Y-83437230D01*
X191434498Y-84172400D01*
X191369852Y-84198908D01*
X191355820Y-84199566D01*
X181236879Y-84100361D01*
X181170036Y-84080020D01*
X181169312Y-84079541D01*
X180655217Y-83736811D01*
X180610356Y-83683246D01*
X180600000Y-83633637D01*
X180600000Y-81558869D01*
X180619685Y-81491830D01*
X180645612Y-81462789D01*
X188165779Y-75327916D01*
X188230169Y-75300792D01*
X188244163Y-75300000D01*
X191856503Y-75300000D01*
X191923542Y-75319685D01*
G37*
%TD.AperFunction*%
%TD*%
M02*
